<svg width="202" height="77" viewBox="0 0 202 77" fill="none" xmlns="http://www.w3.org/2000/svg">
<mask id="path-1-inside-1_2168_27420" fill="white">
<path fill-rule="evenodd" clip-rule="evenodd" d="M51.2348 6.41562C48.6894 2.47858 44.2211 -0.0921474 39.1818 0.00252957C33.9416 0.100979 29.4273 3.05625 27.1024 7.35162C24.6758 3.18025 20.1509 0.375185 14.9694 0.375185C7.2268 0.375185 0.950195 6.63854 0.950195 14.3648C0.950195 19.5173 3.74158 24.0191 7.8976 26.4467C3.74158 28.8743 0.950195 33.3762 0.950195 38.5286C0.950195 43.7958 3.86719 48.383 8.17706 50.7695C3.86719 53.156 0.950195 57.7433 0.950195 63.0104C0.950195 70.7366 7.2268 77 14.9694 77C20.2383 77 24.8283 74.0995 27.2234 69.8112C29.6729 74.1494 34.3708 77.0407 39.7096 76.9404C44.5598 76.8492 48.7882 74.3106 51.2342 70.5273C53.7796 74.4643 58.2479 77.035 63.2872 76.9404C68.6009 76.8405 73.1683 73.8031 75.4632 69.4096C77.791 73.9173 82.5013 76.9999 87.933 76.9999C93.3941 76.9999 98.1259 73.8839 100.44 69.3364C102.755 73.8839 107.487 76.9999 112.948 76.9999C118.401 76.9999 123.127 73.8929 125.445 69.3562C127.763 73.8929 132.489 76.9998 137.942 76.9998C143.395 76.9998 148.121 73.8928 150.439 69.3559C152.757 73.8928 157.483 76.9998 162.937 76.9998C168.39 76.9998 173.116 73.8929 175.434 69.3562C177.752 73.8929 182.478 76.9998 187.931 76.9998C195.674 76.9998 201.95 70.7365 201.95 63.0102C201.95 57.7433 199.033 53.1561 194.724 50.7696C199.033 48.383 201.95 43.7958 201.95 38.5289C201.95 33.3763 199.159 28.8743 195.003 26.4468C199.159 24.0192 201.95 19.5173 201.95 14.3647C201.95 6.63842 195.674 0.375063 187.931 0.375063C182.478 0.375063 177.752 3.482 175.434 8.01872C173.116 3.482 168.39 0.375063 162.937 0.375063C157.483 0.375063 152.757 3.48211 150.439 8.01896C148.121 3.48211 143.395 0.375063 137.942 0.375063C132.489 0.375063 127.763 3.48202 125.445 8.01877C123.127 3.48209 118.401 0.375185 112.948 0.375185C107.487 0.375185 102.755 3.49119 100.44 8.0387C98.1259 3.49119 93.3941 0.375185 87.933 0.375185C82.5873 0.375185 77.9404 3.36088 75.5756 7.75233C73.2359 3.07171 68.3489 -0.102484 62.7594 0.00252957C57.9092 0.0936533 53.6808 2.63225 51.2348 6.41562Z"/>
</mask>
<path fill-rule="evenodd" clip-rule="evenodd" d="M51.2348 6.41562C48.6894 2.47858 44.2211 -0.0921474 39.1818 0.00252957C33.9416 0.100979 29.4273 3.05625 27.1024 7.35162C24.6758 3.18025 20.1509 0.375185 14.9694 0.375185C7.2268 0.375185 0.950195 6.63854 0.950195 14.3648C0.950195 19.5173 3.74158 24.0191 7.8976 26.4467C3.74158 28.8743 0.950195 33.3762 0.950195 38.5286C0.950195 43.7958 3.86719 48.383 8.17706 50.7695C3.86719 53.156 0.950195 57.7433 0.950195 63.0104C0.950195 70.7366 7.2268 77 14.9694 77C20.2383 77 24.8283 74.0995 27.2234 69.8112C29.6729 74.1494 34.3708 77.0407 39.7096 76.9404C44.5598 76.8492 48.7882 74.3106 51.2342 70.5273C53.7796 74.4643 58.2479 77.035 63.2872 76.9404C68.6009 76.8405 73.1683 73.8031 75.4632 69.4096C77.791 73.9173 82.5013 76.9999 87.933 76.9999C93.3941 76.9999 98.1259 73.8839 100.44 69.3364C102.755 73.8839 107.487 76.9999 112.948 76.9999C118.401 76.9999 123.127 73.8929 125.445 69.3562C127.763 73.8929 132.489 76.9998 137.942 76.9998C143.395 76.9998 148.121 73.8928 150.439 69.3559C152.757 73.8928 157.483 76.9998 162.937 76.9998C168.39 76.9998 173.116 73.8929 175.434 69.3562C177.752 73.8929 182.478 76.9998 187.931 76.9998C195.674 76.9998 201.95 70.7365 201.95 63.0102C201.95 57.7433 199.033 53.1561 194.724 50.7696C199.033 48.383 201.95 43.7958 201.95 38.5289C201.95 33.3763 199.159 28.8743 195.003 26.4468C199.159 24.0192 201.95 19.5173 201.95 14.3647C201.95 6.63842 195.674 0.375063 187.931 0.375063C182.478 0.375063 177.752 3.482 175.434 8.01872C173.116 3.482 168.39 0.375063 162.937 0.375063C157.483 0.375063 152.757 3.48211 150.439 8.01896C148.121 3.48211 143.395 0.375063 137.942 0.375063C132.489 0.375063 127.763 3.48202 125.445 8.01877C123.127 3.48209 118.401 0.375185 112.948 0.375185C107.487 0.375185 102.755 3.49119 100.44 8.0387C98.1259 3.49119 93.3941 0.375185 87.933 0.375185C82.5873 0.375185 77.9404 3.36088 75.5756 7.75233C73.2359 3.07171 68.3489 -0.102484 62.7594 0.00252957C57.9092 0.0936533 53.6808 2.63225 51.2348 6.41562Z" fill="#F9F9F6"/>
<path d="M39.1818 0.00252957L39.163 -0.997294L39.1818 0.00252957ZM51.2348 6.41562L50.395 6.95856L51.2348 8.25747L52.0746 6.95854L51.2348 6.41562ZM27.1024 7.35162L26.238 7.85445L27.1338 9.39438L27.9818 7.82762L27.1024 7.35162ZM7.8976 26.4467L8.40197 27.3102L9.88027 26.4467L8.40197 25.5832L7.8976 26.4467ZM8.17706 50.7695L8.66148 51.6444L10.2414 50.7695L8.66148 49.8947L8.17706 50.7695ZM27.2234 69.8112L28.0942 69.3195L27.2187 67.769L26.3504 69.3236L27.2234 69.8112ZM39.7096 76.9404L39.7284 77.9402L39.7096 76.9404ZM51.2342 70.5273L52.074 69.9843L51.2342 68.6854L50.3944 69.9844L51.2342 70.5273ZM63.2872 76.9404L63.2684 75.9405L63.2872 76.9404ZM75.4632 69.4096L76.3517 68.9508L75.4683 67.24L74.5769 68.9466L75.4632 69.4096ZM100.44 69.3364L101.332 68.8828L100.44 67.1317L99.5491 68.8828L100.44 69.3364ZM125.445 69.3562L126.335 68.9012L125.445 67.1584L124.554 68.9012L125.445 69.3562ZM150.439 69.3559L151.33 68.9009L150.439 67.1581L149.549 68.9009L150.439 69.3559ZM175.434 69.3562L176.324 68.9012L175.434 67.1584L174.543 68.9012L175.434 69.3562ZM194.724 50.7696L194.239 49.8947L192.66 50.7696L194.239 51.6444L194.724 50.7696ZM195.003 26.4468L194.498 25.5833L193.02 26.4468L194.498 27.3103L195.003 26.4468ZM175.434 8.01872L174.543 8.47372L175.434 10.2165L176.324 8.47372L175.434 8.01872ZM150.439 8.01896L149.549 8.47394L150.439 10.2168L151.33 8.47394L150.439 8.01896ZM125.445 8.01877L124.554 8.47378L125.445 10.2166L126.335 8.47377L125.445 8.01877ZM100.44 8.0387L99.5491 8.49228L100.44 10.2434L101.332 8.49228L100.44 8.0387ZM75.5756 7.75233L74.6812 8.19946L75.5426 9.92281L76.4561 8.22646L75.5756 7.75233ZM62.7594 0.00252957L62.7406 -0.997294L62.7594 0.00252957ZM39.2006 1.00235C43.8803 0.914432 48.03 3.30046 50.395 6.95856L52.0746 5.87268C49.3488 1.65671 44.5619 -1.09873 39.163 -0.997294L39.2006 1.00235ZM27.9818 7.82762C30.1418 3.83693 34.3345 1.09378 39.2006 1.00235L39.163 -0.997294C33.5488 -0.891817 28.7127 2.27558 26.2229 6.87562L27.9818 7.82762ZM14.9694 1.37518C19.781 1.37518 23.9835 3.97884 26.238 7.85445L27.9668 6.84879C25.3681 2.38166 20.5207 -0.624815 14.9694 -0.624815V1.37518ZM1.9502 14.3648C1.9502 7.19282 7.77709 1.37518 14.9694 1.37518V-0.624815C6.67651 -0.624815 -0.0498047 6.08426 -0.0498047 14.3648H1.9502ZM8.40197 25.5832C4.5396 23.3272 1.9502 19.1467 1.9502 14.3648H-0.0498047C-0.0498047 19.8878 2.94355 24.7111 7.39323 27.3102L8.40197 25.5832ZM1.9502 38.5286C1.9502 33.7467 4.5396 29.5662 8.40197 27.3102L7.39323 25.5832C2.94355 28.1823 -0.0498047 33.0056 -0.0498047 38.5286H1.9502ZM8.66148 49.8947C4.65621 47.6769 1.9502 43.4169 1.9502 38.5286H-0.0498047C-0.0498047 44.1746 3.07816 49.0892 7.69264 51.6444L8.66148 49.8947ZM1.9502 63.0104C1.9502 58.1222 4.65621 53.8622 8.66148 51.6444L7.69264 49.8947C3.07816 52.4499 -0.0498047 57.3644 -0.0498047 63.0104H1.9502ZM14.9694 76C7.77709 76 1.9502 70.1824 1.9502 63.0104H-0.0498047C-0.0498047 71.2909 6.67651 78 14.9694 78V76ZM26.3504 69.3236C24.1252 73.3077 19.8622 76 14.9694 76V78C20.6144 78 25.5315 74.8913 28.0965 70.2988L26.3504 69.3236ZM39.6908 75.9405C34.7331 76.0337 30.3699 73.3499 28.0942 69.3195L26.3527 70.3029C28.9759 74.9488 34.0085 78.0477 39.7284 77.9402L39.6908 75.9405ZM50.3944 69.9844C48.1217 73.4997 44.195 75.8559 39.6908 75.9405L39.7284 77.9402C44.9245 77.8426 49.4548 75.1216 52.074 71.0702L50.3944 69.9844ZM63.2684 75.9405C58.5887 76.0285 54.439 73.6424 52.074 69.9843L50.3944 71.0702C53.1202 75.2862 57.9071 78.0416 63.306 77.9402L63.2684 75.9405ZM74.5769 68.9466C72.4448 73.0284 68.2028 75.8478 63.2684 75.9405L63.306 77.9402C68.999 77.8332 73.8919 74.5779 76.3496 69.8726L74.5769 68.9466ZM87.933 75.9999C82.889 75.9999 78.5142 73.1384 76.3517 68.9508L74.5747 69.8684C77.0677 74.6962 82.1135 77.9999 87.933 77.9999V75.9999ZM99.5491 68.8828C97.399 73.1074 93.0043 75.9999 87.933 75.9999V77.9999C93.784 77.9999 98.8528 74.6604 101.332 69.7899L99.5491 68.8828ZM112.948 75.9999C107.876 75.9999 103.482 73.1074 101.332 68.8828L99.5491 69.7899C102.028 74.6604 107.097 77.9999 112.948 77.9999V75.9999ZM124.554 68.9012C122.401 73.1158 118.012 75.9999 112.948 75.9999V77.9999C118.79 77.9999 123.853 74.6701 126.335 69.8112L124.554 68.9012ZM137.942 75.9998C132.878 75.9998 128.489 73.1158 126.335 68.9012L124.554 69.8112C127.037 74.6701 132.1 77.9998 137.942 77.9998V75.9998ZM149.549 68.9009C147.395 73.1156 143.006 75.9998 137.942 75.9998V77.9998C143.785 77.9998 148.847 74.6699 151.33 69.8109L149.549 68.9009ZM162.937 75.9998C157.873 75.9998 153.483 73.1156 151.33 68.9009L149.549 69.8109C152.031 74.6699 157.094 77.9998 162.937 77.9998V75.9998ZM174.543 68.9012C172.39 73.1157 168.001 75.9998 162.937 75.9998V77.9998C168.779 77.9998 173.842 74.67 176.324 69.8112L174.543 68.9012ZM187.931 75.9998C182.867 75.9998 178.478 73.1157 176.324 68.9012L174.543 69.8112C177.026 74.67 182.089 77.9998 187.931 77.9998V75.9998ZM200.95 63.0102C200.95 70.1822 195.123 75.9998 187.931 75.9998V77.9998C196.224 77.9998 202.95 71.2907 202.95 63.0102H200.95ZM194.239 51.6444C198.244 53.8623 200.95 58.1221 200.95 63.0102H202.95C202.95 57.3644 199.822 52.45 195.208 49.8947L194.239 51.6444ZM200.95 38.5289C200.95 43.417 198.244 47.6768 194.239 49.8947L195.208 51.6444C199.822 49.0891 202.95 44.1747 202.95 38.5289H200.95ZM194.498 27.3103C198.361 29.5663 200.95 33.7469 200.95 38.5289H202.95C202.95 33.0057 199.957 28.1823 195.507 25.5833L194.498 27.3103ZM200.95 14.3647C200.95 19.1467 198.361 23.3273 194.498 25.5833L195.507 27.3103C199.957 24.7112 202.95 19.8878 202.95 14.3647H200.95ZM187.931 1.37506C195.123 1.37506 200.95 7.19269 200.95 14.3647H202.95C202.95 6.08414 196.224 -0.624937 187.931 -0.624937V1.37506ZM176.324 8.47372C178.478 4.25914 182.867 1.37506 187.931 1.37506V-0.624937C182.089 -0.624937 177.026 2.70485 174.543 7.56371L176.324 8.47372ZM162.937 1.37506C168.001 1.37506 172.39 4.25914 174.543 8.47372L176.324 7.56371C173.842 2.70485 168.779 -0.624937 162.937 -0.624937V1.37506ZM151.33 8.47394C153.483 4.25924 157.873 1.37506 162.937 1.37506V-0.624937C157.094 -0.624937 152.031 2.70497 149.549 7.56397L151.33 8.47394ZM137.942 1.37506C143.006 1.37506 147.395 4.25925 149.549 8.47394L151.33 7.56397C148.847 2.70497 143.785 -0.624937 137.942 -0.624937V1.37506ZM126.335 8.47377C128.489 4.25917 132.878 1.37506 137.942 1.37506V-0.624937C132.1 -0.624937 127.037 2.70488 124.554 7.56378L126.335 8.47377ZM112.948 1.37518C118.011 1.37518 122.401 4.25924 124.554 8.47378L126.335 7.56377C123.853 2.70494 118.79 -0.624815 112.948 -0.624815V1.37518ZM101.332 8.49228C103.482 4.26769 107.876 1.37518 112.948 1.37518V-0.624815C107.097 -0.624815 102.028 2.71469 99.5491 7.58513L101.332 8.49228ZM87.933 1.37518C93.0043 1.37518 97.399 4.26769 99.5491 8.49228L101.332 7.58513C98.8528 2.71469 93.784 -0.624815 87.933 -0.624815V1.37518ZM76.4561 8.22646C78.6531 4.14663 82.9689 1.37518 87.933 1.37518V-0.624815C82.2057 -0.624815 77.2278 2.57513 74.6952 7.27821L76.4561 8.22646ZM62.7782 1.00235C67.9687 0.904836 72.5077 3.85146 74.6812 8.19946L76.4701 7.30521C73.9641 2.29196 68.7292 -1.1098 62.7406 -0.997294L62.7782 1.00235ZM52.0746 6.95854C54.3473 3.44316 58.274 1.08698 62.7782 1.00235L62.7406 -0.997294C57.5444 -0.89967 53.0142 1.82134 50.395 5.87269L52.0746 6.95854Z" fill="#999999" mask="url(#path-1-inside-1_2168_27420)"/>
</svg>
