<svg width="61" height="46" viewBox="0 0 61 46" fill="none" xmlns="http://www.w3.org/2000/svg">
<g clip-path="url(#clip0_544_6894)">
<path d="M60.471 19.1563C60.2915 18.6377 59.5918 18.5444 59.2055 18.5704C58.0223 18.6511 57.2055 19.0176 56.2593 19.4421C56.097 19.5144 55.9313 19.5892 55.7579 19.6648C55.6455 19.7136 55.5221 19.7489 55.4029 19.7833C55.2811 19.8186 55.1661 19.8514 55.0579 19.8985C54.9784 19.9329 54.9294 19.996 54.8938 20.0422C54.8896 20.0481 54.8853 20.054 54.8811 20.059C54.871 20.059 54.8575 20.0599 54.8482 20.0607C54.7941 20.0624 54.7205 20.0649 54.6444 20.1019C54.5523 20.1464 54.5091 20.2271 54.4837 20.2759L54.4837 20.2784C54.46 20.2834 54.4279 20.2885 54.4051 20.2927C54.3307 20.3053 54.2461 20.3187 54.1684 20.3566C54.0872 20.3961 53.9789 20.4776 53.8537 20.5717C53.7421 20.655 53.6161 20.7499 53.5425 20.7878C53.3599 20.8819 53.3167 20.9105 53.2203 20.9744C53.1933 20.992 53.1611 21.0139 53.1197 21.0408C53.1011 21.0525 53.0334 21.0744 52.9895 21.0878C52.8863 21.1206 52.757 21.1618 52.6538 21.2358C52.5743 21.2929 52.5244 21.356 52.4846 21.4072C52.4592 21.44 52.4381 21.4661 52.4178 21.4804C52.3814 21.5056 52.3323 21.5232 52.2765 21.5434C52.1776 21.5787 52.055 21.6224 51.9375 21.7308C51.8182 21.8409 51.7234 21.9931 51.6404 22.1276C51.6049 22.1856 51.5701 22.2402 51.5414 22.2805C51.5388 22.2814 51.5354 22.2831 51.5321 22.2847C51.4737 22.3108 51.3858 22.3495 51.3139 22.4268C51.2437 22.5033 51.2131 22.5814 51.1911 22.6386C51.1826 22.6613 51.1725 22.6874 51.1657 22.6949C51.1369 22.7285 51.0405 22.7891 50.9762 22.8286C50.8849 22.8857 50.8054 22.9353 50.7504 22.9933C50.6734 23.0757 50.6404 23.1765 50.6115 23.2648C50.5997 23.3001 50.5861 23.3438 50.5734 23.3665C50.5607 23.3783 50.5404 23.3968 50.5176 23.4169C50.4897 23.3875 50.4585 23.3573 50.4213 23.3295C50.0371 23.0412 49.6766 22.684 49.3279 22.3394C49.0231 22.0368 48.7073 21.7249 48.3696 21.4509C48.3028 21.3963 48.1956 21.3417 48.0824 21.2845C48.0283 21.2568 47.9489 21.2164 47.9202 21.1971C47.9067 21.1786 47.8805 21.1324 47.8637 21.1013C47.8105 21.0071 47.7506 20.8995 47.6654 20.8205C47.5547 20.718 47.3926 20.6222 47.2211 20.5221C47.1105 20.4574 46.9956 20.3902 46.9111 20.328C46.89 20.3129 46.8529 20.2902 46.8081 20.2633C46.7709 20.2414 46.6924 20.1943 46.6366 20.154C46.6578 20.112 46.6807 20.0683 46.6951 20.043C46.7069 20.0363 46.7255 20.0271 46.7391 20.0204C46.7872 19.9968 46.8473 19.9682 46.8955 19.9144C46.9928 19.8069 47.0918 19.6984 47.1916 19.5883C47.5817 19.1605 47.9853 18.7175 48.3365 18.2863C48.4719 18.1199 48.6174 17.9829 48.7713 17.8375C48.872 17.7434 48.9752 17.645 49.0801 17.5357C49.141 17.4719 49.2155 17.3828 49.2933 17.2886C49.3974 17.1634 49.515 17.0213 49.5878 16.96C49.6529 16.9045 49.7603 16.8633 49.8643 16.8238C49.9598 16.7877 50.0579 16.7499 50.1391 16.6952C50.2101 16.6473 50.2567 16.5784 50.2982 16.5187C50.321 16.4851 50.3447 16.4506 50.3633 16.4338C50.4564 16.3506 50.6407 16.2514 50.8191 16.1548C51.0356 16.0379 51.2394 15.9278 51.357 15.8101C51.4086 15.758 51.4264 15.7 51.4366 15.6622C51.4687 15.6479 51.5245 15.6294 51.5609 15.6177C51.6547 15.5866 51.7519 15.5555 51.8289 15.4983C51.8949 15.4496 51.9347 15.3865 51.9635 15.3411C51.9736 15.3243 51.9897 15.2991 51.9931 15.2957C52.0176 15.2823 52.0835 15.2688 52.1368 15.2588C52.2704 15.2327 52.4377 15.1999 52.5714 15.0814C52.6407 15.02 52.6653 14.9452 52.6806 14.8998C52.6806 14.8973 52.6823 14.8948 52.6831 14.8923C52.7229 14.8536 52.7584 14.8469 52.8336 14.8326C52.886 14.8225 52.9511 14.8099 53.0221 14.7813C53.8194 14.4628 54.6135 13.9954 55.1481 13.5306C55.1777 13.5046 55.2107 13.4819 55.2454 13.4575C55.3486 13.3852 55.4763 13.2944 55.5678 13.0969C55.6448 12.9313 55.6171 12.7826 55.4845 12.6556C55.1603 12.3438 54.1131 12.4539 54.1029 12.4547C53.6279 12.506 53.233 12.738 52.8508 12.9616C52.6055 13.1053 52.3738 13.2406 52.1312 13.3247C52.0559 13.3507 51.9891 13.365 51.9181 13.3793C51.7778 13.4087 51.6189 13.4415 51.4176 13.571L51.3829 13.5928C50.8459 13.9374 50.2911 14.2938 49.8225 14.6813C49.6644 14.8124 49.5062 14.9091 49.3185 15.0142C49.2593 15.0469 49.1899 15.0948 49.1155 15.1453C49.0369 15.1991 48.9303 15.2722 48.8787 15.2949C48.8686 15.2957 48.8483 15.2966 48.8339 15.2966C48.7722 15.2966 48.6953 15.2983 48.6251 15.3495C48.56 15.3974 48.5414 15.4571 48.5023 15.5866C48.4728 15.5908 48.4406 15.6 48.4085 15.6177C48.3036 15.6748 48.2528 15.7925 48.1944 15.9295C48.1842 15.9539 48.1698 15.9866 48.1588 16.0085C48.1343 16.0203 48.0937 16.0362 48.0624 16.0488C47.9001 16.1144 47.6549 16.2136 47.5127 16.4162C47.3612 16.633 47.1589 16.918 46.9355 17.1962C46.8382 17.3172 46.658 17.4685 46.4829 17.6148C46.2545 17.8064 46.0388 17.9871 45.9262 18.1586C45.8738 18.2393 45.8466 18.325 45.822 18.3998C45.8034 18.4586 45.7856 18.5141 45.7593 18.5519C45.728 18.5982 45.6671 18.6612 45.6087 18.7217C45.5267 18.8075 45.4412 18.8957 45.3811 18.989C45.3659 19.0134 45.3532 19.0378 45.343 19.0613C45.3016 19.0243 45.2501 18.9773 45.1843 18.9167L45.1716 18.905C44.3526 18.1502 43.4676 17.4534 42.7446 16.9928C42.3713 16.7549 41.9827 16.5784 41.606 16.4078C41.4497 16.3372 41.2884 16.2632 41.1304 16.1867C41.0873 16.1657 40.9809 16.1195 40.8466 16.0598C40.6987 15.9951 40.4335 15.8791 40.2797 15.8059C40.306 15.7807 40.3347 15.7555 40.3516 15.7404C40.4049 15.6941 40.4464 15.6572 40.4735 15.6059C40.5107 15.5353 40.5193 15.4613 40.5261 15.4016C40.5286 15.3773 40.5329 15.3394 40.538 15.3277C40.6083 15.1688 40.7225 15.0503 40.8427 14.9242C40.9315 14.8309 41.0237 14.7351 41.1058 14.6174C41.1541 14.5485 41.1702 14.4771 41.1829 14.4258C41.1863 14.4123 41.1897 14.3964 41.1923 14.3871C41.2337 14.3501 41.3445 14.2594 41.4215 14.198C41.5365 14.1047 41.6448 14.0164 41.6938 13.9702C41.7548 13.9122 41.8783 13.8114 41.9874 13.7223C42.1498 13.5903 42.2191 13.5323 42.2547 13.4928C42.3097 13.4306 42.3537 13.3608 42.396 13.2936C42.4595 13.1927 42.5204 13.0969 42.6203 13.0137C42.8402 12.8305 43.0339 12.6489 43.2403 12.4564C43.3046 12.3967 43.3689 12.3362 43.4349 12.2757C43.5085 12.2085 43.5889 12.1152 43.6676 12.0261C43.7505 11.9311 43.8452 11.8235 43.8994 11.7823C43.9231 11.7663 44.0254 11.7151 44.0871 11.6848C44.279 11.589 44.3306 11.5629 44.3704 11.5033C44.4119 11.4419 44.4297 11.389 44.4432 11.3494C44.4594 11.3024 44.4678 11.2763 44.5448 11.2099C44.5913 11.1696 44.7123 11.0981 44.8002 11.0452C44.9228 10.972 44.9879 10.9325 45.0311 10.8922C45.0844 10.8418 45.1039 10.7804 45.1166 10.7401C45.1183 10.7342 45.12 10.7283 45.1217 10.7224C45.2359 10.6056 45.3788 10.5098 45.5302 10.4097C45.6638 10.3206 45.8025 10.2282 45.9269 10.1155C45.9802 10.0676 46.0343 10.0155 46.0902 9.96173C46.2111 9.8449 46.3363 9.7247 46.4624 9.63729C46.8057 9.40026 47.2032 9.12709 47.5694 8.89174C47.8096 8.73708 48.0684 8.59167 48.3187 8.4513C48.6468 8.26722 48.9867 8.07642 49.2996 7.85705C49.3622 7.81334 49.3927 7.7545 49.413 7.71584C49.413 7.71415 49.4147 7.71332 49.4147 7.71163C49.4502 7.6965 49.5162 7.67717 49.5618 7.66372C49.6954 7.62422 49.8341 7.58303 49.9347 7.50318C50.0379 7.42165 50.1758 7.3023 50.2976 7.19723C50.3475 7.15436 50.3949 7.11318 50.438 7.07619C50.8398 6.7341 50.7835 6.44916 50.7413 6.34325C50.6891 6.21213 50.5253 5.99695 50.0199 6.02301C49.4494 6.05243 49.1627 6.21129 48.8304 6.39536C48.7095 6.46261 48.5852 6.53153 48.4347 6.60045C48.3687 6.63071 48.2892 6.65425 48.2132 6.67778C48.1362 6.70048 48.0559 6.72485 47.9857 6.75679C47.8978 6.7963 47.8369 6.86018 47.7878 6.91145C47.7599 6.94087 47.7311 6.97029 47.7108 6.98121C47.6685 7.00307 47.5832 7.02072 47.5071 7.03669C47.4099 7.05686 47.3186 7.07619 47.2416 7.11318C47.1841 7.14091 47.1351 7.18966 47.0285 7.29725C46.9379 7.38887 46.8144 7.51411 46.7349 7.56118C46.6461 7.61329 46.5109 7.65532 46.3908 7.6923C46.2716 7.72928 46.1693 7.76038 46.0907 7.80577C46.0281 7.84192 45.9909 7.89739 45.9511 7.95623C45.9325 7.98397 45.8969 8.03608 45.88 8.04869C45.836 8.07642 45.7929 8.09323 45.743 8.11341C45.6517 8.15039 45.5376 8.19662 45.4056 8.31345C45.3362 8.37481 45.2804 8.44794 45.2313 8.51266C45.1864 8.5715 45.1407 8.63201 45.1035 8.65639C45.068 8.67908 45.0148 8.69169 44.9581 8.7043C44.8896 8.71943 44.8127 8.73708 44.7442 8.78079C44.6571 8.8371 44.5615 8.95478 44.4151 9.14222C44.3609 9.21114 44.2788 9.31536 44.2543 9.33722C44.2408 9.34646 44.196 9.36748 44.163 9.38345C44.081 9.42211 43.9795 9.46918 43.8907 9.54063C43.807 9.60787 43.713 9.71966 43.6132 9.83733C43.5438 9.91971 43.4389 10.0433 43.4008 10.0685C43.3864 10.0777 43.3509 10.0853 43.3222 10.0912C43.2672 10.1029 43.2055 10.1155 43.148 10.1576C43.0677 10.2164 43.0414 10.2996 43.0261 10.3492C43.0244 10.3543 43.0227 10.3593 43.021 10.3643C42.84 10.5669 42.6124 10.7712 42.3925 10.9678C42.2334 11.1107 42.0685 11.2578 41.9204 11.4058C41.8663 11.4596 41.8417 11.5209 41.8282 11.5655C41.8129 11.5722 41.796 11.5798 41.7825 11.5865C41.6844 11.6302 41.5736 11.6798 41.4992 11.7563C41.429 11.8277 41.3968 11.8681 41.3765 11.8924C41.3723 11.8975 41.3689 11.9017 41.3681 11.9034C41.3562 11.9134 41.2979 11.9487 41.2243 11.9933C41.1558 12.0345 41.1185 12.1026 41.0796 12.1748C41.072 12.1891 41.0601 12.211 41.0499 12.227C41.044 12.2278 41.0381 12.2295 41.0322 12.2303C40.968 12.2412 40.8606 12.2606 40.7667 12.3514C40.6711 12.4438 40.6414 12.5691 40.6159 12.68C40.6006 12.743 40.5828 12.8221 40.5583 12.849C40.5464 12.8624 40.4991 12.8834 40.4644 12.8994C40.4044 12.9263 40.3367 12.9565 40.2741 13.0078C40.1693 13.0944 40.0559 13.2247 39.9357 13.3625C39.8173 13.4987 39.6946 13.6399 39.5838 13.7357C39.5745 13.7424 39.544 13.7559 39.5263 13.7643C39.4578 13.7954 39.3808 13.8307 39.3334 13.9097C39.2826 13.9938 39.2817 14.0837 39.2808 14.156C39.2807 14.1778 39.2807 14.2072 39.2773 14.2274L39.2748 14.2291C39.2325 14.256 39.1615 14.2997 39.1242 14.3905C39.0962 14.4577 39.0919 14.5224 39.0893 14.5695C39.0893 14.5754 39.0893 14.5813 39.0885 14.5872C39.0851 14.5905 39.0817 14.5931 39.0783 14.5964C38.9777 14.6922 38.9032 14.7645 38.8677 14.8326C38.8355 14.8931 38.8168 14.9721 38.7956 15.0629C38.7939 15.0705 38.7922 15.078 38.7896 15.0864C38.6502 15.0427 38.5074 15.0049 38.3689 14.9688C38.0596 14.8872 37.7673 14.8099 37.5139 14.6737C37.399 14.6115 37.334 14.5418 37.2589 14.4611C37.15 14.3434 37.0259 14.2098 36.7665 14.1215C36.6592 14.0854 36.5401 14.0686 36.4251 14.0534C36.3373 14.0417 36.2468 14.0291 36.1902 14.0097C36.1801 14.0055 36.1548 13.9853 36.1379 13.9727C36.0957 13.94 36.0424 13.8988 35.9723 13.8727C35.6175 13.7399 35.1857 13.6643 34.6288 13.6365L34.6636 13.5222C34.6712 13.4962 34.6738 13.4693 34.6721 13.4424C34.6604 13.3096 34.6994 13.1784 34.7444 13.0271C34.791 12.8716 34.8436 12.6943 34.8379 12.4976C34.8362 12.4472 34.8228 12.406 34.8067 12.3732C34.8499 12.327 34.9184 12.269 34.9463 12.2455C35.0233 12.1799 35.0842 12.1286 35.0868 12.0278C35.0895 11.9328 35.0304 11.8765 35.0109 11.858C35.0287 11.7991 35.0897 11.6798 35.127 11.6058C35.193 11.4747 35.2557 11.3511 35.2786 11.2486C35.2922 11.1881 35.2982 11.12 35.305 11.0477C35.3136 10.9561 35.323 10.8519 35.3476 10.7779C35.3603 10.7409 35.4399 10.5451 35.4823 10.4484C35.5406 10.4282 35.6345 10.3854 35.7047 10.2694C35.7742 10.1534 35.8183 9.97938 35.8565 9.82641C35.8658 9.78774 35.8785 9.73899 35.8879 9.70621C35.9301 9.6852 35.9944 9.65074 36.0367 9.58097C36.0867 9.4986 36.0927 9.41287 36.0961 9.35571C36.0961 9.3431 36.097 9.33133 36.0996 9.31957C36.1343 9.23972 36.2375 9.09431 36.3213 8.97747C36.3907 8.88081 36.4559 8.78919 36.4991 8.71439C36.5685 8.59419 36.6101 8.43533 36.65 8.28151C36.6822 8.15964 36.7144 8.03272 36.7542 7.95791C36.7703 7.94614 36.7999 7.92849 36.8202 7.91504C36.9056 7.86209 37.013 7.79569 37.0799 7.69482C37.1383 7.60657 37.1629 7.50318 37.1816 7.42081C37.1875 7.39475 37.196 7.35693 37.2028 7.34096C37.2257 7.31154 37.3001 7.24094 37.3331 7.21068C37.4185 7.13083 37.4608 7.09132 37.4719 7.00895C37.4796 6.95011 37.4661 6.90052 37.4543 6.86438C37.4864 6.84253 37.5279 6.81731 37.5549 6.8005C37.659 6.73578 37.6979 6.7114 37.73 6.66013C37.7749 6.58785 37.7631 6.51724 37.7539 6.48278C37.7759 6.46765 37.8198 6.44748 37.8477 6.43487C37.9137 6.40377 37.9822 6.37267 38.0355 6.31719C38.0702 6.28189 38.0905 6.24323 38.1032 6.20877C38.1497 6.19364 38.2063 6.1659 38.252 6.11211C38.3333 6.01629 38.3359 5.90618 38.3377 5.83977C38.3377 5.82633 38.3377 5.80699 38.3377 5.80531C38.3453 5.78094 38.353 5.76833 38.3563 5.76245C38.3648 5.76076 38.3792 5.75824 38.3902 5.7574C38.4468 5.74984 38.5406 5.73639 38.6201 5.65906C38.687 5.5935 38.7598 5.48339 38.8368 5.36656C38.8774 5.3052 38.9189 5.24132 38.9485 5.20349C38.9578 5.19845 38.9739 5.19173 38.9832 5.18836C39.0212 5.17239 39.072 5.15138 39.1109 5.09422C39.1524 5.03202 39.1533 4.96898 39.144 4.92107C39.166 4.90595 39.1889 4.88745 39.21 4.86224C39.6551 4.3243 40.2414 3.74349 40.8174 3.26859C40.9164 3.18706 41.0314 3.10217 41.1524 3.01223C41.4442 2.79622 41.7757 2.55162 41.9797 2.27172C42.033 2.1986 42.139 1.86995 42.1002 1.72958C42.0295 1.47406 41.7346 1.40766 41.5022 1.42951C41.3517 1.4438 40.2588 1.65562 40.0617 1.79262C39.9382 1.8792 39.9069 1.88592 39.8511 1.89853C39.7996 1.9103 39.7294 1.92627 39.6153 1.9767C39.0598 2.22297 38.4134 2.88279 37.9125 3.42998C37.7924 3.56026 37.6857 3.70483 37.5825 3.84352C37.4598 4.00826 37.3447 4.1646 37.2195 4.28395C37.2119 4.28732 37.1966 4.2932 37.1865 4.2974C37.14 4.31505 37.0766 4.33859 37.0233 4.39406C36.9564 4.46383 36.9014 4.58318 36.8184 4.77062C36.7862 4.84375 36.7421 4.94377 36.7227 4.97319C36.6803 5.03539 36.5814 5.0959 36.4858 5.15474C36.386 5.2161 36.282 5.27914 36.205 5.36571C36.1306 5.44893 36.1093 5.53634 36.0966 5.58846C36.0966 5.59182 36.0949 5.59518 36.0941 5.59854C36.089 5.60106 36.0831 5.60274 36.0772 5.60527C36.029 5.62544 35.9639 5.65318 35.9063 5.71201C35.8082 5.8112 35.7557 5.95493 35.709 6.08101C35.687 6.14152 35.6556 6.22474 35.6353 6.25079C35.5084 6.41133 35.4906 6.44075 35.4483 6.53489C35.4339 6.56515 35.4152 6.60634 35.3788 6.6761C35.3593 6.71308 35.2781 6.80722 35.2189 6.87615C35.1131 6.99886 35.004 7.12494 34.9523 7.23505C34.8947 7.35777 34.9157 7.46032 34.9283 7.52083C34.9292 7.52588 34.9309 7.53092 34.9317 7.53512C34.8893 7.63851 34.72 7.98985 34.659 8.10416C34.5939 8.1319 34.473 8.18317 34.3883 8.36893C34.3434 8.46643 34.3035 8.58999 34.2611 8.71943C34.2187 8.84887 34.1755 8.98251 34.1306 9.07749C34.0451 9.25737 33.9452 9.43304 33.8385 9.61964C33.6251 9.99283 33.405 10.3795 33.3031 10.8132C33.2853 10.8897 33.2818 10.9754 33.2784 11.0578C33.2766 11.1074 33.274 11.1654 33.2681 11.2082C33.2359 11.2276 33.1945 11.257 33.1632 11.3066C33.0641 11.4604 33.0893 11.6579 33.1094 11.8168C33.117 11.8739 33.1237 11.9328 33.1219 11.9647C33.1185 12.0143 33.0931 12.0916 33.0702 12.1606C33.049 12.2244 33.0269 12.2908 33.015 12.3547C33.0006 12.432 33.0183 12.4976 33.0301 12.5388C33.014 12.5581 32.9886 12.5842 32.9725 12.601C32.8981 12.6783 32.8126 12.7657 32.7998 12.8876C32.7879 12.9977 32.8292 13.0885 32.8596 13.1549C32.8612 13.1583 32.8629 13.1625 32.8646 13.1667C32.8443 13.1961 32.8206 13.2364 32.8129 13.2902C32.8087 13.3196 32.8104 13.3415 32.817 13.4449C32.8187 13.4743 32.822 13.5239 32.8253 13.576C32.6614 13.5584 32.4966 13.5508 32.336 13.5432C32.2338 13.5382 32.1324 13.5331 32.0318 13.5264C31.9169 13.518 31.8045 13.5104 31.6938 13.5037C31.3861 13.4844 31.0963 13.4659 30.8022 13.4256C30.5698 13.3936 30.3704 13.3894 30.1777 13.3844C30.0391 13.381 29.9073 13.3776 29.7653 13.365C29.7044 13.36 29.625 13.339 29.5481 13.3188C29.4391 13.2902 29.3259 13.2608 29.216 13.2583C29.1366 13.2574 29.0597 13.2768 28.9997 13.2928C28.9718 13.3003 28.9295 13.3121 28.9168 13.3121C28.9092 13.3104 28.8881 13.302 28.8729 13.2953C28.8104 13.2701 28.7166 13.2314 28.5923 13.244C28.4782 13.2566 28.3996 13.3138 28.3514 13.3507C28.2753 13.3449 28.1274 13.3297 28.0725 13.323C27.808 13.2894 27.5731 13.2759 27.3111 13.2801C27.2621 13.2801 27.2037 13.2902 27.142 13.2995C27.12 13.3028 27.0913 13.307 27.0643 13.3112C26.9732 13.0977 26.9463 12.9179 26.9593 12.6497C26.9671 12.4884 26.9731 12.3589 26.8566 12.2723C26.8566 12.2698 26.8549 12.2673 26.854 12.2648C26.8229 12.1757 26.8322 12.0992 26.845 12.0034C26.8527 11.9437 26.8604 11.8823 26.8579 11.8143C26.8562 11.7748 26.842 11.6899 26.7491 11.6335C26.6826 11.3486 26.7006 11.0695 26.7195 10.777C26.729 10.6308 26.7384 10.4787 26.7369 10.3257C26.7361 10.2383 26.7126 10.145 26.689 10.0542C26.6764 10.0063 26.657 9.92979 26.6536 9.89113C26.6553 9.88945 26.657 9.88692 26.6579 9.88524C26.6833 9.8491 26.7256 9.78858 26.735 9.70453C26.7461 9.60619 26.7157 9.51037 26.6879 9.42547C26.6804 9.4011 26.6694 9.36748 26.6635 9.34646C26.666 9.3431 26.6686 9.34058 26.6711 9.33722C26.7067 9.29351 26.7591 9.22879 26.7694 9.13213C26.7762 9.06909 26.7585 9.01193 26.7391 8.95142C26.7206 8.8909 26.697 8.81609 26.708 8.76398C26.8244 8.21763 26.8621 7.75702 26.888 7.14512C26.8915 7.0535 26.8679 6.9602 26.8461 6.87867C26.836 6.83916 26.82 6.77949 26.82 6.76183C26.8242 6.72905 26.8666 6.62903 26.8954 6.56347C26.9411 6.45588 26.9886 6.34409 27.009 6.24575C27.048 6.05579 27.0542 5.85238 27.0611 5.65486C27.069 5.42035 27.076 5.19845 27.1336 5.0295C27.1616 4.94713 27.2505 4.80508 27.3216 4.69161C27.4189 4.53527 27.4748 4.44281 27.496 4.36212C27.5198 4.2705 27.5173 4.18813 27.5149 4.11501C27.5124 4.05365 27.5116 4.00574 27.5252 3.96287C27.5718 3.8225 27.6624 3.6855 27.7597 3.54092C27.885 3.35265 28.0272 3.13999 28.1027 2.87186C28.1179 2.81975 28.1332 2.76512 28.1417 2.73738C28.1671 2.71384 28.1984 2.68022 28.2441 2.6197C28.338 2.49362 28.6134 1.75732 28.6287 1.71445C28.7202 1.44632 28.701 1.20677 28.5753 1.03783C28.4968 0.932761 28.3431 0.811725 28.0498 0.821811C28.0245 0.822651 27.5951 0.873083 27.4792 0.953774C27.4124 1 27.3422 1.09246 27.233 1.23871C27.1881 1.29923 27.1365 1.36731 27.1111 1.39505C27.0519 1.45809 27.002 1.50852 26.958 1.55307C26.7863 1.72622 26.683 1.83129 26.5314 2.1633C26.484 2.26752 26.4087 2.32384 26.3478 2.36839C26.3005 2.40369 26.2556 2.43731 26.2243 2.49362C26.1879 2.56087 26.176 2.64576 26.1589 2.79117C26.1512 2.85589 26.1393 2.95424 26.13 2.98113C26.1241 2.99374 26.1139 3.00803 26.1029 3.02568C26.0606 3.09376 25.9962 3.19631 25.9454 3.34592C25.8928 3.5031 25.8318 3.6275 25.7615 3.77123C25.7353 3.82418 25.7082 3.87966 25.6811 3.9385C25.5862 4.14106 25.5675 4.2621 25.5513 4.36885C25.542 4.43105 25.5335 4.48568 25.5106 4.56217C25.4962 4.58738 25.4496 4.64874 25.4209 4.68573C25.3413 4.78827 25.2956 4.85047 25.2769 4.91855C25.2456 5.03202 25.2903 5.12616 25.3164 5.18248C25.324 5.19845 25.3358 5.22451 25.3366 5.23207C25.3357 5.30436 25.2908 5.39934 25.2383 5.50945C25.1595 5.67671 25.0613 5.88432 25.0619 6.14152C25.0618 6.20456 25.0787 6.25752 25.098 6.29954C25.0481 6.34073 24.9982 6.40461 24.9804 6.50211C24.954 6.65088 24.9758 6.82487 24.9984 7.01063C25.0177 7.16529 25.037 7.32415 25.0208 7.42753C25.0183 7.43762 24.9997 7.46452 24.9887 7.48133C24.9548 7.53092 24.9032 7.60573 24.9056 7.70575C24.9072 7.77972 24.9325 7.84948 24.9595 7.92429C24.9805 7.98228 25.0067 8.05541 25.0049 8.09576C24.998 8.25209 24.9421 8.4202 24.8878 8.58242C24.8691 8.63874 24.8513 8.69421 24.8352 8.74801C24.7555 9.0153 24.7808 9.1254 24.8634 9.25821C24.8812 9.28595 24.8913 9.30276 24.9014 9.33806C24.9351 9.46162 24.9197 9.58601 24.9027 9.73059C24.8831 9.89365 24.8609 10.0786 24.9097 10.2879C24.9265 10.361 24.9586 10.4165 24.9839 10.461C25.0084 10.503 25.0185 10.5224 25.0185 10.5417C25.0218 10.6325 24.9692 10.7745 24.9302 10.8788C24.8921 10.9813 24.8641 11.0561 24.8641 11.1292C24.8639 11.2402 24.9103 11.3368 24.9441 11.4074C24.9508 11.4209 24.9592 11.4385 24.9643 11.4495C24.9626 11.452 24.9609 11.4545 24.9601 11.4562C24.9389 11.4915 24.9033 11.5503 24.9066 11.631C24.9099 11.7134 24.9555 11.7714 24.9884 11.8134C24.996 11.8227 25.007 11.837 25.0129 11.8462C25.0171 11.8731 25.0154 11.9092 25.0128 11.9479C25.0102 12.0051 25.0068 12.0706 25.0194 12.1412C25.0345 12.2244 25.0792 12.3009 25.1222 12.3741C25.1307 12.3875 25.14 12.4043 25.1492 12.4211C25.1238 12.4581 25.0967 12.5119 25.0941 12.58C25.0933 12.6044 25.094 12.7044 25.1878 12.7691C25.1894 12.8288 25.1935 12.9069 25.2213 12.9885C25.2517 13.0751 25.2854 13.1549 25.3191 13.2314C25.3663 13.3415 25.4102 13.4415 25.4354 13.5474C25.4278 13.5474 25.4202 13.5483 25.4126 13.5491C25.1903 13.5659 24.9604 13.5827 24.7313 13.6348C24.6206 13.6601 24.5386 13.6651 24.4507 13.671C24.3696 13.676 24.2867 13.6819 24.1912 13.7038C23.9697 13.7542 23.7271 13.882 23.492 14.0055C23.3017 14.1055 23.1047 14.2089 22.9449 14.256C22.6854 14.3325 22.523 14.4249 22.3657 14.5149C22.2516 14.5804 22.1433 14.6418 21.9894 14.704C21.7865 14.7864 21.6834 14.8049 21.4577 14.8234C21.3943 14.8284 21.3377 14.8503 21.2929 14.8687C21.2464 14.8393 21.189 14.8023 21.1603 14.783C21.1409 14.7561 21.1063 14.6939 21.0827 14.6519C21.0219 14.5435 20.9536 14.4207 20.8725 14.3384C20.8227 14.2879 20.7864 14.2568 20.7569 14.2325C20.7172 14.1988 20.6885 14.1745 20.6285 14.103C20.4555 13.8963 20.3518 13.6525 20.2413 13.3945C20.2034 13.3054 20.1655 13.2163 20.125 13.128C20.0466 12.9591 19.8913 12.7489 19.7664 12.58C19.7073 12.4993 19.6254 12.3892 19.6111 12.3589C19.5748 12.2732 19.5563 12.1875 19.537 12.0967C19.5025 11.9345 19.4638 11.7512 19.3178 11.5419C19.29 11.5016 19.2536 11.4747 19.2215 11.4562C19.2166 11.3747 19.2082 11.2654 19.1424 11.1721C19.1086 11.125 19.058 11.083 18.987 11.0258C18.9423 10.9897 18.8502 10.9157 18.8317 10.8863C18.7532 10.7459 18.6977 10.4686 18.6481 10.2248C18.6187 10.0802 18.5918 9.94408 18.5589 9.83145C18.5404 9.76673 18.5058 9.7205 18.478 9.68268C18.4602 9.65914 18.4501 9.64485 18.445 9.63393C18.495 9.58097 18.506 9.52466 18.5052 9.48599C18.5053 9.39858 18.4614 9.34226 18.415 9.30612C18.4192 9.28342 18.4218 9.25905 18.4209 9.23299C18.4102 9.00185 18.2795 8.71102 18.1741 8.47652C18.1564 8.43617 18.1387 8.39835 18.1235 8.36304C18.0206 8.12602 18.0201 7.87133 18.0195 7.54857L18.0196 7.50823C18.0196 7.49562 18.0315 7.46032 18.0374 7.44182C18.0527 7.39559 18.0679 7.34852 18.0629 7.29305C18.0571 7.22245 18.0225 7.16529 17.9617 7.12242C17.9702 7.08796 17.9753 7.04593 17.9686 7.00055C17.9576 6.9291 17.9188 6.87531 17.8867 6.8316C17.8766 6.81731 17.8606 6.7963 17.8589 6.79209C17.7932 6.58364 17.8221 6.40461 17.8553 6.197C17.8816 6.03646 17.908 5.87087 17.8905 5.68512C17.8846 5.61871 17.8635 5.56072 17.8458 5.51449C17.8383 5.49348 17.8265 5.46238 17.8256 5.45313C17.8265 5.37664 17.8435 5.28839 17.8639 5.18668C17.892 5.04295 17.9234 4.88073 17.9236 4.68741C17.9237 4.63361 17.9246 4.57898 17.9255 4.52519C17.9317 4.1688 17.9372 3.79981 17.7584 3.44258C17.7128 3.35181 17.6081 3.30642 17.51 3.335C17.1617 3.43586 16.9865 3.69222 16.8316 3.91832C16.7995 3.96539 16.7673 4.01246 16.736 4.05533C16.7284 4.06289 16.7021 4.07802 16.6869 4.08727C16.6446 4.11249 16.5964 4.14022 16.5592 4.19149C16.5 4.27303 16.4796 4.38145 16.46 4.48652C16.4558 4.50753 16.4507 4.53527 16.4456 4.55797C16.4447 4.55797 16.4439 4.55797 16.443 4.55797C16.3678 4.57814 16.2545 4.6084 16.1893 4.71851C16.1335 4.81181 16.1367 4.91267 16.1383 4.99336C16.1383 5.01858 16.14 5.0564 16.1366 5.06901C16.1255 5.11272 16.0959 5.17323 16.0696 5.22619C16.0375 5.29175 16.007 5.35395 15.9925 5.41699C15.8295 6.13396 15.9353 6.80134 16.0369 7.44771C16.0647 7.6217 16.0932 7.80241 16.1158 7.98144C16.1184 8.00246 16.1115 8.04701 16.1056 8.08315C16.0945 8.15207 16.0826 8.23024 16.0977 8.31177C16.1146 8.40171 16.1677 8.47568 16.2192 8.54796C16.2471 8.58663 16.2926 8.65051 16.2977 8.6774C16.3044 8.71691 16.2925 8.78163 16.2823 8.83374C16.2696 8.90266 16.2568 8.96823 16.2694 9.03547C16.2854 9.1212 16.3428 9.1834 16.3977 9.24308C16.4154 9.26241 16.4449 9.29435 16.4568 9.312C16.4551 9.31789 16.4508 9.32881 16.4483 9.33722C16.4356 9.37 16.4169 9.41959 16.4169 9.48263C16.4168 9.58181 16.4809 9.63813 16.5189 9.67175C16.5476 9.69697 16.6076 9.74908 16.6185 9.79026C16.632 9.83986 16.6934 10.1399 16.6984 10.1828C16.6984 10.1988 16.6823 10.2416 16.6738 10.2677C16.6509 10.3324 16.6255 10.4055 16.6364 10.4845C16.6507 10.5854 16.9561 11.1074 16.9586 11.1124C17.0118 11.1931 17.0988 11.2351 17.1917 11.2805C17.2103 11.2898 17.2356 11.3015 17.2567 11.3133C17.2542 11.3259 17.2516 11.3394 17.2499 11.3503C17.2338 11.4385 17.2168 11.5293 17.2302 11.6142C17.2781 11.9008 17.3862 12.0311 17.49 12.158C17.5246 12.2001 17.5609 12.2438 17.5963 12.2967C17.7263 12.4875 18.019 12.975 18.1025 13.1574C18.1261 13.2095 18.1455 13.2768 18.1657 13.3482C18.2028 13.481 18.2457 13.6315 18.3411 13.771C18.4094 13.8702 18.5302 13.9341 18.6274 13.9845C18.6442 13.9938 18.6654 14.0047 18.6806 14.0131C18.7295 14.1039 18.7927 14.2678 18.8483 14.414C18.9225 14.6099 18.9933 14.7939 19.0642 14.9024C19.1579 15.0461 19.5015 15.3966 19.5977 15.4882C19.6577 15.5454 19.7278 15.6017 19.8012 15.6563L18.9977 16.259C18.2215 16.6255 17.6498 16.976 17.199 17.3592C17.1415 17.408 17.095 17.4156 17.0299 17.4256C16.9775 17.434 16.9115 17.4441 16.8473 17.4811C16.7932 17.5122 16.7703 17.5517 16.7288 17.6232C16.711 17.6543 16.6687 17.7282 16.6518 17.7467C16.6137 17.7845 16.4835 17.8728 16.4057 17.9123C16.3415 17.8661 16.2427 17.777 16.2148 17.7434C16.192 17.7156 16.1415 17.6021 16.1103 17.5349C16.0268 17.35 15.9753 17.2424 15.8926 17.1827C15.8267 17.134 15.7532 17.123 15.6991 17.1146C15.6923 17.1138 15.6847 17.1121 15.6771 17.1113C15.6763 17.1071 15.6746 17.1029 15.6738 17.0995C15.6586 17.044 15.6376 16.9684 15.5759 16.9037C15.5118 16.8373 15.4324 16.812 15.3749 16.7944C15.3588 16.7894 15.3343 16.7818 15.3301 16.7793C15.2305 16.7036 15.1351 16.5759 15.0507 16.4624L15.0119 16.4111C14.8541 16.2027 14.7005 15.9782 14.5292 15.7059C14.449 15.5782 14.3494 15.4975 14.27 15.4319C14.1653 15.347 14.107 15.2991 14.0818 15.173C14.0827 15.1629 14.0852 15.1528 14.0878 15.1436C14.0988 15.0906 14.1149 15.01 14.0694 14.9284C14.0255 14.8494 13.9478 14.8091 13.865 14.7654C13.8431 14.7536 13.8084 14.7359 13.789 14.7233C13.7865 14.7124 13.7831 14.6973 13.7806 14.6847C13.7705 14.6342 13.7562 14.5653 13.7132 14.4981C13.6457 14.3938 13.5308 14.2804 13.4202 14.1703C13.3324 14.0837 13.2337 13.9853 13.1957 13.9265C13.1856 13.9105 13.1746 13.866 13.1662 13.8332C13.1494 13.7677 13.1308 13.6937 13.0853 13.6256C13.0372 13.5533 12.9721 13.5147 12.9308 13.4911C12.9299 13.4852 12.9291 13.4793 12.9282 13.4743C12.9215 13.4247 12.9115 13.3575 12.8718 13.2936C12.8245 13.2179 12.7561 13.1835 12.7012 13.1658C12.6903 13.1011 12.6811 13.0053 12.6761 12.9507C12.6677 12.8674 12.6619 12.801 12.6501 12.7523C12.6383 12.701 12.6113 12.659 12.5699 12.6254C12.57 12.5699 12.565 12.4951 12.5279 12.4127C12.4942 12.3388 12.4249 12.2707 12.2949 12.1454C12.229 12.0824 12.1134 11.9714 12.0695 11.9118C12.0805 11.8706 12.095 11.8042 12.0705 11.7294C12.0149 11.5596 11.9179 11.3881 11.8243 11.2217C11.7542 11.0981 11.6884 10.9813 11.6497 10.8821C11.6345 10.8443 11.6371 10.7812 11.6397 10.73C11.6423 10.672 11.644 10.6165 11.628 10.5602C11.5985 10.4593 11.5191 10.4106 11.482 10.387C11.4795 10.3854 11.4761 10.3837 11.4735 10.382C11.4128 10.2752 11.3268 10.0626 11.3007 9.96341C11.2527 9.78522 11.2166 9.60367 11.1813 9.42884C11.1241 9.1439 11.0652 8.84887 10.954 8.55552C10.9017 8.41684 10.7924 7.91168 10.7579 7.71163C10.7419 7.62002 10.7319 7.52588 10.7219 7.43426C10.6859 7.10393 10.6457 6.72905 10.3096 6.40797C9.93476 6.04907 9.61428 6.21717 9.40621 6.37519C9.14063 6.57608 9.09568 6.72485 9.05829 6.92742C9.04809 6.98037 9.03874 7.03501 9.01923 7.09973C9.01584 7.11149 8.99637 7.14007 8.98199 7.16025C8.94813 7.209 8.90666 7.27036 8.88883 7.34937C8.87015 7.4309 8.80438 8.10752 8.8043 8.18653C8.80417 8.31261 8.85729 8.43029 8.90367 8.53535C8.9239 8.58074 8.94498 8.62865 8.95256 8.65807C8.95677 8.67488 8.9542 8.71018 8.95247 8.74128C8.94904 8.79424 8.94475 8.85475 8.9599 8.92032C8.98346 9.0195 9.05947 9.06573 9.10086 9.09094C9.10086 9.09094 9.10171 9.09094 9.10255 9.09178C9.08983 9.13213 9.07202 9.19097 9.07787 9.26073C9.08873 9.38093 9.25365 10.0912 9.29073 10.1971C9.31854 10.2761 9.36326 10.3391 9.39871 10.3887C9.4139 10.4106 9.43753 10.4442 9.4409 10.4534C9.44846 10.4929 9.44333 10.5585 9.43904 10.6215C9.43133 10.7241 9.42275 10.8409 9.45645 10.9502C9.46908 10.9914 9.4927 11.0334 9.54501 11.1242C9.59141 11.2049 9.65468 11.315 9.67912 11.3814C9.76087 11.605 9.83766 11.7243 9.91191 11.8395C9.96001 11.9143 10.0056 11.984 10.0579 12.0908C10.1135 12.2034 10.1582 12.3396 10.202 12.4716C10.2407 12.5892 10.2803 12.7103 10.3293 12.8187C10.3782 12.9263 10.4474 13.0221 10.514 13.1137C10.6288 13.2726 10.7377 13.423 10.7611 13.6424C10.7636 13.6634 10.7585 13.6853 10.7509 13.7214C10.7407 13.7693 10.7271 13.829 10.7363 13.8996C10.7548 14.0484 10.8933 14.1148 10.9947 14.1635C10.9998 14.1661 11.0048 14.1686 11.0099 14.1703C11.0563 14.2325 11.085 14.3022 11.117 14.3804C11.1752 14.5224 11.2485 14.6998 11.4453 14.8637C11.5306 14.9351 11.5795 14.9662 11.6083 14.9847C11.6142 14.9881 11.6184 14.9906 11.6167 14.9889C11.6294 15.0032 11.6775 15.0764 11.7062 15.1201C11.842 15.3268 11.9737 15.5025 12.102 15.6715C12.2758 15.9018 12.4404 16.1186 12.5965 16.3951C12.6825 16.5473 12.7256 16.5994 12.7745 16.6599C12.7973 16.6877 12.8226 16.7188 12.8589 16.7692C12.8826 16.802 12.9458 16.9289 12.9838 17.0054C13.0571 17.1533 13.0782 17.1928 13.112 17.2273C13.1542 17.2701 13.2049 17.292 13.248 17.3046C13.2497 17.3113 13.2514 17.3189 13.253 17.3256C13.2833 17.4559 13.3347 17.6744 13.577 17.8451C13.6784 17.9165 13.7079 17.9442 13.7485 17.9829C13.7772 18.0098 13.8084 18.0401 13.8616 18.0838C13.9283 18.1401 14.0204 18.1762 14.1269 18.2191C14.1894 18.2443 14.3026 18.2897 14.3372 18.3183C14.3406 18.325 14.3448 18.3368 14.349 18.346C14.3659 18.3889 14.3911 18.4536 14.4486 18.5082C14.5532 18.6083 14.6647 18.7016 14.772 18.7923C14.8547 18.8621 14.9349 18.9293 15.0109 18.9983C14.9559 19.0344 14.8967 19.0722 14.8578 19.0966C14.7724 19.1504 14.7268 19.179 14.6963 19.2042C14.5923 19.2908 14.4848 19.416 14.3807 19.5379C14.3164 19.6135 14.2496 19.6909 14.2014 19.7363C14.1785 19.748 14.1261 19.7699 14.0931 19.7833C13.9891 19.8262 13.9325 19.8506 13.8893 19.8909C13.8234 19.9523 13.8038 20.0288 13.7911 20.08C13.7886 20.091 13.7843 20.1061 13.7818 20.1145C13.7395 20.1523 13.5983 20.2389 13.5035 20.2977C13.3716 20.3793 13.2473 20.4557 13.1746 20.5179C13.1043 20.5776 13.0671 20.6516 13.0374 20.7113C13.0222 20.7415 13.0053 20.776 12.9926 20.7869C12.9553 20.8197 12.9071 20.8525 12.8556 20.8869C12.7634 20.9491 12.6593 21.0197 12.5663 21.1223C12.5527 21.1374 12.5409 21.1534 12.5299 21.1685C12.5214 21.1618 12.5121 21.1551 12.502 21.1492C12.4412 21.1122 12.3846 21.1164 12.3389 21.1189C12.3026 21.1214 12.2215 21.1265 12.1767 21.1038C12.1615 21.087 12.1336 21.0525 12.1142 21.0281C12.0332 20.9273 11.9842 20.8676 11.9285 20.834C11.8727 20.8004 11.8111 20.7852 11.7511 20.7709C11.7207 20.7634 11.67 20.7508 11.6539 20.7424C11.6125 20.7037 11.4352 20.5297 11.3542 20.4482C11.3517 20.4045 11.3391 20.3423 11.2842 20.2902C11.2302 20.2389 11.1659 20.2238 11.0983 20.2212C11.0891 20.1952 11.0756 20.17 11.0553 20.1456C11.0047 20.0859 10.9405 20.0716 10.8931 20.0615C10.883 20.059 10.8712 20.0573 10.8602 20.054C10.8146 20.0254 10.736 19.98 10.638 19.9237C10.5004 19.8447 10.2411 19.6942 10.1203 19.6135C10.122 19.569 10.1145 19.5118 10.0723 19.4572C10.0292 19.4017 9.97348 19.3757 9.92701 19.3622C9.90678 19.3059 9.87052 19.2336 9.78943 19.1865C9.72102 19.1462 9.65257 19.1403 9.60778 19.1361C9.59764 19.1353 9.58581 19.1344 9.57905 19.1336C9.57736 19.1277 9.57568 19.1218 9.57399 19.1159C9.5622 19.079 9.54619 19.0294 9.50567 18.9815C9.3799 18.8344 9.24143 18.7058 9.10718 18.5814C9.02443 18.5049 8.93915 18.425 8.85895 18.3435C8.81758 18.3015 8.77621 18.2594 8.73484 18.2183C8.57696 18.0602 8.42837 17.9115 8.31443 17.7585C8.2486 17.6702 8.22754 17.6038 8.20311 17.5265C8.18205 17.4593 8.15762 17.3828 8.10446 17.3046C8.08252 17.2727 8.05634 17.25 8.03101 17.2323C8.03784 17.1583 8.0134 17.0978 7.95682 17.0491C7.90025 17.0012 7.84193 16.9978 7.79461 16.9953C7.77686 16.9944 7.72785 16.9919 7.71686 16.9886C7.69068 16.976 7.68139 16.9675 7.68054 16.9675C7.67717 16.9591 7.67551 16.9306 7.67468 16.9121C7.67053 16.8389 7.66304 16.728 7.57779 16.6221C7.52883 16.5624 7.47139 16.538 7.42999 16.5254C7.41397 16.491 7.39882 16.4229 7.3854 16.3229C7.37618 16.2548 7.36863 16.2001 7.32135 16.148C7.26817 16.0884 7.20142 16.0766 7.16931 16.0715H7.16762C7.13387 16.0102 7.07404 15.8379 7.0336 15.7202C6.96956 15.5336 6.90804 15.3579 6.84392 15.2495C6.78318 15.1478 6.67253 15.0814 6.5754 15.0217C6.55598 15.01 6.52895 14.9931 6.51206 14.9822C6.42433 14.8208 6.39832 14.6317 6.37148 14.4325L6.3589 14.3451C6.35135 14.2913 6.34715 14.2577 6.34548 14.2375C6.3675 14.198 6.3853 14.1484 6.39721 14.0702C6.45421 13.6996 6.26009 13.444 6.10395 13.239C6.01365 13.1196 5.9284 13.0078 5.90654 12.896C5.90655 12.8893 5.90911 12.8674 5.91081 12.8523C5.92018 12.7834 5.9355 12.6783 5.88324 12.5447C5.86132 12.4892 5.67648 12.2555 5.64861 12.2312C5.55826 12.1547 5.17895 11.9992 5.05049 11.9975C5.04795 11.9975 5.04626 11.9975 5.04373 11.9975C4.74877 11.9975 4.35125 12.2967 4.26559 12.5842C4.25457 12.6228 4.1169 13.3608 4.12441 13.4567C4.1336 13.5575 4.19014 13.6348 4.2315 13.6912C4.245 13.7088 4.26441 13.7357 4.26694 13.7399C4.27451 13.7752 4.27527 13.8618 4.27604 13.9316C4.27595 14.0223 4.27754 14.1165 4.2893 14.1955C4.30021 14.2694 4.33396 14.3232 4.35674 14.3594C4.35927 14.3636 4.36265 14.3686 4.36602 14.3728C4.36179 14.3821 4.35501 14.3947 4.34993 14.4039C4.32368 14.4535 4.28473 14.5283 4.29393 14.6225C4.29894 14.6796 4.31566 14.8536 4.57889 15.2983C4.61348 15.3563 4.66073 15.4361 4.66579 15.4504C4.66662 15.458 4.66662 15.4655 4.66745 15.4748C4.66994 15.516 4.67326 15.5782 4.69343 15.6925C4.7346 15.9261 4.90849 16.1304 5.04861 16.2943C5.09673 16.3506 5.16257 16.4279 5.17354 16.4498C5.18027 16.4733 5.17433 16.5036 5.16498 16.5515C5.15309 16.612 5.1378 16.6877 5.15461 16.7725C5.17732 16.8843 5.24571 16.9457 5.29892 16.9793C5.3031 17.0213 5.30896 17.076 5.33594 17.1357C5.37979 17.2323 5.47014 17.3155 5.60355 17.4315C5.64493 17.4677 5.70657 17.5215 5.7226 17.5416C5.77156 17.6055 5.823 17.7148 5.8736 17.8198C5.92757 17.9342 5.98407 18.0518 6.04906 18.1401C6.16553 18.2981 6.26177 18.3973 6.3462 18.4855C6.47705 18.6217 6.58005 18.7293 6.7268 19.0268C6.75885 19.0924 7.15474 19.5589 7.23583 19.6043C7.25948 19.6177 7.28313 19.6261 7.30595 19.632C7.31689 19.6757 7.3329 19.7186 7.35737 19.7589C7.42487 19.8674 7.56168 19.9691 7.76267 20.112C7.8353 20.1641 7.91047 20.217 7.95944 20.2582C7.97039 20.296 7.98892 20.3557 8.03789 20.4078C8.14004 20.5171 8.26932 20.5415 8.35466 20.5575C8.3741 20.5608 8.39945 20.5659 8.41127 20.5692C8.50417 20.6381 8.60377 20.7634 8.69999 20.8853C8.82744 21.0458 8.95827 21.2114 9.11621 21.3047C9.19392 21.3509 9.30881 21.3997 9.44144 21.4551C9.56731 21.5081 9.80216 21.6073 9.85028 21.6543C9.85619 21.6602 9.86209 21.6812 9.86798 21.7014C9.88314 21.7527 9.90504 21.8292 9.97681 21.8897C10.03 21.9351 10.112 21.9695 10.4406 22.099C10.6079 22.1645 10.9027 22.2814 11.0911 22.3713C10.9269 22.5503 10.762 22.6655 10.5895 22.7865C10.4034 22.9168 10.2114 23.0513 10.0092 23.2682C9.88145 23.4052 9.87891 23.406 9.83495 23.422C9.79098 23.4371 9.72504 23.4606 9.61342 23.5161C9.55254 23.5464 9.50685 23.5976 9.44255 23.6683C9.39432 23.722 9.32832 23.7952 9.28097 23.8246C9.08984 23.9414 9.07295 23.9355 8.79161 23.8431L8.77894 23.8389C8.56941 23.77 8.18929 23.5834 7.99079 23.4775C7.97643 23.4682 7.93252 23.4304 7.90466 23.4052C7.7932 23.3085 7.71973 23.248 7.63947 23.2253C7.5516 23.2009 7.46116 23.2093 7.3741 23.2177C7.29212 23.2253 7.20844 23.2337 7.14254 23.2118C7.09861 23.1976 7.05131 23.1623 7.00571 23.1278C6.95335 23.0883 6.89931 23.0479 6.83256 23.0278C6.75821 23.0051 6.68638 23 6.623 22.9958C6.55624 22.9908 6.49793 22.9874 6.44386 22.963C6.39994 22.942 6.26061 22.8269 6.2015 22.7781C6.09594 22.6907 6.06808 22.6672 6.01316 22.6529C5.89825 22.6226 5.79598 22.6294 5.70554 22.6344C5.58891 22.6411 5.50523 22.6462 5.39289 22.5831C5.37516 22.573 5.35658 22.5537 5.33379 22.5293C5.30002 22.4932 5.25781 22.4486 5.19615 22.4142C5.04242 22.3284 4.86417 22.257 4.67494 22.1814C4.44093 22.0881 4.19932 21.9914 4.02449 21.872C3.86234 21.7611 2.72512 20.6003 2.58421 20.3809C2.51691 20.0758 2.3743 19.8691 2.23759 19.6682C2.14729 19.5354 2.06122 19.411 1.99883 19.2588C1.97776 19.2076 1.95673 19.1134 1.93569 19.0226C1.90204 18.8747 1.87091 18.7352 1.81438 18.6385C1.77558 18.5721 1.72237 18.5351 1.68098 18.5124C1.67762 18.4906 1.67596 18.4645 1.67345 18.441C1.66426 18.3368 1.65171 18.2073 1.5893 18.0787C1.49991 17.8955 1.25103 17.466 0.879212 17.424C0.74485 17.4088 0.544519 17.4399 0.354121 17.6753C0.189109 17.8787 0.0150775 18.636 0.0359766 18.8596C0.044334 18.9512 0.0881753 19.0546 0.134546 19.1639C0.156466 19.216 0.18176 19.2748 0.189336 19.3042C0.203647 19.3597 0.218804 19.4135 0.233119 19.4648C0.248275 19.5194 0.262589 19.5715 0.275215 19.6211C0.297101 19.7068 0.315615 19.7842 0.33329 19.8556C0.42502 20.2355 0.485613 20.486 0.745469 20.9231C1.02304 21.3904 1.39618 21.7897 1.75751 22.1755C1.92973 22.3595 2.09182 22.5327 2.24545 22.7134C2.24545 22.7159 2.24713 22.7193 2.24713 22.7218C2.25723 22.7613 2.27154 22.8202 2.3222 22.8714C2.48007 23.032 2.62118 23.0614 2.72342 23.0824C2.76145 23.09 2.79186 23.0967 2.81045 23.1051C2.85014 23.1295 2.99369 23.2598 3.07981 23.3371C3.19295 23.4396 3.2909 23.5279 3.35424 23.5724C3.76891 23.8641 4.17864 24.023 4.66613 24.1717C4.72781 24.1911 4.80638 24.2112 4.89003 24.2339C5.05394 24.2776 5.25588 24.3306 5.37414 24.3835C5.39776 24.4289 5.44247 24.5071 5.54215 24.5542C5.70941 24.6323 5.88349 24.6492 6.03814 24.6643C6.12011 24.6718 6.19785 24.6794 6.26291 24.6954C6.4074 24.7307 6.77151 24.866 6.94892 24.94C6.96666 24.9475 7.0148 24.9812 7.04436 25.0013C7.13641 25.0644 7.20989 25.1148 7.29693 25.1207C7.38313 25.1266 7.44909 25.0913 7.49137 25.0618C7.53446 25.0753 7.59191 25.0946 7.64683 25.114C7.60197 25.1812 7.55203 25.2493 7.52834 25.277C7.45983 25.3325 7.01917 25.6569 6.94982 25.704C6.93968 25.7065 6.91939 25.7099 6.90587 25.7124C6.84163 25.7233 6.75287 25.7385 6.67674 25.8032C6.64714 25.8284 6.63274 25.8511 6.5938 25.9133C6.56164 25.9637 6.50915 26.0478 6.47277 26.0898C6.15461 26.4605 5.70389 26.7177 5.26839 26.9665C5.19735 27.0068 5.12716 27.0472 5.05782 27.0875C4.93182 27.1607 4.83201 27.2413 4.73558 27.3195C4.60532 27.4246 4.49367 27.5154 4.33726 27.5725C4.31443 27.5809 4.27386 27.5868 4.23498 27.5927C4.17581 27.6011 4.10819 27.6112 4.03971 27.6356C3.99152 27.6524 3.9205 27.6751 3.84019 27.7003C3.49103 27.8104 3.23486 27.8944 3.11983 27.9861C2.98196 28.0962 2.75756 28.5265 2.78861 28.74C2.85323 29.1771 3.00268 29.3225 3.42859 29.3612C3.59337 29.3763 3.7438 29.3881 3.88323 29.399C4.70549 29.4645 5.11873 29.4973 5.97098 29.9857C5.98281 29.9924 5.99632 30.0025 6.01152 30.0143C5.98188 30.0664 5.95901 30.1176 5.93868 30.1639C5.90141 30.2488 5.87176 30.316 5.81254 30.3748C5.78462 30.4026 5.72543 30.4345 5.6823 30.4581C5.61888 30.4925 5.56476 30.5219 5.52499 30.5732C5.46913 30.6455 5.45468 30.7262 5.44363 30.7901C5.43938 30.8153 5.43343 30.8464 5.42835 30.8581C5.41734 30.88 5.39873 30.8943 5.35221 30.9279C5.30823 30.959 5.25411 30.9968 5.20587 31.0565C5.09332 31.1969 5.04585 31.3423 5.0077 31.4583C4.99159 31.5079 4.97633 31.5549 4.95769 31.5961C4.94754 31.6062 4.92048 31.623 4.90272 31.6348C4.8579 31.6634 4.80292 31.6995 4.75977 31.7533C4.67684 31.8567 4.63445 31.9803 4.59631 32.0895C4.57512 32.1517 4.55477 32.2097 4.53361 32.2475C4.5099 32.2887 4.45659 32.3492 4.40414 32.4072C4.32375 32.498 4.24083 32.5922 4.19087 32.6922C4.1553 32.7636 4.13663 32.8384 4.1205 32.904C4.10353 32.9721 4.08741 33.036 4.05779 33.0763C4.04932 33.0872 4.01803 33.1091 3.99858 33.1225C3.94107 33.1629 3.86918 33.2133 3.83781 33.3041C3.7895 33.4445 3.81216 33.5941 3.83231 33.726C3.84071 33.7798 3.84994 33.8403 3.84738 33.8706C3.83622 34.0387 3.77944 34.19 3.72011 34.3505C3.62519 34.6069 3.51671 34.8986 3.58731 35.2886C3.61335 35.4357 3.72694 35.9274 4.07329 36.082C4.18987 36.1342 4.37746 36.1661 4.60664 36.0257C5.02271 35.771 5.10927 35.4205 5.18565 35.1112C5.21705 34.9843 5.24676 34.8649 5.29674 34.7515C5.29927 34.7498 5.30181 34.7481 5.3035 34.7473C5.35002 34.717 5.43712 34.6599 5.47275 34.5355C5.4948 34.4573 5.51432 34.3791 5.53299 34.301C5.58647 34.0782 5.63824 33.8672 5.76689 33.6832C5.77196 33.6781 5.78972 33.6672 5.80156 33.6605C5.84384 33.6344 5.90727 33.5949 5.94369 33.5193C5.97249 33.4587 5.96917 33.4007 5.96583 33.3537C5.96417 33.331 5.96167 33.2923 5.9676 33.2789C5.97353 33.2637 5.99553 33.2402 6.01922 33.2158C6.05306 33.1805 6.09621 33.136 6.13092 33.0755C6.19103 32.9704 6.23767 32.8174 6.2877 32.6552C6.34113 32.4804 6.40727 32.2618 6.47582 32.1727C6.48259 32.1685 6.48935 32.1668 6.49611 32.1643C6.53078 32.1509 6.58827 32.1282 6.63904 32.0736C6.79725 31.9038 6.91748 31.6877 7.03433 31.4793C7.09444 31.3709 7.15202 31.2692 7.21042 31.1801C7.27391 31.0842 7.3433 30.9935 7.41693 30.8985C7.45247 30.8523 7.48886 30.806 7.52441 30.7573C7.62915 30.8136 7.73473 30.8682 7.83778 30.9212C8.08781 31.0498 8.32349 31.1708 8.54899 31.3171C8.77449 31.4633 9.00083 31.6205 9.21956 31.7726C9.48728 31.9592 9.76429 32.1517 10.0481 32.3291C10.081 32.3492 10.1317 32.377 10.1908 32.4089C10.2677 32.4509 10.4341 32.54 10.5042 32.5972C10.5042 32.5972 10.5042 32.5972 10.5033 32.598C10.4678 32.6275 10.4187 32.667 10.3798 32.7308C10.2791 32.8956 10.2554 32.9208 10.1911 32.988C10.1589 33.0225 10.1183 33.0645 10.0599 33.1326C9.98716 33.2167 9.90247 33.3856 9.7712 33.6521C9.70091 33.7958 9.62808 33.9437 9.57559 34.032C9.43167 34.2715 9.3528 34.5329 9.27648 34.7859C9.21966 34.9742 9.16623 35.1516 9.09255 35.3045C9.08493 35.3146 9.05279 35.3365 9.03165 35.3508C8.9623 35.3978 8.86758 35.4626 8.81675 35.5819C8.77523 35.6811 8.78529 35.7677 8.79115 35.8147C8.79115 35.8181 8.79115 35.8215 8.79199 35.8248C8.74362 36.019 8.69862 36.2123 8.65363 36.4056C8.58063 36.7192 8.50424 37.0428 8.41855 37.3588C8.41346 37.3781 8.38722 37.4193 8.3686 37.4487C8.32966 37.5101 8.28564 37.5807 8.27794 37.6639C8.26684 37.7749 8.29039 37.8925 8.31477 38.0161C8.34672 38.1766 8.38287 38.359 8.31601 38.4515C8.29824 38.4759 8.28638 38.5036 8.28043 38.5322C8.21419 38.8516 8.51589 39.6871 8.81151 39.8619C8.98044 39.9619 9.18749 39.9712 9.39463 39.8888C9.63306 39.7938 9.8268 39.5904 9.88872 39.371C9.93453 39.2088 9.99301 39.0449 10.0549 38.8709C10.1574 38.5818 10.2634 38.2834 10.3102 37.9875C10.317 37.9438 10.3179 37.8875 10.318 37.8001C10.318 37.7463 10.3181 37.6538 10.3241 37.6034C10.3342 37.5975 10.3452 37.5916 10.3537 37.5866C10.4095 37.5563 10.5034 37.5051 10.5255 37.3907C10.5408 37.3084 10.5189 37.2336 10.5029 37.1798C10.4978 37.163 10.4902 37.1369 10.4894 37.1302C10.4981 36.8881 10.6202 36.5124 10.7287 36.1812C10.777 36.0324 10.8228 35.8921 10.8559 35.7719C10.8576 35.7652 10.8593 35.7618 10.8593 35.7618C10.8643 35.7576 10.8821 35.75 10.8948 35.745C10.9455 35.7231 11.0411 35.6819 11.0801 35.5702C11.1182 35.4609 11.0946 35.3609 11.0803 35.3003C11.0786 35.2919 11.0761 35.2844 11.0744 35.276C11.0974 35.1432 11.2303 34.9482 11.3369 34.7901C11.4114 34.6792 11.4825 34.575 11.5308 34.4766L11.5689 34.3985C11.6299 34.2741 11.6443 34.2446 11.7306 34.1026C11.8068 33.9773 11.8458 33.8387 11.884 33.7042C11.8925 33.6756 11.9001 33.647 11.9086 33.6201C11.9931 33.6588 12.0894 33.7084 12.1198 33.7294C12.1688 33.763 12.2565 33.8672 12.3266 33.9505C12.4068 34.0463 12.4828 34.1371 12.5562 34.1967C12.6787 34.2968 12.8231 34.3632 12.9507 34.422C13.0428 34.464 13.1306 34.5044 13.194 34.5498C13.2269 34.5733 13.2598 34.6178 13.291 34.6607C13.3265 34.7086 13.3628 34.759 13.4126 34.7994C13.4489 34.8288 13.5046 34.8666 13.5756 34.9137C13.6558 34.9675 13.8163 35.0759 13.9083 35.1541C13.8728 35.1944 13.8372 35.2449 13.8203 35.3096C13.8016 35.3802 13.8108 35.439 13.8167 35.4785C13.8218 35.5105 13.8218 35.5155 13.8167 35.5298C13.809 35.5525 13.7786 35.5836 13.749 35.613C13.7101 35.6525 13.6652 35.6971 13.6364 35.7593C13.5619 35.919 13.5777 36.1081 13.5911 36.2745C13.5994 36.3754 13.6078 36.4796 13.5933 36.546C13.5866 36.5771 13.5628 36.6208 13.5408 36.6637C13.5036 36.7343 13.4604 36.8141 13.4485 36.9083C13.3215 37.8766 13.2977 38.8373 13.2824 39.8182C13.2797 39.9737 13.2424 40.0788 13.2017 40.1905C13.1678 40.2847 13.133 40.383 13.1202 40.5041C13.0716 40.9697 13.0245 41.5783 13.0715 41.8271C13.0926 41.938 13.4061 42.7424 13.5759 42.8727C13.6096 42.8987 14.0176 43.1526 14.1722 43.1601C14.4832 43.1761 14.9493 42.8458 14.9809 42.5012C14.9877 42.4272 14.9709 42.3625 14.9557 42.3062C14.9465 42.2725 14.9372 42.2372 14.9389 42.2162C14.9415 42.1801 14.973 41.9868 14.9891 41.8993C14.995 41.8918 15.0009 41.8842 15.0077 41.8758C15.0517 41.8212 15.1253 41.7287 15.1458 41.5867C15.1815 41.3379 15.1141 41.1555 15.0703 41.0353C15.061 41.0092 15.0484 40.9756 15.0433 40.9546C15.0535 40.9218 15.0764 40.8613 15.0916 40.8193C15.134 40.7058 15.1611 40.6318 15.1705 40.573C15.2105 40.3141 15.2158 40.0561 15.2203 39.8064C15.2248 39.5585 15.2301 39.3021 15.2701 39.0499C15.2973 38.881 15.2974 38.8247 15.2729 38.7465C15.2704 38.7398 15.2679 38.7314 15.2671 38.6944C15.2713 38.6692 15.2917 38.6019 15.3052 38.5566C15.3341 38.4616 15.3663 38.3548 15.3765 38.2641C15.3979 38.0665 15.439 37.4765 15.4097 37.2554C15.4038 37.2109 15.3886 37.1756 15.3734 37.1478C15.4022 37.1176 15.4361 37.0747 15.4564 37.0159C15.4768 36.9553 15.514 36.8721 15.5411 36.8116C15.5682 36.7519 15.5809 36.7217 15.5894 36.6956C15.6132 36.6175 15.615 36.4989 15.6059 36.2602C16.5124 36.6528 17.3394 36.9705 18.1285 37.2285C18.1742 37.2436 18.2654 37.2689 18.3913 37.3033C18.5611 37.3504 18.9168 37.4479 19.0892 37.5093C19.09 37.5185 19.0908 37.5269 19.0925 37.5353C19.0942 37.5496 19.0967 37.5639 19.0976 37.5681C19.0822 37.6706 19.0441 37.7967 19.0068 37.9194C18.9754 38.0211 18.9466 38.1178 18.9279 38.2069C18.9075 38.3069 18.9175 38.4422 18.9275 38.586C18.9333 38.6616 18.94 38.7482 18.9366 38.7885C18.9349 38.8096 18.9061 38.8642 18.8908 38.8944C18.8595 38.955 18.8273 39.0172 18.8247 39.092C18.8221 39.1861 18.8643 39.2576 18.8913 39.3046C18.8938 39.3088 18.8963 39.313 18.8988 39.3181C18.8955 39.3248 18.8921 39.3315 18.8895 39.3382C18.87 39.3786 18.8438 39.4332 18.8378 39.503C18.7959 39.9888 18.7928 40.5352 18.7897 41.063C18.7886 41.2967 18.7867 41.5278 18.7823 41.7506C18.7796 41.8724 18.7626 41.9876 18.7456 42.0985C18.7294 42.207 18.7124 42.3196 18.7097 42.4339C18.7017 42.8122 18.8984 43.8754 19.1465 44.2167C19.1972 44.2864 19.2622 44.3268 19.3103 44.3571C19.3205 44.3629 19.3323 44.3705 19.3407 44.3764C19.3424 44.3831 19.3449 44.3923 19.3466 44.3999C19.3584 44.4478 19.3752 44.521 19.4318 44.5916C19.4816 44.6538 19.8709 44.9799 20.0246 45.0093C20.2824 45.0581 20.4566 44.9681 20.5572 44.8832C20.7306 44.7378 20.8272 44.4949 20.8224 44.2158C20.82 44.0973 20.772 43.9948 20.7365 43.9208C20.7332 43.9141 20.7298 43.9074 20.7264 43.9006C20.751 43.8469 20.7874 43.7611 20.7875 43.6544C20.7876 43.5384 20.7471 43.4577 20.721 43.4039C20.7075 43.3762 20.6999 43.3602 20.6982 43.3467C20.6899 43.2896 20.7026 43.182 20.7137 43.0963C20.7265 42.987 20.7376 42.8937 20.725 42.8147C20.7174 42.7676 20.698 42.7289 20.6761 42.6987C20.7049 42.6634 20.7336 42.623 20.7506 42.576C20.7735 42.5121 20.7701 42.4558 20.7643 42.4163C20.7947 42.37 20.8388 42.2936 20.8279 42.1868C20.822 42.1288 20.7934 42.0523 20.6929 42.001C20.6862 41.9229 20.7065 41.8682 20.7328 41.7968C20.7557 41.7346 20.7819 41.6648 20.7896 41.5783C20.8085 41.3622 20.7884 41.105 20.7701 40.8789C20.7617 40.7705 20.7534 40.6688 20.7501 40.5806C20.7501 40.5587 20.7637 40.5108 20.7756 40.4721C20.7951 40.4091 20.8171 40.3368 20.8164 40.2595C20.8164 40.1973 20.7928 40.1334 20.7524 40.025C20.7465 40.009 20.7389 39.9888 20.7313 39.9686C20.7711 39.9258 20.8159 39.8602 20.8262 39.7669C20.8432 39.6055 20.8282 39.4618 20.8148 39.334C20.8114 39.3029 20.8081 39.2718 20.8056 39.2407C20.8098 39.2332 20.814 39.2248 20.8183 39.2164C20.8454 39.1659 20.8792 39.1021 20.8894 39.0323C20.8954 38.9928 20.8946 38.9558 20.8896 38.923C20.9268 38.8936 20.9623 38.8499 20.9784 38.7869C20.9963 38.7154 20.9619 38.4288 20.946 38.3086C20.9376 38.2472 20.9131 38.201 20.892 38.1657C20.9883 38.2077 21.0922 38.2548 21.1657 38.2884C21.3372 38.3666 21.4284 38.4078 21.4817 38.4229C21.7208 38.4927 21.9743 38.5145 22.2194 38.5347C22.3833 38.549 22.538 38.5616 22.6791 38.5885C22.794 38.6104 22.9283 38.6524 23.0576 38.6936C23.1835 38.7339 23.3136 38.7751 23.4353 38.7995C23.502 38.8129 23.6026 38.8238 23.7293 38.8365C23.8696 38.8507 24.1375 38.8785 24.2668 38.9129C24.2583 38.9651 24.2497 39.0348 24.2725 39.1096C24.291 39.1718 24.3281 39.2399 24.3703 39.3189C24.4099 39.3929 24.4749 39.5114 24.4884 39.5786L24.4858 39.5828C24.4621 39.624 24.4172 39.7014 24.4298 39.8039C24.4415 39.9022 24.4879 40.0124 24.541 40.1401C24.5882 40.2544 24.6422 40.383 24.6531 40.4688C24.664 40.5562 24.6605 40.6537 24.6562 40.7562C24.651 40.8815 24.6466 41.0117 24.6668 41.1462C24.7171 41.474 24.7212 41.5858 24.7328 41.8548L24.7394 42.0162C24.7435 42.1019 24.7654 42.1977 24.7864 42.2902C24.7999 42.349 24.8218 42.4432 24.8234 42.486C24.8175 42.4953 24.8082 42.5079 24.8006 42.5163C24.7625 42.5659 24.7058 42.6399 24.7116 42.7416C24.7157 42.8206 24.7588 42.876 24.79 42.9164C24.801 42.9307 24.8196 42.9542 24.8212 42.9567C24.8221 42.9668 24.8178 42.9777 24.8009 43.0097C24.7797 43.0492 24.7518 43.1038 24.7517 43.1769C24.7517 43.2089 24.7584 43.2375 24.7668 43.2627C24.7296 43.2929 24.6941 43.335 24.6737 43.3946C24.6314 43.5157 24.6591 43.6233 24.6777 43.6939C24.681 43.7082 24.6861 43.725 24.6878 43.7376C24.6861 43.7418 24.6852 43.746 24.6835 43.7502C24.6708 43.7889 24.6505 43.8485 24.6571 43.9191C24.668 44.0461 24.7474 44.1251 24.7989 44.1713C24.787 44.1948 24.7735 44.2217 24.7633 44.2411C24.7083 44.3453 24.6651 44.4277 24.6709 44.5193C24.6759 44.5924 24.713 44.6462 24.7493 44.6975C24.7603 44.7126 24.778 44.7387 24.7814 44.7445C24.8041 44.8093 24.8269 44.8916 24.8513 44.979C24.9086 45.1816 24.9675 45.3917 25.0561 45.5372C25.224 45.8137 25.4233 45.9515 25.6582 45.9515C25.785 45.9515 25.9228 45.9112 26.0716 45.8313C26.4598 45.6229 26.4966 45.1589 26.524 44.821C26.53 44.7487 26.5351 44.6807 26.5428 44.6218C26.6007 44.1999 26.6205 43.7931 26.6395 43.3988C26.6577 43.0273 26.6749 42.676 26.7209 42.3146C26.7431 42.1414 26.7482 42.0759 26.6993 41.975C26.6909 41.9582 26.6808 41.9372 26.6665 41.8708C26.6522 41.8035 26.659 41.6934 26.6642 41.6043C26.6702 41.5127 26.6745 41.4337 26.6619 41.3681C26.6476 41.2942 26.6054 41.2471 26.5632 41.2168C26.57 41.1992 26.5776 41.1824 26.5835 41.1681C26.6267 41.0672 26.6708 40.9622 26.654 40.8529C26.6389 40.7554 26.6009 40.6537 26.5639 40.5562C26.5394 40.4915 26.515 40.4251 26.5057 40.3805C26.4889 40.299 26.478 40.1872 26.4672 40.0788C26.4546 39.9493 26.4412 39.8165 26.4168 39.7081C26.4017 39.6434 26.3637 39.6055 26.335 39.5778C26.297 39.5408 26.2387 39.4845 26.227 39.3887C26.2195 39.3273 26.2178 39.2643 26.2179 39.1987C26.3413 39.2088 26.4655 39.2122 26.5872 39.2155C26.7664 39.2206 26.9354 39.2256 27.0867 39.25C27.2404 39.2752 27.3883 39.3114 27.5319 39.3467C27.9139 39.44 28.3084 39.5358 28.8114 39.4307C29.1402 39.3618 29.2019 39.3626 29.3811 39.3651C29.4563 39.366 29.5493 39.3668 29.6828 39.3643C29.7428 39.3626 29.8713 39.3517 30.0336 39.3374C30.2221 39.3214 30.583 39.2895 30.7444 39.2887C30.7849 39.3635 30.8177 39.4551 30.8515 39.5501C30.8986 39.6837 30.9475 39.8216 31.0294 39.9417C31.0783 40.0132 31.1358 40.0535 31.1771 40.083C31.1898 40.0922 31.2075 40.104 31.2118 40.109C31.2489 40.1939 31.2437 40.2637 31.236 40.3612C31.23 40.4385 31.2232 40.5268 31.2417 40.6243C31.2644 40.7419 31.3428 40.8663 31.4179 40.9857C31.4542 41.0428 31.5082 41.1286 31.5158 41.153C31.5183 41.1681 31.5081 41.2017 31.4988 41.2303C31.4835 41.2807 31.464 41.3438 31.4716 41.4169C31.4774 41.4749 31.5061 41.5497 31.6041 41.6018C31.7162 41.8413 31.7085 41.9103 31.6923 42.0607C31.6821 42.1557 31.6684 42.2751 31.6759 42.4541C31.6775 42.4995 31.6943 42.5743 31.778 42.6306C31.8671 43.0341 31.8962 43.4863 31.9254 43.9242C31.9395 44.141 31.9545 44.3655 31.9762 44.5815C31.9796 44.6151 31.9753 44.658 31.9702 44.7067C31.9617 44.7899 31.9506 44.8933 31.9716 45.0152C31.9741 45.027 32.0718 45.3455 32.1301 45.4128C32.1756 45.464 32.467 45.6489 32.4696 45.6498C32.7035 45.7876 32.9088 45.8355 33.2091 45.6515C33.2505 45.6263 33.6227 45.2892 33.66 45.1614C33.6812 45.09 33.6813 45.0202 33.6814 44.9589C33.6814 44.9177 33.6814 44.8799 33.6882 44.8513C33.7451 44.5958 33.7477 44.5428 33.736 44.3865C33.7327 44.3386 33.7277 44.2764 33.7244 44.1805C33.7211 44.0729 33.7382 43.9544 33.7569 43.8284C33.779 43.6754 33.802 43.5182 33.7878 43.3677C33.7727 43.2097 33.7315 43.0349 33.692 42.866C33.6474 42.6752 33.6011 42.4785 33.5945 42.3196C33.5813 41.9775 33.5342 41.78 33.4837 41.5715C33.4551 41.4505 33.4248 41.3261 33.3971 41.158C33.3391 40.8083 33.1982 40.5553 33.0616 40.3107C32.9654 40.1376 32.8743 39.9745 32.8052 39.7703C32.7909 39.7274 32.7816 39.6736 32.7715 39.6173C32.7472 39.4769 32.7178 39.3038 32.581 39.1693L32.4907 39.0222C32.7063 39.0054 32.9142 38.9911 33.1001 38.9785C33.7805 38.9314 34.2116 38.8314 34.8084 38.6919C34.8921 38.6725 34.9784 38.6524 35.0697 38.6314C35.2565 38.5885 35.4365 38.5582 35.6107 38.5288C35.8085 38.4952 36.013 38.4607 36.2277 38.4086C36.4906 38.3447 36.9133 38.2212 37.2414 38.0833C37.3623 38.0329 37.4739 37.964 37.5813 37.8976C37.7099 37.8177 37.8333 37.7421 37.9618 37.7026C37.9964 37.7816 38.0394 37.8858 38.0698 37.9589C38.1338 38.1144 38.1684 38.1976 38.1929 38.2405C38.2426 38.3263 38.2992 38.3859 38.349 38.438C38.409 38.5011 38.4478 38.5423 38.4764 38.6246C38.5253 38.7675 38.5826 38.9138 38.6383 39.0558C38.7411 39.3198 38.8482 39.5921 38.8952 39.8316C38.9129 39.9241 38.9255 40.0023 38.9364 40.0746C38.9675 40.2712 38.9935 40.441 39.1065 40.6898C39.1554 40.7982 39.1273 40.9462 39.0976 41.1034C39.073 41.2328 39.0475 41.3664 39.0617 41.4992C39.081 41.68 39.0859 41.8027 39.0908 41.9447C39.0933 42.0145 39.0958 42.0885 39.1007 42.175C39.1065 42.2893 39.1453 42.402 39.179 42.502C39.1933 42.544 39.2152 42.6088 39.2169 42.6281C39.2169 42.6432 39.2016 42.6861 39.1915 42.7138C39.1643 42.7911 39.1304 42.8861 39.1464 42.9962C39.1699 43.1593 39.2348 43.3005 39.2913 43.4249C39.368 43.5922 39.4287 43.725 39.399 43.8889C39.388 43.9502 39.4048 44.0133 39.4453 44.0612C39.4875 44.1116 39.5263 44.1646 39.5635 44.2167C39.7289 44.447 39.9559 44.7613 40.5013 44.5075C40.9114 44.3167 40.8872 43.9712 40.8705 43.7435C40.8647 43.6594 40.8589 43.5804 40.8708 43.5148C40.8929 43.3888 40.9684 43.0786 41.0151 42.9315C41.1191 42.8752 41.1394 42.7886 41.1412 42.7382C41.1438 42.6609 41.1211 42.5802 41.0958 42.4944C41.0832 42.4516 41.0638 42.3818 41.0613 42.3515C41.0681 42.3347 41.0867 42.3045 41.0985 42.2851C41.1358 42.2246 41.1781 42.1557 41.1698 42.0674C41.1606 41.9683 41.0939 41.9086 41.0575 41.8775C41.0559 41.8758 41.0533 41.8741 41.0516 41.8724C41.0188 41.7363 41.0409 41.5968 41.0664 41.4371C41.0911 41.2799 41.1175 41.1168 41.0923 40.9386C41.0755 40.8176 41.0537 40.7276 41.0326 40.6402C41.0048 40.5242 40.9804 40.4242 40.9705 40.2586C40.948 39.8762 40.8705 39.6661 40.7888 39.4425C40.7483 39.3324 40.707 39.2189 40.6666 39.0718C40.6599 39.0483 40.6607 39.0088 40.6608 38.9701C40.6608 38.9087 40.6626 38.8398 40.6407 38.7675C40.6255 38.7171 40.6027 38.691 40.5285 38.6045C40.4846 38.554 40.3816 38.4347 40.3597 38.3927C40.277 38.2321 40.2095 38.0733 40.1438 37.9194C40.0426 37.6816 39.9381 37.4353 39.7761 37.1764C39.7727 37.1705 39.7685 37.1646 39.7642 37.1588C39.9451 37.1277 40.1937 37.0907 40.3965 37.0604C40.9062 36.9848 41.224 36.9369 41.3449 36.8898C41.3619 36.8831 41.3771 36.8747 41.3915 36.8646C41.6037 36.7124 41.8877 36.6754 42.1887 36.6351C42.3129 36.6183 42.4414 36.6015 42.5673 36.5754C42.6231 36.5637 42.7144 36.5384 42.8302 36.5065C42.9638 36.4695 43.2394 36.393 43.3916 36.3661C43.3924 36.3695 43.3932 36.3737 43.3941 36.3771C43.4244 36.4998 43.4614 36.6519 43.5788 36.7461C43.648 36.8015 43.7123 36.8217 43.7562 36.8318C43.7621 36.8461 43.7705 36.8679 43.7798 36.9007C43.8244 37.0528 43.9576 37.4202 44.0622 37.5815C44.096 37.6337 44.15 37.6782 44.2589 37.7665C44.3113 37.8093 44.4101 37.8883 44.4278 37.9102C44.4962 38.0279 44.5542 38.2422 44.6039 38.4322C44.6376 38.5566 44.6687 38.6742 44.7041 38.7734C44.726 38.8339 44.7817 38.9533 44.8702 39.1432C44.92 39.2492 44.9917 39.4021 45.017 39.4626L45.017 39.4887C45.0168 39.6333 45.0158 39.782 45.0917 39.9703C45.1305 40.067 45.1955 40.1267 45.2461 40.1636C45.2148 40.2477 45.1648 40.3872 45.2407 40.5503C45.2946 40.668 45.2946 40.7108 45.2937 40.7957C45.2936 40.8621 45.2918 40.9445 45.3128 41.0647C45.3296 41.1639 45.3735 41.2723 45.4156 41.3774C45.4502 41.4623 45.4856 41.5505 45.4965 41.611C45.5108 41.6884 45.5183 41.7758 45.5267 41.8691C45.5509 42.1549 45.5818 42.5104 45.8511 42.7642C46.0901 42.9895 46.3326 42.9853 46.4941 42.9424C46.8847 42.8382 47.2139 42.3868 47.3241 42.0162C47.3759 41.843 47.3625 41.7094 47.3524 41.6018C47.3483 41.5606 47.3449 41.5219 47.345 41.4833C47.3451 41.3042 47.3208 41.1378 47.2998 40.9916C47.2856 40.8899 47.2713 40.7932 47.268 40.7134C47.2689 40.6991 47.2833 40.6604 47.2926 40.6343C47.3206 40.5562 47.3595 40.4486 47.3428 40.3284C47.3285 40.225 47.2686 40.1082 47.2104 39.9939C47.1868 39.9476 47.1505 39.877 47.1455 39.8611C47.1455 39.8527 47.1497 39.8308 47.1531 39.8157C47.1625 39.7728 47.1735 39.7199 47.1592 39.6593C47.07 39.2777 46.9419 38.981 46.8061 38.6675L46.7614 38.565C46.7614 38.565 46.7614 38.5608 46.7614 38.5582C46.7632 38.5145 46.7666 38.4422 46.7312 38.3632C46.695 38.2834 46.6358 38.2288 46.5928 38.1884C46.5852 38.1817 46.5759 38.1724 46.5683 38.1657C46.5515 38.1001 46.5372 38.0346 46.5237 37.9665C46.4909 37.8093 46.4573 37.6463 46.3763 37.4647C46.3401 37.3832 46.27 37.326 46.2016 37.2697C46.1805 37.2521 46.1501 37.2277 46.1374 37.2142C46.1357 37.2067 46.1341 37.1949 46.1324 37.1865C46.1248 37.1419 46.1139 37.0797 46.0708 37.0218C46.0312 36.968 45.9805 36.9394 45.9366 36.9234C45.9349 36.8646 45.9308 36.7923 45.8903 36.7242C45.87 36.6914 45.8481 36.6687 45.7172 36.5401C45.6623 36.4863 45.5838 36.4098 45.5467 36.3695C45.5467 36.367 45.5458 36.3645 45.545 36.3619C45.5357 36.3182 45.5206 36.2459 45.4674 36.1795C45.4244 36.1249 45.3475 36.0677 45.2251 35.9787C45.1955 35.9568 45.1541 35.9265 45.1195 35.9005C45.5625 35.803 45.8804 35.6374 46.2153 35.4626C46.3108 35.413 46.4089 35.3617 46.5146 35.3096C46.7015 35.218 46.9086 35.1247 47.1285 35.0272C47.6223 34.807 48.133 34.5792 48.5161 34.3119C48.6413 34.2245 48.7081 34.1681 48.7529 34.1312C48.7969 34.0947 48.9178 34.0482 49.1156 33.9916C49.1816 33.9731 49.6931 33.7302 49.7168 33.7176C49.7582 33.6941 49.8048 33.6537 49.9249 33.5445C49.9511 33.5209 49.9849 33.4898 50.0196 33.4596C50.0432 33.4991 50.0736 33.5369 50.115 33.568C50.2172 33.6437 50.3777 33.7017 50.5484 33.763C50.6582 33.8025 50.7832 33.8479 50.8364 33.8807C50.9108 33.9303 51.5019 34.4262 51.6065 34.5304C51.7306 34.7532 51.7618 34.7952 51.8909 34.9616L51.9542 35.0431C52.1644 35.3172 52.2393 35.6021 52.3269 35.9316C52.3437 35.9955 52.3605 36.0602 52.3791 36.1266C52.4068 36.2249 52.8077 36.7788 52.8618 36.8251C53.1708 37.0856 53.7269 37.0604 54.007 36.7721C54.1381 36.6368 54.2822 36.209 54.3009 36.0972C54.3681 35.6887 54.096 34.9078 54.0934 34.9003C54.0547 34.7901 53.9779 34.6523 53.9214 34.5514C53.9037 34.5195 53.8885 34.4926 53.8792 34.4749C53.8792 34.4665 53.8792 34.4573 53.8792 34.4489C53.8793 34.401 53.8777 34.3295 53.8465 34.2497C53.7124 33.9084 53.1289 33.4898 52.4912 33.0544C52.4152 33.0023 52.3485 32.9569 52.297 32.9208C52.2581 32.8931 52.2075 32.8401 52.1577 32.7897C52.0944 32.7241 52.0294 32.6569 51.9576 32.6073C51.8571 32.5375 51.7388 32.4846 51.6248 32.4333C51.5825 32.414 51.5394 32.3946 51.4989 32.3753C51.5234 32.3602 51.5446 32.3467 51.5606 32.3358C51.6444 32.2778 51.7264 32.1887 51.8051 32.103C51.8601 32.0425 51.9176 31.9803 51.9574 31.95C52.0403 31.887 52.1511 31.8264 52.2686 31.7626C52.4411 31.6684 52.6204 31.5718 52.7557 31.4398C52.8073 31.3894 52.8243 31.328 52.8379 31.2793C52.843 31.2591 52.8531 31.2221 52.8616 31.212C53.0072 31.0397 53.3521 30.8918 53.6565 30.7615C53.867 30.6707 54.0666 30.5858 54.2281 30.4858C54.2915 30.4463 54.3254 30.3917 54.3482 30.3563C54.3508 30.3521 54.3533 30.3479 54.3559 30.3437C54.4125 30.3118 54.4962 30.2866 54.585 30.2605C54.7118 30.2227 54.8555 30.1807 54.9824 30.0975C55.0585 30.0479 55.1135 29.9874 55.1626 29.9344C55.1964 29.8983 55.2285 29.8638 55.2514 29.8478C55.2911 29.8243 55.5203 29.7091 55.6091 29.668C55.6479 29.6747 55.7181 29.694 55.7671 29.7083C55.8904 29.7436 56.0197 29.7789 56.1329 29.7772C56.3138 29.773 56.6723 29.6411 56.8043 29.5074C56.8762 29.4343 57.0041 29.1082 57.011 29.0392C57.0144 29.0073 57.0127 28.9779 57.0077 28.9501C57.017 28.9426 57.0263 28.9342 57.0347 28.9249C57.0643 28.8938 57.083 28.8602 57.0957 28.8291C57.1193 28.8274 57.143 28.8266 57.1641 28.8257C57.2622 28.8207 57.3737 28.8157 57.4684 28.7921C57.8336 28.7005 58.2337 28.408 58.3051 27.9634C58.34 27.7465 58.1544 27.4111 58.0413 27.3019C57.8614 27.127 57.4373 26.9656 57.1779 26.9741C57.0756 26.9774 56.6851 27.0665 56.6157 27.0875C56.5278 27.1144 56.3511 27.2027 56.0695 27.3456C55.9139 27.4246 55.6949 27.5347 55.5791 27.5851C55.5065 27.5347 55.4347 27.4834 55.362 27.4321C55.2261 27.3346 55.085 27.2346 54.9406 27.1413C54.8426 27.0774 54.754 27.0245 54.6687 26.9732C54.4676 26.853 54.2936 26.7488 54.0868 26.5563C54.0817 26.5496 54.0716 26.5261 54.0657 26.5101C54.0471 26.4639 54.0235 26.4067 53.9712 26.3588C53.9214 26.3134 53.8529 26.2831 53.7364 26.2327C53.6781 26.2075 53.5911 26.1697 53.5624 26.1495C53.4036 26.0343 53.0962 25.7855 52.9442 25.6569C52.8978 25.6174 52.8429 25.5334 52.7906 25.451C52.718 25.3392 52.6438 25.2232 52.5433 25.1425C52.3736 25.0055 52.2435 24.8971 52.0949 24.7702C52.0586 24.7391 52.0113 24.7139 51.9454 24.6786C51.9277 24.6693 51.9032 24.6559 51.8778 24.6416C51.9236 24.5668 51.9304 24.4937 51.9338 24.4449C51.9913 24.4079 52.103 24.3499 52.1757 24.3129C52.36 24.2171 52.4581 24.165 52.5156 24.1045C52.5698 24.0465 52.5977 23.9784 52.6198 23.9238C52.6291 23.9011 52.6427 23.8675 52.6486 23.8599C52.6621 23.8464 52.7112 23.817 52.7399 23.7985C52.8169 23.7523 52.8964 23.7036 52.9446 23.6287C52.981 23.5716 52.9912 23.5128 52.9972 23.4724C53.0454 23.427 53.1342 23.3623 53.1951 23.3178C53.2898 23.2488 53.3406 23.211 53.3761 23.1698C53.4209 23.1169 53.4396 23.0563 53.4506 23.0084C53.4912 22.9992 53.5411 22.9832 53.5876 22.9496C53.7754 22.8168 53.9522 22.6764 54.1239 22.5411C54.2592 22.4344 54.3987 22.3242 54.5408 22.2183C55.0441 21.8468 55.6926 21.6081 56.3199 21.3761C56.5592 21.2879 56.8069 21.1963 57.0385 21.1004C57.184 21.0399 57.3759 20.9475 57.578 20.85C57.9965 20.6482 58.5707 20.3725 58.8403 20.3406C58.9308 20.3297 59.0144 20.3238 59.093 20.3171C59.3365 20.2986 59.5655 20.2809 59.8614 20.1515C59.8648 20.1498 60.2614 19.9531 60.3189 19.8993C60.4873 19.7396 60.5409 19.3731 60.4726 19.1765L60.471 19.1563ZM53.7694 28.6425C53.6621 28.6391 53.5277 28.6358 53.4101 28.7005C53.2875 28.7677 53.235 28.8972 53.2087 28.9989C53.0701 29.0199 52.9737 29.0359 52.9086 29.0653C52.8097 29.1098 52.7445 29.183 52.6929 29.2418C52.6743 29.2628 52.6455 29.2956 52.6337 29.3023C52.6075 29.3175 52.5711 29.3225 52.5246 29.3292C52.4689 29.3376 52.4004 29.3477 52.3302 29.3797C52.238 29.4217 52.1627 29.5057 52.0959 29.5797C52.0739 29.6041 52.0409 29.6411 52.0299 29.6495C51.9978 29.6713 51.942 29.6915 51.8887 29.7117C51.8101 29.7411 51.7298 29.7705 51.6596 29.8226C51.5682 29.8899 51.4827 30.0084 51.3989 30.1218C51.3609 30.174 51.3033 30.253 51.2839 30.2698C51.0732 30.4295 50.85 30.5707 50.6132 30.7203C50.3214 30.9044 50.0204 31.0952 49.7446 31.323C49.6905 31.3683 49.6583 31.4205 49.6354 31.4591C49.6287 31.4701 49.6202 31.4843 49.6151 31.4911C49.5813 31.5112 49.5238 31.5264 49.4629 31.5432C49.315 31.5835 49.1121 31.6398 48.9463 31.8298C48.8532 31.9365 48.837 32.0433 48.8361 32.1181C48.7812 32.1383 48.7076 32.1626 48.6603 32.1778C48.5622 32.2097 48.5047 32.2282 48.4633 32.2501C48.3796 32.2938 48.3136 32.3677 48.2509 32.4392C48.2162 32.4787 48.1765 32.5232 48.1494 32.5417C48.0648 32.6022 47.9515 32.6468 47.8306 32.6947C47.7317 32.7342 47.6286 32.7746 47.5347 32.8275C47.4383 32.8821 47.3706 32.9485 47.3216 32.9973C47.2996 33.0191 47.2742 33.0444 47.2607 33.0528C47.2218 33.0763 47.1609 33.0881 47.0958 33.0998C47.029 33.1124 46.9529 33.1267 46.8802 33.1587C46.805 33.1923 46.739 33.2478 46.6747 33.3016C46.6273 33.3411 46.5783 33.3823 46.5385 33.4041C46.4244 33.4646 46.3001 33.5125 46.169 33.5621C46.0194 33.6193 45.8655 33.6781 45.7158 33.7613C45.6304 33.8092 45.5205 33.8883 45.4038 33.9715C45.2921 34.0513 45.1551 34.1505 45.0883 34.1816C44.9522 34.2152 44.0308 34.3741 43.9387 34.3825C43.8829 34.3867 43.8196 34.3766 43.7452 34.3665C43.5965 34.3447 43.4114 34.3178 43.2034 34.3926C43.0792 34.4371 42.9564 34.6338 42.8819 34.7801C42.6605 34.775 42.4238 34.7801 42.1719 34.8305C41.8194 34.9003 41.4719 35.0129 41.1363 35.1222C40.8438 35.2171 40.5403 35.3155 40.2453 35.3802C40.0956 35.4138 39.9173 35.4138 39.7449 35.4138C39.526 35.4138 39.3004 35.4138 39.1025 35.4802C39.0146 35.5096 38.952 35.555 38.9013 35.5912C38.8767 35.6088 38.8522 35.6265 38.8378 35.6324C38.5183 35.7551 38.2029 35.8484 37.8977 35.9383C37.3618 36.0963 36.808 36.2602 36.2524 36.5847C35.9404 36.7671 35.2185 36.8847 34.6378 36.9797C34.3783 37.0218 34.1332 37.0621 33.9472 37.1041C33.8221 37.1319 33.6868 37.1798 33.5566 37.226C33.3799 37.2882 33.1973 37.3529 33.0654 37.3596C32.9201 37.3664 32.773 37.3622 32.6175 37.358C32.4003 37.3512 32.1747 37.3445 31.9304 37.3689C31.425 37.4185 30.906 37.4798 30.4048 37.5387C29.983 37.5883 29.5477 37.6395 29.1225 37.6832C29.0591 37.69 28.9788 37.7001 28.8909 37.711C28.6855 37.737 28.4049 37.7723 28.2764 37.7656C28.257 37.7606 28.2089 37.7404 28.1734 37.7261C28.0636 37.6807 27.9275 37.6253 27.783 37.611C27.1332 37.5471 26.4318 37.4714 25.7034 37.3546C25.6062 37.3395 25.4888 37.3075 25.3646 37.2739C25.172 37.2226 24.9726 37.1688 24.8078 37.1646C24.0767 37.1478 23.6103 37.0797 22.9563 36.952C22.3065 36.8251 21.8376 36.678 21.2487 36.4678C20.9801 36.372 20.708 36.2653 20.4445 36.1627C20.0238 35.9988 19.5887 35.829 19.1417 35.6895C19.0336 35.6559 18.9009 35.6298 18.7717 35.6038C18.6314 35.576 18.4734 35.5449 18.383 35.5088C18.383 35.5088 18.3821 35.5071 18.3813 35.5063C18.3602 35.4668 18.3214 35.3928 18.2336 35.3483C17.992 35.2255 17.6827 35.1524 17.3828 35.0826C17.1808 35.0347 16.9899 34.9902 16.8311 34.933C16.499 34.8145 16.1198 34.6136 15.8757 34.4758C15.859 34.2035 15.8171 33.9202 15.6507 33.7647C15.4489 33.5756 15.1912 33.6042 15.0213 33.6235C14.9663 33.6294 14.8826 33.6386 14.8615 33.6319C14.8049 33.6008 14.7458 33.5218 14.6885 33.4453C14.6395 33.3806 14.5897 33.3133 14.5298 33.2595C14.3845 33.1284 14.2105 33.0477 14.0576 32.9763C13.9495 32.9258 13.8464 32.8788 13.7662 32.8199C13.5137 32.6367 13.2629 32.414 13.0206 32.1996C12.7639 31.9718 12.4979 31.7365 12.2192 31.5356C11.8679 31.2826 11.4667 31.07 11.0781 30.8649C10.7352 30.6833 10.3804 30.495 10.0662 30.2824C9.95222 30.2051 9.83906 30.1235 9.71913 30.0369C9.40329 29.8083 9.07646 29.5721 8.70984 29.4057C8.55187 29.3343 8.36852 29.2889 8.19108 29.246C8.03308 29.2073 7.88437 29.1712 7.78385 29.1233C7.76696 29.1149 7.74079 29.0871 7.71546 29.0603C7.67494 29.0174 7.62513 28.9636 7.55418 28.9241C7.218 28.7375 6.84376 28.5862 6.48219 28.4399C6.35885 28.3903 6.23297 28.3391 6.10964 28.2878C6.18998 28.2357 6.26863 28.1861 6.31176 28.1609C6.35235 28.1382 6.41406 28.1172 6.47324 28.0978C6.5637 28.0684 6.6567 28.0373 6.73282 27.981C6.83347 27.9062 6.86906 27.8129 6.88855 27.7625C6.98242 27.707 7.25048 27.5641 7.29529 27.5465C7.31135 27.5414 7.346 27.5406 7.37643 27.5397C7.44319 27.5381 7.52687 27.5364 7.60973 27.4969C7.7577 27.4271 7.82717 27.2674 7.88816 27.1279C7.90426 27.0909 7.92882 27.0346 7.93813 27.022C8.00328 26.9497 8.13351 26.8774 8.24851 26.8135C8.33223 26.7673 8.41933 26.7194 8.49207 26.6664C8.58003 26.6025 8.6587 26.5336 8.73483 26.4664C8.85072 26.3655 8.95984 26.2697 9.08329 26.205C9.08668 26.205 9.08921 26.205 9.09259 26.205C9.13823 26.2033 9.2143 26.1999 9.28787 26.1579C9.36228 26.115 9.39785 26.0453 9.43003 25.9831C9.44443 25.9553 9.46814 25.9083 9.48336 25.8957C9.63562 25.7662 9.70999 25.7746 9.87223 25.7948C9.97026 25.8066 10.0928 25.8209 10.2424 25.8032C10.452 25.778 10.6635 25.6292 10.7685 25.4334C10.8447 25.2905 10.8558 25.14 10.8019 25.0039C10.8247 24.9912 10.8458 24.977 10.8653 24.9593C10.9 24.9274 10.9304 24.8988 10.9592 24.8719C11.0556 24.7811 11.1258 24.7156 11.2603 24.6122C11.3288 24.5592 11.3695 24.4937 11.3966 24.4491C11.3983 24.4457 11.3999 24.4432 11.4025 24.4399C11.438 24.4273 11.5073 24.4155 11.5479 24.4079C11.6375 24.3919 11.7153 24.3785 11.7778 24.3365C11.859 24.2818 11.8862 24.1978 11.9023 24.1474C11.904 24.1415 11.9057 24.1347 11.9082 24.1289C11.9581 24.1003 12.0773 24.0499 12.1526 24.0179C12.3327 23.9414 12.4223 23.9019 12.4764 23.849C12.523 23.8036 12.5509 23.7515 12.5746 23.7052C12.6034 23.6506 12.6288 23.6027 12.6905 23.5539C12.6998 23.5514 12.71 23.5497 12.7184 23.5481C12.7607 23.5397 12.8309 23.5254 12.8808 23.4573C12.8994 23.4329 12.9164 23.3993 12.9215 23.3581C12.9621 23.3438 13.0052 23.322 13.0441 23.2841C13.0889 23.2404 13.1152 23.1883 13.1313 23.1387C13.2183 23.1396 13.2817 23.1387 13.3341 23.1278C13.4094 23.1127 13.7121 22.9689 13.7747 22.9135C13.9591 22.7487 13.9517 22.5546 13.9138 22.4159C14.0238 22.3284 14.1295 22.1982 14.2209 22.0796C14.2235 22.0763 14.2252 22.0738 14.2277 22.0712C14.2522 22.0645 14.2826 22.057 14.3063 22.0511C14.4551 22.0141 14.516 21.999 14.5701 21.9435C14.5989 21.9141 14.626 21.8695 14.6303 21.809C14.6903 21.7989 14.7621 21.7838 14.8315 21.7434C14.9482 21.6754 15.0117 21.5619 15.0625 21.4711C15.0828 21.435 15.1056 21.3946 15.1217 21.3761C15.285 21.1954 15.4745 21.055 15.6758 20.9063C15.7976 20.8163 15.9244 20.723 16.0462 20.618C16.1156 20.5583 16.1935 20.4658 16.2688 20.3767C16.3026 20.3364 16.3525 20.2767 16.3762 20.254C16.3881 20.249 16.41 20.2431 16.4253 20.2389C16.4929 20.2196 16.585 20.1935 16.6434 20.1111C16.6807 20.0582 16.69 20.0044 16.6875 19.9573C16.707 19.9523 16.7264 19.9472 16.7408 19.9439C16.822 19.9237 16.8735 19.9111 16.9166 19.8892C16.9564 19.8691 16.9928 19.838 17.0596 19.7808C17.0985 19.7472 17.1569 19.6967 17.1839 19.6799C17.3522 19.5782 17.3928 19.5396 17.4444 19.4765C17.4605 19.4572 17.4757 19.4387 17.5155 19.4034C17.5257 19.3975 17.5578 19.39 17.5789 19.3841C17.6296 19.3715 17.693 19.3555 17.7522 19.3168C17.803 19.2832 17.8487 19.2277 17.9333 19.1243C17.9578 19.0941 17.9951 19.0487 18.0188 19.0226C18.0433 19.0184 18.0838 19.0159 18.1126 19.0142C18.2132 19.0075 18.3273 19.0008 18.4177 18.942C18.4651 18.9117 18.4922 18.8705 18.5235 18.8234C18.5387 18.8007 18.5701 18.7537 18.5861 18.7411C18.6166 18.7175 18.6639 18.6999 18.7138 18.6814C18.7781 18.6579 18.8508 18.6301 18.9151 18.5788C18.9514 18.5494 19.014 18.4906 19.0868 18.4225C19.1401 18.3729 19.223 18.2947 19.2636 18.2603C19.2712 18.2603 19.2788 18.2603 19.2864 18.2603C19.3439 18.2603 19.4309 18.262 19.5172 18.2124C19.6026 18.1628 19.6356 18.0829 19.6602 18.0249C19.6653 18.0132 19.6712 17.998 19.6771 17.9871C19.6898 17.9837 19.7093 17.9812 19.7245 17.9787C19.782 17.9695 19.8606 17.9577 19.9409 17.9123C20.0331 17.861 20.0923 17.7745 20.1389 17.7047C20.1507 17.687 20.1677 17.6618 20.1778 17.6501C20.1846 17.6459 20.193 17.6417 20.2023 17.6383C20.1862 17.7131 20.1743 17.7669 20.1328 17.8215C20.1083 17.8543 20.0322 17.898 19.9865 17.9232C19.9163 17.9636 19.8555 17.998 19.8165 18.0628C19.7869 18.1115 19.6648 18.4519 19.664 18.4544C19.4487 19.0983 19.3563 19.3471 19.0109 19.8724C18.823 20.159 18.7458 20.4263 18.672 20.6861C18.6432 20.7886 18.6127 20.8945 18.5754 21.0012C18.5593 21.0483 18.5152 21.1299 18.4763 21.2021C18.4018 21.3417 18.3366 21.4627 18.3229 21.5694C18.3119 21.6493 18.3253 21.7191 18.3354 21.7745C18.343 21.8132 18.348 21.8435 18.3454 21.8636C18.3378 21.8989 18.2811 22.0107 18.2438 22.0855C18.1786 22.215 18.1108 22.3495 18.0795 22.4646C17.903 23.1135 17.9126 23.6414 17.923 24.2003C17.9286 24.4861 17.9334 24.782 17.9119 25.0997C17.9042 25.2174 17.888 25.3417 17.8727 25.4628C17.8608 25.5586 17.848 25.6536 17.8394 25.7469C17.7728 26.4538 17.8201 27.3296 17.9605 27.9802C18.1414 28.8207 18.5107 29.6949 18.7147 30.1412C18.7645 30.2513 18.8192 30.4085 18.8715 30.5614C18.9263 30.7211 18.9777 30.8716 19.0257 30.9699C19.0696 31.0582 19.1439 31.0977 19.1887 31.1212C19.1912 31.1229 19.1938 31.1238 19.1963 31.1254C19.2098 31.1532 19.2258 31.2078 19.2367 31.2456C19.2569 31.3137 19.2797 31.391 19.3176 31.4591C19.4298 31.6592 19.5632 31.8609 19.6931 32.0559C19.7952 32.2106 19.8923 32.3568 19.9792 32.5022C20.0188 32.5686 20.0593 32.6375 20.1007 32.7073C20.3588 33.1444 20.6516 33.6395 21.0028 34.0085C21.5279 34.559 22.2112 35.002 22.8725 35.4306C23.1047 35.5811 23.3243 35.7231 23.5321 35.8669C23.7584 36.0232 23.9165 36.0282 24.0424 36.0316C24.1015 36.0333 24.1522 36.035 24.2156 36.0509C24.2705 36.0652 24.3955 36.1266 24.4961 36.1762C24.6616 36.2577 24.8171 36.335 24.9387 36.3569C25.0908 36.3846 25.2168 36.3611 25.3089 36.3434C25.3588 36.3342 25.4011 36.3258 25.4281 36.3283C25.4349 36.33 25.4526 36.3384 25.4661 36.3451C25.5236 36.3729 25.6089 36.4132 25.739 36.4115C25.9055 36.409 26.0281 36.3796 26.1355 36.3535C26.2859 36.3174 26.4051 36.2888 26.6459 36.3426C26.7338 36.3619 26.8428 36.3905 26.9577 36.4208C27.3523 36.5242 27.8001 36.6418 28.112 36.6124C28.2134 36.6032 28.2988 36.5721 28.3673 36.5477C28.4197 36.5284 28.4645 36.5124 28.4992 36.5115C28.6859 36.509 28.9074 36.5258 29.1423 36.5435C29.4558 36.567 29.7795 36.5922 30.0542 36.5704C30.1818 36.5603 30.3356 36.5225 30.4844 36.4863C30.6298 36.451 30.7955 36.4107 30.8885 36.4107C30.9062 36.4107 30.9485 36.4241 30.984 36.4367C31.038 36.4561 31.0997 36.4771 31.1707 36.4813C31.8366 36.5216 32.8501 36.3611 33.5585 36.1837C33.7386 36.1384 33.9102 36.0862 34.0759 36.0358C34.2424 35.9854 34.4149 35.9324 34.5958 35.8879C35.9957 35.5399 37.0504 34.7397 38.1669 33.8933L38.2227 33.8513C38.2642 33.8193 38.331 33.7823 38.3952 33.7462C38.4883 33.6941 38.5838 33.6403 38.6566 33.5773C38.8207 33.4352 38.9764 33.2133 39.1271 32.999C39.2269 32.8569 39.3209 32.7224 39.4046 32.6308C39.4833 32.5442 39.5874 32.4543 39.6973 32.3585C39.8877 32.1937 40.0848 32.0231 40.2177 31.8172C40.326 31.6491 40.4098 31.5003 40.4903 31.3557C40.6164 31.1305 40.735 30.917 40.9372 30.664C41.2309 30.295 41.3486 30.0151 41.4842 29.6915C41.5325 29.5763 41.5824 29.457 41.6451 29.3217C41.7002 29.2023 41.7595 29.0838 41.8221 28.9585C42.0847 28.4324 42.3565 27.8886 42.3563 27.2657C42.3564 27.1691 42.3354 27.0665 42.3144 26.9665C42.2984 26.8883 42.2799 26.8001 42.2816 26.7496C42.2851 26.6488 42.3309 26.5042 42.375 26.3638C42.4225 26.2142 42.4716 26.0604 42.4862 25.915C42.5058 25.7183 42.5731 24.3592 42.5176 24.1205C42.4999 24.044 42.4518 23.9919 42.4172 23.954C42.3969 23.9322 42.3783 23.912 42.3741 23.8977C42.3211 23.7027 42.3332 23.4077 42.3445 23.1219C42.3567 22.8193 42.3679 22.5344 42.3132 22.3058C42.2981 22.2436 42.2618 22.1788 42.2196 22.1032C42.1884 22.0477 42.1505 21.9796 42.1378 21.9401C42.0376 21.6132 41.934 21.2753 41.8464 20.9491C41.8321 20.8953 41.8271 20.802 41.823 20.7205C41.8172 20.6121 41.8122 20.5104 41.7853 20.4297C41.7482 20.3196 41.6578 20.27 41.6139 20.2465C41.6012 20.2112 41.603 20.1473 41.6047 20.0893C41.6074 20.0103 41.61 19.9203 41.583 19.8321C41.5182 19.6194 41.4076 19.4622 41.3013 19.3101C41.2363 19.2168 41.1747 19.1294 41.1258 19.0319C41.0634 18.9075 41.0128 18.7839 40.9631 18.6646C40.8712 18.4418 40.7759 18.2107 40.608 17.9728C40.5548 17.8972 40.4974 17.824 40.44 17.7534L40.592 17.8291C40.5971 17.8316 40.6013 17.8333 40.6064 17.8358C40.7196 17.882 40.8387 17.9291 40.9621 17.9779C41.5416 18.2065 42.198 18.4654 42.6168 18.8276C42.7342 18.9293 42.8575 19.0655 42.9883 19.2092C43.1217 19.3572 43.2601 19.5093 43.4028 19.6354C43.5379 19.7547 43.6747 19.8766 43.8123 20.0002C44.4946 20.6104 45.2013 21.2416 45.9344 21.7485C46.4487 22.104 46.8178 22.3646 47.2501 22.7445C47.4663 22.9345 47.7204 23.1984 47.9661 23.4539C48.2877 23.7876 48.6203 24.1331 48.8999 24.3482C48.9784 24.4088 49.0705 24.4533 49.16 24.497C49.2352 24.534 49.3129 24.5718 49.356 24.608C49.4126 24.655 49.4826 24.7576 49.545 24.8484C49.6041 24.9349 49.6598 25.0165 49.7206 25.0795C49.9241 25.293 50.1715 25.4712 50.4105 25.6435C50.5921 25.7746 50.7643 25.8982 50.913 26.0335C50.9957 26.1083 51.0793 26.205 51.1671 26.3075C51.2726 26.4302 51.3823 26.558 51.5039 26.6614C51.6432 26.7799 51.7995 26.8774 51.9498 26.9724C52.0774 27.0522 52.1973 27.127 52.2986 27.2094C52.4996 27.3725 52.6778 27.5364 52.8492 27.6952C53.1202 27.9457 53.4014 28.2054 53.7763 28.4635C53.8219 28.4946 53.8718 28.5181 53.9199 28.5408C53.9343 28.5475 53.9478 28.5543 53.9596 28.5601C53.9537 28.5652 53.9486 28.5694 53.9427 28.5736C53.9131 28.598 53.8691 28.6349 53.8548 28.6391C53.8395 28.6417 53.7931 28.6408 53.7626 28.6391L53.7694 28.6425ZM21.2953 19.9002C21.3587 19.8598 21.4374 19.8052 21.4705 19.7077C21.4925 19.6446 21.4909 19.5858 21.4892 19.5421C21.4892 19.5354 21.4892 19.5286 21.4892 19.5228C21.5036 19.4984 21.5324 19.4555 21.5527 19.4253C21.645 19.2899 21.7017 19.2008 21.7136 19.1092C21.7196 19.0638 21.7137 19.0235 21.7061 18.9882C21.7476 18.9621 21.7916 18.926 21.8246 18.8747C21.9194 18.7285 22.01 18.5503 22.0972 18.378C22.2183 18.1392 22.3437 17.893 22.4672 17.7501C22.4748 17.7434 22.5002 17.7291 22.5154 17.7198C22.567 17.6904 22.6253 17.6568 22.6617 17.5904C22.6888 17.5408 22.694 17.492 22.6915 17.4517C22.6915 17.4517 22.6932 17.4517 22.694 17.4517C22.7557 17.4357 22.8191 17.4198 22.8749 17.3811C22.9697 17.3147 23.0027 17.213 23.0239 17.1457C23.0273 17.1357 23.0316 17.1222 23.0349 17.113C23.0908 17.0676 23.2176 17.0138 23.3114 16.9743C23.4053 16.9348 23.4941 16.8969 23.5617 16.8532C23.8383 16.6734 24.4262 16.0968 24.6496 15.8295C24.6945 15.7757 24.7224 15.7126 24.7487 15.6521C24.7614 15.6235 24.7809 15.579 24.7944 15.558C24.8485 15.5412 24.9813 15.5101 25.0354 15.4983L25.0928 15.4849C25.2247 15.4529 25.3676 15.4319 25.5197 15.41C25.6626 15.389 25.8096 15.3672 25.9525 15.3361C26.0066 15.3243 26.0802 15.2999 26.1655 15.2722C26.2137 15.2562 26.2873 15.2327 26.3465 15.2159C26.3743 15.2495 26.4132 15.2831 26.4698 15.3025C26.6311 15.3588 27.036 15.2932 27.168 15.2092C27.2305 15.1688 27.2644 15.1125 27.2839 15.073C27.4124 15.0444 27.7631 15.0621 27.9591 15.0722C28.1527 15.0822 28.3192 15.0906 28.4248 15.0789C29.2498 14.9889 30.0246 15.099 30.8443 15.2159C31.1916 15.2655 31.5516 15.3167 31.915 15.3512C32.0003 15.3596 32.0705 15.3277 32.1229 15.3041C32.1542 15.2899 32.1838 15.2747 32.2032 15.2772C32.2244 15.2772 32.2666 15.2983 32.3029 15.3167C32.3604 15.3445 32.4322 15.3798 32.5167 15.3924C32.6189 15.4075 32.7296 15.3983 32.837 15.389C32.9409 15.3806 33.0677 15.3697 33.1311 15.3916C33.1378 15.4016 33.1471 15.4176 33.1539 15.4285C33.1868 15.4832 33.2315 15.558 33.3083 15.6093C33.4317 15.6916 33.773 15.7421 33.9168 15.6983C34.0182 15.6672 34.0876 15.5975 34.1383 15.5462C34.1383 15.5462 34.1383 15.5462 34.1392 15.5454C34.1806 15.5664 34.233 15.5899 34.2972 15.5983C34.4653 15.621 34.6521 15.6219 34.833 15.6235C35.0451 15.6252 35.2657 15.6269 35.4237 15.6639C35.7667 15.7446 36.5278 16.1346 36.8048 16.3481C36.8799 16.4061 36.9567 16.5111 37.0386 16.6221C37.1576 16.7843 37.2926 16.9684 37.4844 17.0995C37.573 17.16 37.6939 17.197 37.7817 17.2239C37.791 17.2264 37.8003 17.2298 37.8088 17.2323C37.8932 17.3391 38.1286 17.6501 38.1675 17.7055C38.2155 17.7929 38.2341 17.8509 38.2535 17.9123C38.2897 18.0275 38.3267 18.1468 38.5032 18.362C39.0974 19.0865 39.347 19.6077 39.6833 20.5011C39.7465 20.6701 39.7801 20.8432 39.8129 21.0105C39.8398 21.1492 39.8676 21.2929 39.9114 21.4299C39.94 21.519 40.0008 21.5955 40.0658 21.6779C40.1097 21.7334 40.1831 21.8267 40.1881 21.8678C40.199 21.951 40.2091 22.0351 40.22 22.1183C40.2485 22.3469 40.2778 22.5831 40.3131 22.8126C40.3568 23.0992 40.3962 23.3917 40.4348 23.675C40.4759 23.9801 40.5186 24.2953 40.5673 24.6071C40.6597 25.2031 40.5756 25.6553 40.4778 26.1798C40.443 26.3664 40.4073 26.5597 40.3775 26.7698C40.3579 26.9051 40.3738 27.0463 40.3889 27.1825C40.4031 27.3111 40.4182 27.4439 40.3987 27.5473C40.38 27.6305 40.1979 27.9785 40.1293 28.1088C40.1006 28.1634 40.0768 28.2088 40.0624 28.2374C39.9735 28.4147 39.9133 28.6291 39.8556 28.8358C39.803 29.0224 39.7496 29.2149 39.6776 29.3662C39.6556 29.3923 39.5896 29.4528 39.5575 29.4822C39.4763 29.557 39.4424 29.5873 39.4195 29.6385C39.3899 29.7049 39.3831 29.7705 39.3771 29.8226C39.372 29.8722 39.3686 29.9016 39.3542 29.9252C39.3415 29.9445 39.2831 29.9865 39.2451 30.0143C39.1554 30.079 39.0429 30.1588 38.9743 30.2815C38.9168 30.3849 38.8896 30.5085 38.8658 30.6178C38.8514 30.6825 38.8361 30.7556 38.8192 30.7892C38.7912 30.8405 38.6297 30.9716 38.5434 31.0422C38.4351 31.1296 38.3421 31.2053 38.2837 31.2759C38.1754 31.4053 38.0865 31.5549 38.0001 31.6987C37.8731 31.9113 37.7538 32.1122 37.5795 32.2526L37.4213 32.3803C36.5831 33.0587 35.6332 33.8277 34.6289 34.1303C34.3288 34.2211 34.0152 34.2917 33.7125 34.3606C33.5426 34.3993 33.3744 34.4371 33.2078 34.4791C33.0802 34.5111 32.9534 34.5514 32.8308 34.5909C32.5476 34.6826 32.2796 34.7683 32.0109 34.7464C31.4235 34.6977 30.9046 34.7498 30.4025 34.8002C29.9976 34.8406 29.6156 34.8792 29.1972 34.8683C28.7975 34.8591 28.3877 34.7901 27.9914 34.7229C27.5799 34.654 27.1912 34.5884 26.8066 34.5817C26.7889 34.5817 26.772 34.5817 26.7559 34.5817C26.6114 34.5817 26.4905 34.5918 26.3815 34.6019C26.1998 34.6178 26.0434 34.6313 25.8093 34.5968C24.5672 34.4127 23.1905 33.5747 22.5373 32.6039C22.5196 32.5779 22.4968 32.556 22.4698 32.54C22.3186 32.4509 22.2891 32.3778 22.2301 32.2307C22.2115 32.1845 22.1921 32.1366 22.1685 32.0862C22.1373 32.0198 22.0791 31.9609 21.9794 31.8634C21.9507 31.8348 21.9094 31.7945 21.8781 31.7609C21.9069 31.7054 21.934 31.6197 21.891 31.5222C21.8624 31.4583 21.8058 31.4011 21.691 31.2885C21.6192 31.2187 21.5213 31.1229 21.4875 31.0708C21.4276 30.9783 21.3593 30.8312 21.2994 30.701C21.2708 30.6396 21.2429 30.5799 21.2176 30.5278C21.1527 30.3959 21.0827 30.2647 21.0152 30.1378C20.8853 29.8932 20.7512 29.6411 20.6509 29.3822C20.6087 29.2737 20.5776 29.1754 20.5472 29.0804C20.4874 28.893 20.4301 28.7148 20.3087 28.5072C20.2757 28.4509 20.2168 28.2475 20.1806 28.1256C20.1562 28.0424 20.1343 27.9659 20.1149 27.9112C19.8115 27.0262 19.7687 25.9705 19.9838 24.6828C20.0161 24.4886 19.996 24.302 19.9776 24.1364C19.9617 23.9919 19.9475 23.8548 19.9679 23.7313C20.0136 23.6985 20.0719 23.6405 20.0898 23.543C20.1144 23.4127 20.1222 23.2799 20.1299 23.1522C20.1376 23.0227 20.1445 22.8992 20.1683 22.7773C20.2478 22.7277 20.269 22.6571 20.2741 22.6142C20.2835 22.5386 20.2616 22.4739 20.2456 22.426C20.2414 22.4133 20.2355 22.3957 20.233 22.3864C20.238 22.3764 20.2465 22.3629 20.2524 22.3528C20.2787 22.3091 20.3117 22.2545 20.3303 22.1864C20.433 21.8073 20.5406 21.5367 20.7142 21.2198C20.8039 21.0567 20.8506 20.908 20.8964 20.7642C20.954 20.5835 21.004 20.4272 21.1335 20.2591C21.142 20.254 21.1504 20.249 21.1597 20.2439C21.2223 20.2078 21.3272 20.1473 21.3298 20.0161C21.3307 19.9682 21.3173 19.9304 21.2995 19.9018L21.2953 19.9002Z" fill="#1A1A1A"/>
<path d="M24.592 23.9177C24.592 23.9539 24.5818 23.9799 24.5674 24.0203C24.5369 24.1043 24.4903 24.2313 24.5721 24.4019C24.5906 24.4397 24.6151 24.4666 24.6387 24.4868C24.6462 24.6087 24.6242 24.6793 24.5928 24.7801C24.5742 24.8406 24.5521 24.9096 24.536 24.9945C24.4935 25.213 24.5103 26.0989 24.5735 26.3032C24.6139 26.4326 25.0409 27.1345 25.1699 27.3463C25.2062 27.4059 25.2535 27.4404 25.2848 27.4623C25.2898 27.4656 25.2941 27.469 25.2991 27.4723C25.3194 27.5093 25.3404 27.5892 25.3564 27.648C25.3884 27.7649 25.4128 27.8581 25.4795 27.922C25.5327 27.9733 25.6071 27.9994 25.7194 28.0397C25.7879 28.0641 25.8909 28.1011 25.9298 28.1271C25.9728 28.1565 26.0564 28.2616 26.1071 28.3238C26.1847 28.4205 26.2244 28.4684 26.2751 28.5003C26.6433 28.734 27.5834 29.2114 28.0854 29.2576C28.153 29.2635 28.2139 29.2509 28.268 29.2391C28.3043 29.2316 28.3407 29.2232 28.3643 29.2257C28.7708 29.2635 29.1807 29.2929 29.5838 29.2929C30.7214 29.2929 31.8017 29.0551 32.5845 28.0809C32.6175 28.0397 33.3969 27.0664 33.5165 26.5873C33.5335 26.52 33.5276 26.4553 33.5235 26.404C33.5235 26.4007 33.5235 26.3973 33.5226 26.3939C33.5328 26.3864 33.5446 26.378 33.5556 26.3687C33.6605 26.2897 33.7036 26.2578 33.7324 26.2031C33.7595 26.1519 33.7748 26.0846 33.802 25.9611C33.8164 25.8947 33.8342 25.8123 33.8478 25.7762C33.9639 25.4668 33.987 25.1979 34.0101 24.9373C34.0229 24.7944 34.0357 24.6473 34.0638 24.4885C34.091 24.3363 34.0599 24.1901 34.0296 24.048C34.0128 23.969 33.9968 23.8942 33.9918 23.8219C33.9868 23.7572 33.9971 23.6202 34.0056 23.4992C34.0185 23.3176 34.0305 23.1453 34.0137 23.0386C33.9936 22.9099 33.7415 22.2829 33.6943 22.1871C33.626 22.0476 33.5719 21.9879 33.5179 21.9349C33.4985 21.9156 33.4909 21.9089 33.4808 21.8912C33.4554 21.8492 33.4403 21.8173 33.4242 21.7828C33.3745 21.6752 33.3273 21.5895 33.1727 21.4575C33.106 21.4004 33.0258 21.3289 32.9371 21.2499C32.4272 20.7952 31.9762 20.4094 31.6282 20.3001C30.9979 20.1017 29.9653 19.8857 29.2115 19.8563C28.5701 19.8302 27.6697 20.1194 27.4093 20.2085C27.3214 20.2387 27.2588 20.2959 27.2131 20.3371C27.1996 20.3489 27.1801 20.3665 27.1708 20.3741C27.1454 20.3808 27.1091 20.3816 27.0685 20.3825C27.0094 20.3842 26.935 20.3858 26.8555 20.4069C26.6121 20.4716 25.9635 20.7859 25.7579 21.0129C25.7088 21.0675 25.6851 21.1272 25.6673 21.1717C25.6631 21.1726 25.6589 21.1734 25.6546 21.1743C25.5802 21.1911 25.4687 21.2163 25.3773 21.3113C25.302 21.3886 25.2647 21.4953 25.2325 21.5895C25.2206 21.6231 25.2037 21.6719 25.1927 21.6929C25.1876 21.6962 25.1817 21.6996 25.1757 21.703C25.1191 21.7374 25.0244 21.7954 24.9642 21.9274C24.9159 22.035 24.904 22.1484 24.8937 22.2485C24.8878 22.3056 24.8826 22.3594 24.8716 22.3955C24.8462 22.4788 24.8021 22.5922 24.7555 22.7116C24.6394 23.0083 24.5081 23.3445 24.5104 23.5992C24.5103 23.6723 24.5356 23.7311 24.5566 23.7841C24.576 23.832 24.5921 23.8698 24.5912 23.9169L24.592 23.9177Z" fill="#1A1A1A"/>
</g>
<defs>
<clipPath id="clip0_544_6894">
<rect width="60.4691" height="45.1163" fill="white" transform="matrix(1 0 -0.00102638 0.999999 0.046875 0.820312)"/>
</clipPath>
</defs>
</svg>
