<svg width="27" height="15" viewBox="0 0 27 15" fill="none" xmlns="http://www.w3.org/2000/svg">
<path d="M26.6158 8.42273C26.5097 8.29483 26.3546 8.26955 26.2516 8.2527C26.2179 8.24734 26.1888 8.25347 26.1677 8.25806C26.1624 8.25921 26.1555 8.26074 26.1517 8.26151C26.1272 8.25385 26.0605 8.23087 26.0199 8.21632C26.0199 8.21517 26.0199 8.21402 26.0199 8.21287C26.0176 8.18913 26.015 8.16232 26.0027 8.1359C25.9881 8.10488 25.9648 8.08841 25.9518 8.07999C25.9453 8.0685 25.9407 8.05892 25.9364 8.04973C25.9024 7.97467 25.8648 7.95438 25.763 7.92719L25.7132 7.91417C25.393 7.82992 25.285 7.80158 25.069 7.52853C24.9404 7.36577 24.8102 7.16357 24.7125 6.97363C24.6838 6.91772 24.6715 6.88325 24.6604 6.85261C24.6313 6.77104 24.6095 6.73045 24.4927 6.62858C24.4448 6.58646 24.4326 6.53553 24.4196 6.48191C24.4096 6.44017 24.3989 6.3969 24.3702 6.3609C24.3575 6.3452 24.3487 6.33869 24.2491 6.27205C24.2017 6.24027 24.13 6.1924 24.114 6.17861C23.9987 6.08019 23.8907 5.9362 23.7953 5.80982L23.7796 5.78914C23.723 5.7137 23.6816 5.60686 23.6414 5.50346C23.6085 5.41806 23.5771 5.33764 23.5365 5.26986C23.4963 5.20246 23.4576 5.13314 23.42 5.06574C23.3534 4.94588 23.2841 4.8218 23.2029 4.70385C23.1344 4.60428 23.0482 4.51888 22.9647 4.43616C22.9314 4.40323 22.8977 4.36991 22.8651 4.33544C22.8253 4.29332 22.8077 4.24545 22.7874 4.18992C22.7713 4.14626 22.7548 4.10146 22.7265 4.0578C22.6932 4.00648 22.6446 3.96436 22.5978 3.92377C22.5622 3.89313 22.5255 3.86096 22.509 3.8353C22.4941 3.81233 22.486 3.78246 22.4776 3.75067C22.468 3.71544 22.4569 3.67523 22.4347 3.63808C22.3746 3.53698 22.2765 3.45005 22.19 3.37346C22.1306 3.32061 22.0747 3.27121 22.0422 3.22717C22.036 3.21913 22.0311 3.20572 22.0257 3.19079C22.0177 3.16934 22.0077 3.14254 21.9889 3.1165C21.9633 3.08088 21.9204 3.04488 21.8748 3.00697C21.8419 2.9794 21.781 2.92846 21.771 2.90855C21.7695 2.90434 21.7695 2.89055 21.7695 2.88136C21.7695 2.85723 21.7695 2.82392 21.7519 2.79213C21.7339 2.75881 21.699 2.7278 21.6389 2.67571C21.6117 2.65235 21.5642 2.61099 21.5455 2.58878C21.5455 2.58687 21.5455 2.58495 21.5455 2.58304C21.5455 2.55929 21.5455 2.52368 21.5305 2.48615C21.511 2.43675 21.4628 2.38199 21.4114 2.32378C21.3846 2.29352 21.3402 2.24259 21.3326 2.22574C21.3191 2.19089 21.3172 2.17672 21.3153 2.16408C21.3077 2.112 21.2935 2.08634 21.2314 2.01052C21.192 1.96303 21.1514 1.91478 21.1104 1.86653C21.0538 1.79989 20.9952 1.73058 20.9435 1.66586L20.9339 1.65399C20.7953 1.48012 20.7535 1.42804 20.5509 1.27831C20.4843 1.22929 20.42 1.18065 20.3572 1.13317C20.0393 0.893436 19.7391 0.667109 19.322 0.505885C18.6863 0.260027 17.7944 0 17.1809 0C17.1733 0 17.1656 0 17.1579 0C16.6023 0.00612729 15.8203 0.0405933 15.2497 0.171181C15.2026 0.181904 15.167 0.204116 15.1409 0.220583C15.1306 0.227093 15.1168 0.235901 15.1114 0.23705C15.0839 0.243943 15.0482 0.247007 15.0099 0.250453C14.9487 0.256198 14.8794 0.262708 14.8162 0.286068C14.6419 0.350405 14.4252 0.517756 14.2513 0.651791C14.2084 0.684725 14.1686 0.715745 14.133 0.742169C14.0365 0.813781 13.9289 0.877735 13.8243 0.940157C13.701 1.01368 13.5739 1.08951 13.462 1.17874C13.3977 1.23005 13.3548 1.24537 13.3054 1.26337C13.269 1.27639 13.2277 1.29094 13.1802 1.31928C13.14 1.34303 13.1166 1.37673 13.0979 1.40392C13.0856 1.42192 13.0749 1.43723 13.063 1.44451C12.9213 1.5345 12.662 1.60995 12.4537 1.67084C12.3936 1.68845 12.3369 1.70492 12.2875 1.72062C12.2462 1.73364 12.214 1.74819 12.186 1.76083C12.1405 1.78113 12.1075 1.79606 12.044 1.80104C11.8555 1.81598 11.7655 1.76849 11.6162 1.68998C11.584 1.67313 11.5499 1.65514 11.5124 1.63675L11.4584 1.60995C11.3202 1.54216 11.0628 1.41655 10.9755 1.32733C10.7419 1.09028 10.578 0.999515 10.3061 0.849396L10.2571 0.822206C9.77532 0.554903 8.8727 0.107611 8.2324 0.107611H8.22857C8.08572 0.107994 7.73608 0.124461 7.57678 0.160459C7.07472 0.273813 6.73198 0.517756 6.34136 0.875054C6.27702 0.933647 6.22149 1.00794 6.16788 1.07955C6.11963 1.14389 6.06984 1.21052 6.03231 1.23656C5.85577 1.36026 5.70718 1.53182 5.56396 1.69803C5.48852 1.78572 5.4169 1.86844 5.34146 1.94465C5.33802 1.94656 5.33112 1.95001 5.32576 1.95231C5.29819 1.96533 5.25645 1.98486 5.22198 2.0289C5.18751 2.07294 5.16913 2.12694 5.14998 2.184C5.13007 2.24297 5.10977 2.30425 5.0711 2.34752C5.06382 2.35556 5.04582 2.36782 5.02974 2.37892C4.99527 2.40228 4.952 2.43139 4.92251 2.47658C4.89264 2.52253 4.87081 2.58189 4.84975 2.63933C4.83175 2.68873 4.81298 2.73967 4.79422 2.76647C4.78235 2.78371 4.75631 2.80745 4.72873 2.83273C4.6732 2.88366 4.60389 2.94723 4.55449 3.03684C4.50892 3.11918 4.49781 3.18619 4.48977 3.23559C4.48632 3.25666 4.48326 3.27504 4.47866 3.285C4.46564 3.31525 4.42658 3.36312 4.3925 3.40486C4.35497 3.45082 4.31974 3.49447 4.29791 3.53621C4.26842 3.59251 4.25234 3.64153 4.23817 3.6848C4.21864 3.74454 4.20179 3.79624 4.15085 3.86747C4.06545 3.98734 4.02103 4.09188 3.97393 4.20256C3.9544 4.2489 3.9341 4.29638 3.90997 4.3477C3.88814 4.39365 3.8533 4.43884 3.81577 4.48633C3.78819 4.52194 3.75947 4.55871 3.73458 4.59815C3.6959 4.65981 3.65531 4.73142 3.61203 4.80763C3.53314 4.94702 3.45196 5.09063 3.37766 5.17871C3.36081 5.19901 3.3455 5.21624 3.33171 5.23233C3.25512 5.32156 3.21644 5.36636 3.14483 5.51112C3.12108 5.55975 3.09657 5.59805 3.07321 5.63558C3.05445 5.66545 3.0353 5.69609 3.0173 5.72979C2.99624 5.77038 2.99011 5.81136 2.98475 5.84774C2.98169 5.8688 2.97862 5.88833 2.97365 5.90058C2.9499 5.95841 2.84344 6.09742 2.77298 6.18933C2.73162 6.24333 2.696 6.28967 2.67226 6.32452C2.6018 6.42715 2.53363 6.48306 2.43904 6.56042L2.41453 6.58033C2.3636 6.62246 2.30309 6.70556 2.23875 6.79325C2.19893 6.84802 2.15795 6.90431 2.12923 6.93648C2.12693 6.9384 2.11851 6.94222 2.11276 6.94491C2.09246 6.95448 2.06451 6.96712 2.03923 6.99392C2.00592 7.02954 1.9749 7.08813 1.94464 7.14443C1.93086 7.17008 1.91056 7.20838 1.90175 7.22025C1.89256 7.226 1.86882 7.23634 1.85388 7.24246C1.8152 7.25893 1.77499 7.27578 1.74666 7.30412C1.72444 7.32633 1.70453 7.35926 1.67389 7.41096C1.65168 7.44849 1.62411 7.49521 1.60343 7.51857C1.45369 7.68899 1.31238 7.85021 1.14963 8.00914C1.12091 8.03748 1.09793 8.0662 1.07763 8.09186C1.03474 8.14586 1.0041 8.18453 0.929045 8.21287C0.896493 8.22513 0.841731 8.2347 0.788883 8.24389C0.678975 8.26304 0.56562 8.28257 0.490177 8.34193C0.436946 8.38405 0.312486 8.60157 0.336229 8.70267C0.382184 8.89683 0.771267 9.03355 0.915641 9.02857C0.949341 9.02742 0.989169 9.01861 1.03091 9.00942C1.06116 9.00291 1.11248 8.99181 1.12474 8.99219C1.17184 9.00329 1.25685 9.07261 1.31889 9.12316C1.36447 9.16031 1.40736 9.19515 1.4468 9.21966C1.50769 9.25758 1.5613 9.284 1.60879 9.30698C1.68845 9.34604 1.75163 9.37668 1.83167 9.45174C1.94388 9.55705 1.96149 9.5919 1.96149 9.5919C1.96915 9.61258 1.98179 9.67002 1.9929 9.72019C2.02468 9.86456 2.04038 9.92698 2.0691 9.96413C2.08978 9.99132 2.24488 10.102 2.24641 10.1028C2.2805 10.1269 2.30118 10.1376 2.31917 10.1464C2.32147 10.1476 2.32339 10.1483 2.323 10.1479C2.32722 10.1514 2.33871 10.1644 2.37087 10.2077C2.39232 10.2364 2.4153 10.267 2.43827 10.2988C2.51372 10.4011 2.59912 10.5167 2.67954 10.6109C2.71132 10.6481 2.75345 10.6776 2.79059 10.7036C2.80936 10.7166 2.8354 10.7346 2.84268 10.7434C2.84727 10.7488 2.8534 10.7626 2.85953 10.7756C2.8714 10.8024 2.88825 10.8396 2.92003 10.8737C2.95029 10.9062 2.99318 10.9299 3.03415 10.9529C3.04985 10.9617 3.07245 10.9744 3.08202 10.9813C3.08394 10.9855 3.08662 10.9931 3.08853 10.9989C3.09811 11.0264 3.11266 11.0686 3.15095 11.1069C3.17776 11.1333 3.20725 11.1478 3.23099 11.1593C3.24248 11.1651 3.25665 11.172 3.26086 11.1762C3.34818 11.2685 3.44583 11.4044 3.53238 11.5247C3.56302 11.5676 3.59289 11.6085 3.62046 11.6461C3.67867 11.7242 3.75717 11.8042 3.83377 11.8816C3.90385 11.9528 3.97048 12.0202 4.01452 12.0796C4.0509 12.1286 4.0712 12.16 4.08766 12.1853C4.12902 12.2492 4.15047 12.2795 4.26727 12.3859C4.32969 12.443 4.37526 12.5073 4.42313 12.5755C4.47713 12.6521 4.53266 12.731 4.61691 12.8083C4.68048 12.8666 4.75592 12.9244 4.82868 12.9803C4.88957 13.027 4.94663 13.0707 4.99527 13.1132C5.01901 13.1339 5.05424 13.1722 5.08833 13.2097C5.14194 13.2683 5.19249 13.3234 5.23385 13.351C5.27023 13.3755 5.31351 13.3954 5.35984 13.4169C5.41959 13.4444 5.48737 13.4755 5.52183 13.5099C5.52413 13.513 5.52834 13.5229 5.53141 13.5298C5.54251 13.5551 5.55822 13.5892 5.59 13.6183C5.63557 13.6597 5.68842 13.6715 5.72672 13.6803C5.73552 13.6822 5.7474 13.6849 5.75276 13.6868C5.94385 13.8236 6.13954 13.9109 6.3471 14.0032C6.40914 14.0307 6.47233 14.0591 6.53667 14.0889C6.54011 14.0909 6.5493 14.0993 6.55581 14.1046C6.5719 14.1192 6.59181 14.1372 6.61977 14.151C6.65079 14.1659 6.6841 14.172 6.71091 14.1766C6.71857 14.1782 6.72853 14.1797 6.73542 14.1812C6.73695 14.1847 6.73849 14.1885 6.74002 14.1916C6.75419 14.2237 6.77755 14.2774 6.83844 14.3042C6.87329 14.3195 6.90699 14.3214 6.9315 14.3226C6.94069 14.3229 6.95332 14.3237 6.95677 14.3248C6.96175 14.3271 6.974 14.3398 6.98204 14.3478C7.00196 14.3681 7.02647 14.3934 7.06247 14.4095C7.15706 14.4524 7.25509 14.4734 7.34968 14.4937C7.41479 14.5079 7.47644 14.5209 7.52929 14.5401C7.54154 14.5447 7.56261 14.56 7.57946 14.5726C7.60856 14.5944 7.63843 14.6167 7.67481 14.6262C7.71043 14.6354 7.74336 14.6366 7.77247 14.6373C7.8008 14.6381 7.82531 14.6389 7.85097 14.6469C7.87357 14.6538 7.90267 14.671 7.93292 14.689C7.9739 14.7135 8.02062 14.7411 8.07347 14.7568C8.20482 14.7955 8.37141 14.8196 8.53263 14.8426C8.64063 14.8579 8.74288 14.8725 8.83096 14.8909C8.88763 14.9027 8.94086 14.915 8.99218 14.9269C9.15302 14.9644 9.30544 15 9.50266 15C9.51836 15 9.53445 15 9.55091 14.9992C9.61525 14.9973 9.68227 14.9786 9.74699 14.9602C9.79332 14.9472 9.84119 14.9337 9.87298 14.9318L9.92353 14.9288C10.1315 14.9165 10.2954 14.9066 10.5186 14.8315C10.5841 14.8093 10.6408 14.7802 10.6956 14.7518C10.7542 14.7216 10.8097 14.6929 10.871 14.6756C10.9629 14.65 11.0578 14.6442 11.1501 14.6385C11.234 14.6335 11.3206 14.6281 11.4052 14.6082C11.4699 14.5929 11.5273 14.563 11.5825 14.5343C11.6369 14.506 11.6878 14.4792 11.7376 14.4715C11.7916 14.4631 11.8479 14.4627 11.9069 14.4623C11.985 14.4616 12.0662 14.4612 12.155 14.4428C12.2722 14.4191 12.3779 14.3869 12.4805 14.3563C12.6452 14.3069 12.8007 14.2597 12.9925 14.2479C13.302 14.2283 13.6508 14.2119 13.7098 14.2176C13.7217 14.2218 13.7424 14.2337 13.7592 14.2437C13.7902 14.2617 13.8251 14.2823 13.8653 14.2938C14.0878 14.3585 14.321 14.3923 14.5466 14.4248C14.6588 14.4409 14.7748 14.4577 14.8874 14.478C14.8939 14.4792 14.9062 14.4857 14.9169 14.4914C14.9368 14.5022 14.9617 14.5152 14.9923 14.5205C15.0498 14.5305 15.1099 14.5232 15.1627 14.5167C15.1899 14.5133 15.2267 14.5087 15.2405 14.511C15.3121 14.5236 15.3745 14.5359 15.4327 14.5477C15.6001 14.581 15.7445 14.6098 15.98 14.6159L16.0493 14.6174C16.2247 14.6213 16.3633 14.6243 16.5322 14.6737C16.5356 14.676 16.5425 14.6814 16.5479 14.6856C16.5743 14.7067 16.6145 14.7384 16.6754 14.7411C16.7359 14.7438 16.8175 14.7293 16.9037 14.7139C16.9703 14.7021 17.0388 14.6898 17.0879 14.6879C17.1204 14.6864 17.1541 14.6921 17.1871 14.6971C17.2204 14.7024 17.2545 14.7074 17.2889 14.707C17.4815 14.7024 17.6799 14.6431 17.8714 14.5853C18.0024 14.5458 18.1264 14.5087 18.2436 14.4895C18.4994 14.4485 18.7461 14.3942 18.9536 14.3463C19.0743 14.3187 19.1922 14.2693 19.3059 14.2218C19.3733 14.1939 19.4369 14.1671 19.5001 14.1452L19.5928 14.1131C19.9945 13.9737 20.2848 13.873 20.6513 13.6045C20.8324 13.4716 21.0166 13.3579 21.1947 13.248C21.3111 13.176 21.4314 13.1017 21.5512 13.022C21.7864 12.8654 22.0376 12.6368 22.319 12.3224L22.347 12.2914C22.5243 12.0934 22.6917 11.9065 22.8954 11.7311C23.1547 11.5082 23.4105 11.2765 23.6582 11.0525C23.7938 10.9296 23.9294 10.807 24.0661 10.6849C24.1557 10.6048 24.2453 10.5232 24.3353 10.4417C24.652 10.1537 24.9794 9.85575 25.3287 9.61104C25.5079 9.48544 25.9131 9.2503 26.1245 9.1358C26.1597 9.11665 26.224 9.09482 26.2861 9.07376C26.3956 9.03661 26.4986 9.00176 26.5572 8.95083C26.5622 8.94662 26.6687 8.8233 26.6813 8.78807C26.7284 8.65633 26.7058 8.53341 26.6135 8.42197L26.6158 8.42273ZM4.7609 11.6867C4.75669 11.6775 4.75209 11.6579 4.74903 11.6461C4.7406 11.6128 4.73141 11.5752 4.70652 11.5442C4.67971 11.5109 4.63912 11.4937 4.60274 11.4783C4.59738 11.476 4.59049 11.473 4.58436 11.4707C4.58359 11.4684 4.58283 11.4657 4.58206 11.463C4.5744 11.4404 4.56406 11.4098 4.54185 11.3834C4.49628 11.3294 4.44726 11.2773 4.39939 11.2271C4.35956 11.185 4.32165 11.1452 4.28642 11.1046C4.07541 10.8622 3.85827 10.6381 3.65416 10.4294C3.57757 10.3509 3.52127 10.2739 3.46153 10.192C3.41941 10.1342 3.37613 10.0748 3.32328 10.0116C3.27044 9.94881 3.24593 9.91128 3.19959 9.83967C3.15057 9.76384 3.08355 9.70832 3.0242 9.65891C2.97135 9.61526 2.92156 9.5739 2.89208 9.52603C2.86335 9.47893 2.83693 9.42914 2.81127 9.3805C2.76647 9.29549 2.7209 9.20856 2.65732 9.12852C2.678 9.12507 2.69639 9.11895 2.71209 9.11397C2.72166 9.1109 2.73583 9.10631 2.74081 9.10593C2.93765 9.0975 3.14368 9.10861 3.3432 9.11933C3.60093 9.13312 3.86708 9.14767 4.12175 9.12086C4.242 9.10822 4.36492 9.07605 4.48364 9.04504C4.59776 9.01517 4.70537 8.98721 4.80532 8.97687C5.32385 8.92287 5.68229 8.82139 6.16137 8.65289C6.28009 8.61115 6.35476 8.59966 6.45816 8.58396C6.49339 8.5786 6.53092 8.57285 6.57343 8.56519C6.76261 8.53187 6.93532 8.47596 7.10229 8.42197C7.17888 8.39707 7.25816 8.37142 7.33896 8.34806C7.38338 8.33504 7.44734 8.32163 7.51474 8.30746C7.64418 8.28027 7.77783 8.25193 7.86169 8.21172C7.89156 8.19755 7.9088 8.17534 7.91914 8.15811C7.97811 8.14585 8.08611 8.14126 8.18299 8.13705C8.30171 8.13169 8.42426 8.12671 8.50698 8.10756C8.62761 8.0796 8.75398 8.0459 8.87576 8.01335C9.18174 7.9314 9.49806 7.84677 9.79447 7.8349C9.84234 7.83298 9.89672 7.81575 9.95417 7.79775C10.0043 7.78205 10.056 7.76558 10.0939 7.76252C10.1407 7.75869 10.1866 7.76481 10.2353 7.77171C10.277 7.77745 10.3199 7.78358 10.3639 7.78243C10.4968 7.77937 10.6331 7.77094 10.7649 7.76328C10.8939 7.75562 11.0276 7.74758 11.1543 7.74452C11.2604 7.74222 11.3523 7.75218 11.45 7.76252C11.5224 7.77018 11.597 7.7786 11.6801 7.78166C12.0018 7.7943 12.2979 7.80043 12.5843 7.80005C12.6781 7.80005 12.7731 7.7989 12.8685 7.79737C13.0879 7.79468 13.315 7.79162 13.531 7.80349C13.5428 7.80426 13.5647 7.81383 13.5842 7.82188C13.6187 7.83681 13.6577 7.85366 13.7033 7.85481C13.7504 7.85519 13.7964 7.84523 13.8412 7.8349C13.8837 7.82494 13.9235 7.81575 13.9584 7.81728C13.9825 7.81843 14.0116 7.828 14.0422 7.83834C14.0713 7.84792 14.1012 7.85826 14.133 7.86285C14.2463 7.8797 14.3628 7.89272 14.4757 7.90536C14.6875 7.9291 14.9062 7.95361 15.1126 8.0034C15.1321 8.00799 15.1547 8.01948 15.1788 8.03135C15.2121 8.04782 15.2493 8.0662 15.291 8.07271C15.3883 8.08803 15.5009 8.08765 15.6104 8.08688C15.6977 8.08611 15.7877 8.08573 15.8632 8.09416C16.0968 8.11943 16.3304 8.13169 16.5556 8.13092C17.2958 8.12862 17.9648 8.24542 18.6733 8.3695C18.9586 8.41967 19.2535 8.47099 19.5545 8.51464C19.7211 8.53877 19.8735 8.5403 20.0205 8.54221C20.1262 8.54336 20.2258 8.54451 20.3288 8.55332C20.374 8.55715 20.4341 8.57132 20.492 8.58511C20.5632 8.60196 20.6371 8.61957 20.7034 8.62379C20.7424 8.62608 20.7838 8.62034 20.8236 8.61498C20.8581 8.61038 20.8941 8.60502 20.9201 8.60732C21.0331 8.61536 21.1606 8.64791 21.2954 8.68238C21.4417 8.71952 21.593 8.7582 21.7343 8.76624C21.8013 8.77007 21.8771 8.76203 21.9499 8.75476C22.0073 8.74863 22.0625 8.74327 22.1057 8.74365C22.2777 8.74671 22.4581 8.77352 22.6323 8.79918C22.746 8.81603 22.864 8.83364 22.9793 8.84437C23.1704 8.86237 23.3618 8.85471 23.5472 8.84705C23.6678 8.84207 23.793 8.83709 23.9148 8.83939C23.9539 8.84015 23.9972 8.85088 24.0389 8.86122C24.0852 8.87271 24.1331 8.88458 24.181 8.88458C24.23 8.88458 24.2706 8.87079 24.3035 8.85968C24.3269 8.85164 24.3476 8.84475 24.3648 8.84475C24.3993 8.8436 24.4464 8.85356 24.4935 8.8616C24.5425 8.87041 24.5934 8.87922 24.6386 8.88113C24.675 8.88228 24.7194 8.8773 24.7665 8.87156C24.8037 8.86696 24.85 8.8616 24.8703 8.86351C24.8979 8.86581 24.9293 8.87271 24.9622 8.88113C24.8718 8.92364 24.6781 9.03355 24.6011 9.10095C24.5628 9.13465 24.5275 9.17869 24.4904 9.22541C24.4567 9.26792 24.4219 9.31196 24.3889 9.34068C24.328 9.39391 24.2365 9.45212 24.148 9.50841C24.0596 9.56471 23.9757 9.61794 23.9156 9.67002C23.8811 9.69951 23.867 9.73474 23.857 9.75772C23.8558 9.7604 23.8547 9.76346 23.8535 9.76614C23.7505 9.84733 23.6582 9.94307 23.5686 10.0354C23.4737 10.1334 23.384 10.2261 23.2864 10.2988C23.2768 10.3061 23.2558 10.3142 23.2366 10.321C23.1968 10.336 23.1474 10.3547 23.1129 10.3961C23.0796 10.4359 23.0585 10.4738 23.0379 10.5106C23.0084 10.5635 22.9831 10.609 22.9199 10.6619C22.9 10.6783 22.8402 10.7109 22.8008 10.732C22.7326 10.7687 22.7104 10.7814 22.6928 10.802C22.6649 10.8354 22.6534 10.8729 22.6438 10.9062C22.6338 10.9399 22.6269 10.9613 22.6105 10.9759C22.5952 10.9893 22.5595 11.0062 22.5285 11.0211C22.4841 11.0422 22.4385 11.064 22.4018 11.095C22.3596 11.1306 22.3194 11.1835 22.2804 11.2344C22.2482 11.2765 22.2149 11.3206 22.1892 11.3424C22.1628 11.365 22.1119 11.386 22.0671 11.4048C22.0138 11.427 21.9637 11.4481 21.925 11.4795C21.8779 11.5178 21.8538 11.5775 21.8304 11.6353C21.8162 11.6706 21.8001 11.7104 21.7841 11.7288C21.5424 12.0038 21.1518 12.379 20.8726 12.564C20.8286 12.5931 20.7742 12.6138 20.7168 12.6352C20.6248 12.6701 20.5203 12.7092 20.4234 12.7949C20.2101 12.9837 19.9294 13.2143 19.6529 13.3184C19.5997 13.3384 19.5342 13.351 19.4649 13.364C19.3948 13.377 19.3228 13.3908 19.2554 13.4138C18.6473 13.624 18.1839 13.7661 17.616 13.8699C17.1982 13.9465 17.0017 13.9553 16.5885 13.8619C16.4552 13.8316 16.3698 13.8343 16.2798 13.8366C16.2358 13.8377 16.1906 13.8393 16.1339 13.8373C16.0497 13.8343 15.9532 13.817 15.8597 13.8002C15.7598 13.7822 15.6568 13.7634 15.5637 13.7619C15.5193 13.7608 15.4791 13.768 15.4435 13.7738C15.4044 13.7803 15.3703 13.786 15.3381 13.7814C15.3079 13.7768 15.2589 13.7592 15.2114 13.742C15.1601 13.7236 15.1072 13.7045 15.0609 13.6957C14.8575 13.657 14.6515 13.6221 14.4524 13.588C14.3578 13.572 14.2628 13.5559 14.1678 13.5394C13.4092 13.4073 12.9565 13.4682 12.1669 13.6654C12.0244 13.701 11.8835 13.7251 11.7341 13.7508C11.5756 13.778 11.4117 13.8063 11.247 13.8488C11.1337 13.8783 11.0487 13.891 10.9587 13.9044C10.8962 13.9136 10.8319 13.9231 10.7553 13.9384C10.6178 13.966 10.4869 14.0158 10.3605 14.0637C10.2146 14.1192 10.0637 14.1766 9.90208 14.1996C9.60797 14.2417 9.04809 14.1686 8.76432 14.1127C8.59927 14.0801 8.44915 14.0181 8.29022 13.9522C8.18874 13.9101 8.08381 13.8668 7.97467 13.8316C7.91607 13.8128 7.87395 13.8067 7.83987 13.8017C7.79468 13.7952 7.76442 13.7906 7.70085 13.7565C7.61967 13.7129 7.53886 13.6845 7.46074 13.657C7.40253 13.6363 7.34738 13.6171 7.29224 13.5919C7.21335 13.5559 7.12948 13.503 7.04102 13.4471C6.92881 13.3763 6.81278 13.3031 6.69713 13.2595C6.65998 13.2453 6.62436 13.2403 6.59258 13.2353C6.56998 13.2319 6.54394 13.2281 6.5336 13.2223C6.52939 13.2181 6.52441 13.199 6.52212 13.1898C6.51522 13.1637 6.50603 13.1281 6.47118 13.1036C6.44246 13.0837 6.41221 13.0822 6.39229 13.0814C6.39076 13.0814 6.38923 13.0814 6.38731 13.0814C6.20962 12.9753 5.65893 12.6356 5.37784 12.3411C5.35908 12.3212 5.33725 12.299 5.31351 12.2745C5.21356 12.1711 5.07646 12.0294 5.00906 11.9375C4.99833 11.9229 4.98838 11.8996 4.97842 11.8766C4.96425 11.8437 4.94932 11.8096 4.92557 11.7816C4.88651 11.7353 4.8306 11.7135 4.78962 11.6974C4.78043 11.6939 4.76703 11.6893 4.7609 11.6867ZM4.79422 4.49782C4.80992 4.47254 4.84936 4.41816 4.87694 4.38063C4.9183 4.32396 4.95697 4.27072 4.9788 4.23434C5.0845 4.05742 5.18866 3.87398 5.28057 3.70395C5.30853 3.65187 5.33189 3.60247 5.35487 3.55498C5.40848 3.44277 5.45443 3.3455 5.54405 3.24479C5.55056 3.23789 5.57468 3.21989 5.59038 3.20764C5.63634 3.17279 5.66506 3.1502 5.68306 3.12262C5.70182 3.09352 5.70336 3.06326 5.70106 3.0399C5.71638 3.03301 5.73284 3.02229 5.7474 3.00544C5.77344 2.97518 5.7922 2.92885 5.82016 2.85685C5.83165 2.82698 5.84926 2.78179 5.8573 2.76954C5.90019 2.70673 5.96032 2.63895 6.01815 2.57346C6.06908 2.51564 6.12193 2.4559 6.1629 2.3996C6.18971 2.36284 6.20694 2.32416 6.22188 2.28969C6.23337 2.26404 6.24409 2.23953 6.25481 2.22612C6.27166 2.20506 6.32451 2.17634 6.35936 2.15757C6.4011 2.13498 6.4371 2.11545 6.46161 2.08941C6.48305 2.06643 6.49569 2.04805 6.5068 2.03196C6.5202 2.01205 6.53207 1.99482 6.56615 1.96227C6.60522 1.92474 6.62819 1.89104 6.64849 1.86117C6.65768 1.84738 6.66726 1.83359 6.67836 1.81981C7.19459 1.1841 7.86093 0.828717 8.4614 0.869693C8.5962 0.878884 9.0186 1.0493 9.26982 1.16151C9.68495 1.34724 9.95493 1.53565 10.2804 1.79836C11.0513 2.42028 11.7736 2.64929 12.4893 2.4984C13.2575 2.33641 13.8733 1.91325 14.4688 1.50387C14.6358 1.38936 14.8081 1.27065 14.9812 1.15959C15.3902 0.897649 15.9294 0.840588 16.4924 0.801144C16.9328 0.770507 17.4318 0.735275 17.8706 0.849779C17.9166 0.861651 17.9671 0.874671 18.0211 0.888458C18.3976 0.984197 18.9663 1.12934 19.2248 1.3009C19.4109 1.4246 19.6047 1.5594 19.7915 1.6896L19.9359 1.78994C20.0749 1.88644 20.2541 2.09783 20.3353 2.26059C20.3629 2.31612 20.4066 2.35594 20.4449 2.39118C20.4694 2.41339 20.4923 2.43483 20.5035 2.45322C20.5211 2.48194 20.5417 2.53861 20.5597 2.58916C20.5843 2.65771 20.6076 2.72205 20.6379 2.76418C20.6915 2.83885 20.7535 2.91085 20.8133 2.98055C20.8508 3.0242 20.8899 3.06939 20.9251 3.11343C20.9534 3.14866 20.9906 3.21606 21.027 3.28117C21.0813 3.37882 21.1281 3.46307 21.1759 3.50749C21.2177 3.54617 21.2517 3.57451 21.2812 3.5994C21.3448 3.65263 21.3869 3.68748 21.457 3.78667C21.57 3.94598 21.681 4.1118 21.7887 4.27264C21.8863 4.41816 21.987 4.56905 22.0897 4.71534C22.1551 4.80878 22.226 4.89762 22.2945 4.98379C22.4412 5.16761 22.5795 5.34109 22.6721 5.55784C22.6752 5.56473 22.6779 5.58388 22.6798 5.59767C22.6844 5.63022 22.6894 5.66736 22.71 5.70068C22.7334 5.73859 22.7705 5.75276 22.7928 5.76119C22.7962 5.76234 22.8004 5.76425 22.8039 5.76578C22.8058 5.77344 22.8077 5.78646 22.8088 5.79565C22.8123 5.81902 22.8165 5.8485 22.8284 5.87799C22.918 6.09589 22.9613 6.15678 23.1064 6.32299C23.1301 6.35017 23.1508 6.3877 23.1711 6.42447C23.1941 6.46583 23.2155 6.50489 23.2443 6.53667C23.2738 6.56923 23.3082 6.58991 23.3389 6.60829C23.3691 6.62629 23.3951 6.64199 23.4147 6.66765C23.4235 6.67913 23.438 6.71283 23.4476 6.73505C23.466 6.77755 23.4794 6.80819 23.5028 6.83078C23.5322 6.85874 23.5671 6.87291 23.6004 6.88631C23.6441 6.90393 23.682 6.91925 23.713 6.96635C23.7781 7.06592 23.8367 7.17736 23.893 7.28535C23.942 7.37879 23.9926 7.4753 24.0481 7.56529C24.0921 7.63691 24.1193 7.68937 24.1503 7.74988C24.1672 7.78281 24.1852 7.81766 24.207 7.85787C24.2514 7.93906 24.3142 8.00531 24.3755 8.06926C24.3924 8.08688 24.4088 8.10411 24.4242 8.12096C24.3981 8.11713 24.3721 8.11216 24.3453 8.10718C24.2936 8.0976 24.24 8.08765 24.1856 8.08458C24.135 8.0819 24.0902 8.08841 24.0504 8.09454C24.0247 8.09837 23.9995 8.10182 23.9818 8.10143C23.9581 8.10067 23.9206 8.09109 23.8846 8.0819C23.8313 8.06812 23.7712 8.05318 23.7134 8.05433C23.6617 8.05586 23.6219 8.07539 23.5928 8.08956C23.5839 8.09377 23.5721 8.0999 23.5709 8.10067C23.4603 8.10411 23.2814 8.09148 23.1233 8.08075C23.0474 8.07539 22.975 8.07041 22.9153 8.06735C22.7663 8.06007 22.6132 8.0348 22.4653 8.01029C22.337 7.98923 22.2042 7.9674 22.0736 7.95668C21.9675 7.94825 21.861 7.95208 21.758 7.95591C21.596 7.96204 21.4432 7.9674 21.2954 7.92795C21.2629 7.91915 21.2292 7.90536 21.1932 7.89081C21.1342 7.86668 21.0675 7.83949 20.9913 7.82953C20.9285 7.82149 20.8554 7.82417 20.7849 7.82647C20.7317 7.82838 20.6815 7.8303 20.6409 7.82724C19.8398 7.77247 18.9839 7.66716 18.097 7.51398C18.0445 7.50479 17.9576 7.48258 17.8653 7.45883C17.6539 7.40445 17.5099 7.3696 17.4275 7.37305C17.2376 7.38109 17.12 7.36348 16.9577 7.33858C16.9102 7.33131 16.8596 7.32365 16.8029 7.31599C16.7198 7.30488 16.6325 7.31293 16.5475 7.32059C16.4977 7.32518 16.4506 7.32939 16.4066 7.32978C16.0608 7.33246 15.7655 7.30297 15.4239 7.2685L15.3297 7.25893C15.1436 7.24055 14.951 7.21527 14.7649 7.19115C14.5906 7.16855 14.4102 7.14481 14.2318 7.12643C14.1475 7.11762 14.0648 7.10307 13.9771 7.08775C13.8641 7.06783 13.7477 7.04715 13.6194 7.03796C13.2943 7.0146 13.001 7.0192 12.6904 7.02456L12.5644 7.02648C12.5138 7.02762 12.4422 7.01307 12.3721 6.99929C12.2845 6.98205 12.1937 6.96405 12.1202 6.96941C12.078 6.97248 12.0436 6.98933 12.016 7.00311C12.0034 7.00924 11.9877 7.01728 11.98 7.01843C11.8812 7.03413 11.7234 7.00848 11.5706 6.98358C11.445 6.96329 11.3263 6.94376 11.2248 6.94337C11.0578 6.94261 10.8786 6.94912 10.7055 6.95525C10.6312 6.95793 10.5573 6.96061 10.4857 6.96252C10.1843 6.97095 9.87451 7.0058 9.57466 7.03911C9.45939 7.05213 9.34488 7.06477 9.23191 7.07588C9.16145 7.08277 9.08562 7.1069 9.0186 7.12796C8.96959 7.14328 8.92325 7.15821 8.89031 7.16281C8.8838 7.16357 8.87806 7.16281 8.86542 7.16089C8.82981 7.15515 8.77045 7.14596 8.69271 7.20072C8.61191 7.25778 8.50047 7.27578 8.3829 7.29454C8.33924 7.30144 8.29405 7.30871 8.24963 7.31829C8.02943 7.36539 7.81612 7.39028 7.5898 7.41632L7.50555 7.42628C7.37687 7.4416 7.25739 7.5044 7.14174 7.56568C7.04408 7.61738 6.95141 7.66601 6.86907 7.67712C6.85299 7.67941 6.83537 7.67597 6.81278 7.67137C6.77525 7.6641 6.72853 7.65529 6.66994 7.66716C6.61977 7.6775 6.58071 7.70546 6.5493 7.72805C6.53743 7.73686 6.51905 7.74988 6.51254 7.75179C6.46888 7.76175 6.39995 7.76673 6.33332 7.77171C6.25443 7.77745 6.17975 7.78281 6.12882 7.79775C6.09627 7.80732 6.07176 7.82685 6.0484 7.846C6.03002 7.86094 6.01087 7.87625 5.99478 7.88047C5.9427 7.89387 5.8642 7.89617 5.7945 7.89808C5.73284 7.9 5.67961 7.90153 5.64093 7.91072C5.56894 7.92834 5.48507 7.97199 5.4035 8.01412C5.35257 8.04054 5.29972 8.06812 5.26525 8.07999C5.09063 8.14049 4.90719 8.16424 4.71303 8.18875C4.55066 8.20943 4.38292 8.23087 4.21978 8.27606C4.18838 8.28487 4.15966 8.30019 4.134 8.31359C4.11677 8.32278 4.09035 8.33657 4.08039 8.33772C4.06737 8.33887 4.03597 8.33006 4.0149 8.3247C3.97852 8.31474 3.94099 8.30516 3.90308 8.30708C3.85215 8.31014 3.81845 8.3381 3.80045 8.35303C3.79892 8.35418 3.79777 8.35533 3.79624 8.35648C3.72041 8.3741 3.67943 8.3672 3.61778 8.35648C3.58293 8.35074 3.54348 8.34384 3.4937 8.34078C3.30988 8.32967 3.05177 8.3358 2.86374 8.34001H2.84114C2.72511 8.34308 2.59912 8.35533 2.47734 8.3672C2.33871 8.38061 2.1951 8.39478 2.07485 8.39324C2.03349 8.39286 1.98907 8.38597 1.94273 8.37869C1.99481 8.29444 2.0063 8.28372 2.04651 8.24466C2.06604 8.22628 2.09055 8.20253 2.12578 8.16577L2.1771 8.11254C2.51027 7.76635 2.85493 7.40867 3.15593 7.04486C3.18236 7.01269 3.23214 6.9721 3.28001 6.93265C3.34664 6.87789 3.41519 6.82159 3.4554 6.763C3.48298 6.72317 3.49523 6.67837 3.50519 6.64237C3.51017 6.62437 3.51706 6.59948 3.52242 6.59182C3.55382 6.54663 3.59097 6.49876 3.62965 6.44783C3.69667 6.3609 3.7656 6.2709 3.81921 6.17976C3.83683 6.14951 3.84755 6.11887 3.85674 6.09206C3.86593 6.06602 3.87359 6.04343 3.88585 6.02696C3.9544 5.93429 4.00265 5.84084 4.04937 5.75008C4.07541 5.69915 4.1026 5.64669 4.13362 5.59345C4.14396 5.57584 4.17115 5.54558 4.19489 5.51916C4.22132 5.48967 4.24889 5.45942 4.27033 5.42878C4.30672 5.3767 4.34846 5.32079 4.39288 5.26143C4.5541 5.04544 4.73677 4.80112 4.79652 4.57096C4.80456 4.53956 4.79805 4.51237 4.79345 4.49667L4.79422 4.49782Z" fill="#93937C"/>
</svg>
