<svg width="200" height="16" viewBox="0 0 200 16" fill="none" xmlns="http://www.w3.org/2000/svg">
<path d="M2.14 11.04C2.56667 11.8667 3.08 12.5067 3.68 12.96C4.29333 13.4 4.95333 13.62 5.66 13.62C6.59333 13.62 7.32667 13.4 7.86 12.96C8.39333 12.52 8.66 11.9267 8.66 11.18C8.66 10.6867 8.51333 10.2733 8.22 9.94C7.94 9.59333 7.58667 9.31333 7.16 9.1C6.73333 8.88667 6.16 8.65333 5.44 8.4C4.53333 8.06667 3.79333 7.75333 3.22 7.46C2.66 7.15333 2.18 6.72667 1.78 6.18C1.39333 5.62 1.2 4.90667 1.2 4.04C1.2 3.28 1.39333 2.62 1.78 2.06C2.18 1.48667 2.72 1.05333 3.4 0.76C4.09333 0.453333 4.87333 0.3 5.74 0.3C6.79333 0.3 7.72 0.58 8.52 1.14C9.32 1.68667 9.91333 2.5 10.3 3.58L8.58 4.2C8.35333 3.48 7.99333 2.92667 7.5 2.54C7.02 2.15333 6.46667 1.95333 5.84 1.94C5.01333 1.94 4.34667 2.13333 3.84 2.52C3.34667 2.89333 3.1 3.40667 3.1 4.06C3.1 4.55333 3.24 4.96667 3.52 5.3C3.8 5.63333 4.15333 5.90667 4.58 6.12C5.00667 6.33333 5.58 6.57333 6.3 6.84C7.20667 7.18667 7.94 7.51333 8.5 7.82C9.07333 8.11333 9.55333 8.54 9.94 9.1C10.34 9.64667 10.54 10.3467 10.54 11.2C10.54 12 10.34 12.7067 9.94 13.32C9.55333 13.9333 8.99333 14.4133 8.26 14.76C7.54 15.0933 6.7 15.26 5.74 15.26C4.64667 15.26 3.66 14.9733 2.78 14.4C1.91333 13.8267 1.17333 13 0.56 11.92L2.14 11.04ZM18.3269 7.74C19.1535 7.74 19.8269 7.48 20.3469 6.96C20.8802 6.42667 21.1469 5.74667 21.1469 4.92C21.1469 4.10667 20.8802 3.44 20.3469 2.92C19.8135 2.38667 19.1335 2.12 18.3069 2.12H14.9869V7.74H18.3269ZM13.1069 0.459999H18.3869C19.2802 0.459999 20.0735 0.653332 20.7669 1.04C21.4735 1.41333 22.0202 1.94 22.4069 2.62C22.8069 3.28667 23.0069 4.05333 23.0069 4.92C23.0069 5.78667 22.8069 6.56 22.4069 7.24C22.0202 7.92 21.4735 8.45333 20.7669 8.84C20.0735 9.21333 19.2802 9.4 18.3869 9.4H14.9869V15.1H13.1069V0.459999ZM31.4242 13.6C32.4776 13.6 33.4042 13.36 34.2042 12.88C35.0176 12.3867 35.6509 11.7 36.1042 10.82C36.5576 9.94 36.7842 8.92667 36.7842 7.78C36.7842 6.63333 36.5576 5.62 36.1042 4.74C35.6509 3.86 35.0176 3.18 34.2042 2.7C33.4042 2.20667 32.4776 1.96 31.4242 1.96C30.3709 1.96 29.4376 2.20667 28.6242 2.7C27.8109 3.18 27.1776 3.86 26.7242 4.74C26.2842 5.62 26.0642 6.63333 26.0642 7.78C26.0642 8.92667 26.2842 9.94 26.7242 10.82C27.1776 11.7 27.8109 12.3867 28.6242 12.88C29.4376 13.36 30.3709 13.6 31.4242 13.6ZM24.1642 7.78C24.1642 6.32667 24.4709 5.03333 25.0842 3.9C25.6976 2.76667 26.5576 1.88667 27.6642 1.26C28.7709 0.62 30.0242 0.3 31.4242 0.3C32.8242 0.3 34.0776 0.62 35.1842 1.26C36.2909 1.88667 37.1509 2.76667 37.7642 3.9C38.3776 5.03333 38.6842 6.32667 38.6842 7.78C38.6842 9.23333 38.3776 10.5267 37.7642 11.66C37.1509 12.7933 36.2909 13.68 35.1842 14.32C34.0776 14.9467 32.8242 15.26 31.4242 15.26C30.0242 15.26 28.7709 14.9467 27.6642 14.32C26.5576 13.68 25.6976 12.7933 25.0842 11.66C24.4709 10.5267 24.1642 9.23333 24.1642 7.78ZM47.3477 13.6C48.401 13.6 49.3277 13.36 50.1277 12.88C50.941 12.3867 51.5743 11.7 52.0277 10.82C52.481 9.94 52.7077 8.92667 52.7077 7.78C52.7077 6.63333 52.481 5.62 52.0277 4.74C51.5743 3.86 50.941 3.18 50.1277 2.7C49.3277 2.20667 48.401 1.96 47.3477 1.96C46.2943 1.96 45.361 2.20667 44.5477 2.7C43.7343 3.18 43.101 3.86 42.6477 4.74C42.2077 5.62 41.9877 6.63333 41.9877 7.78C41.9877 8.92667 42.2077 9.94 42.6477 10.82C43.101 11.7 43.7343 12.3867 44.5477 12.88C45.361 13.36 46.2943 13.6 47.3477 13.6ZM40.0877 7.78C40.0877 6.32667 40.3943 5.03333 41.0077 3.9C41.621 2.76667 42.481 1.88667 43.5877 1.26C44.6943 0.62 45.9477 0.3 47.3477 0.3C48.7477 0.3 50.001 0.62 51.1077 1.26C52.2143 1.88667 53.0743 2.76667 53.6877 3.9C54.301 5.03333 54.6077 6.32667 54.6077 7.78C54.6077 9.23333 54.301 10.5267 53.6877 11.66C53.0743 12.7933 52.2143 13.68 51.1077 14.32C50.001 14.9467 48.7477 15.26 47.3477 15.26C45.9477 15.26 44.6943 14.9467 43.5877 14.32C42.481 13.68 41.621 12.7933 41.0077 11.66C40.3943 10.5267 40.0877 9.23333 40.0877 7.78ZM67.9217 15.1H65.9017L58.3617 3.74V15.1H56.4817V0.459999H58.4817L66.0217 11.8V0.459999H67.9217V15.1ZM87.5791 15.1H85.5591L84.0391 11.04H77.8391L76.2791 15.1H74.2591L79.8391 0.459999H82.0791L87.5791 15.1ZM83.3991 9.38L80.9591 2.86L78.4591 9.38H83.3991ZM94.7659 7.74C95.5926 7.74 96.2659 7.48 96.7859 6.96C97.3193 6.42667 97.5859 5.74667 97.5859 4.92C97.5859 4.10667 97.3193 3.44 96.7859 2.92C96.2526 2.38667 95.5726 2.12 94.7459 2.12H91.4259V7.74H94.7659ZM89.5459 0.459999H94.8259C95.7193 0.459999 96.5126 0.653332 97.2059 1.04C97.9126 1.41333 98.4593 1.94 98.8459 2.62C99.2459 3.28667 99.4459 4.05333 99.4459 4.92C99.4459 5.78667 99.2459 6.56 98.8459 7.24C98.4593 7.92 97.9126 8.45333 97.2059 8.84C96.5126 9.21333 95.7193 9.4 94.8259 9.4H91.4259V15.1H89.5459V0.459999ZM106.744 7.74C107.571 7.74 108.244 7.48 108.764 6.96C109.297 6.42667 109.564 5.74667 109.564 4.92C109.564 4.10667 109.297 3.44 108.764 2.92C108.231 2.38667 107.551 2.12 106.724 2.12H103.404V7.74H106.744ZM101.524 0.459999H106.804C107.697 0.459999 108.491 0.653332 109.184 1.04C109.891 1.41333 110.437 1.94 110.824 2.62C111.224 3.28667 111.424 4.05333 111.424 4.92C111.424 5.78667 111.224 6.56 110.824 7.24C110.437 7.92 109.891 8.45333 109.184 8.84C108.491 9.21333 107.697 9.4 106.804 9.4H103.404V15.1H101.524V0.459999ZM115.362 13.44H122.122V15.1H113.482V0.459999H115.362V13.44ZM126.326 0.459999V15.1H124.446V0.459999H126.326ZM135.709 15.26C134.309 15.26 133.063 14.9467 131.969 14.32C130.876 13.68 130.023 12.7933 129.409 11.66C128.796 10.5267 128.489 9.23333 128.489 7.78C128.489 6.32667 128.796 5.03333 129.409 3.9C130.023 2.76667 130.876 1.88667 131.969 1.26C133.063 0.62 134.309 0.3 135.709 0.3C136.696 0.3 137.623 0.493333 138.489 0.879999C139.369 1.26667 140.143 1.8 140.809 2.48L139.549 3.66C139.083 3.12667 138.509 2.71333 137.829 2.42C137.149 2.11333 136.436 1.96 135.689 1.96C134.649 1.96 133.729 2.20667 132.929 2.7C132.129 3.18 131.503 3.86 131.049 4.74C130.609 5.62 130.389 6.63333 130.389 7.78C130.389 8.92667 130.609 9.94 131.049 10.82C131.503 11.7 132.129 12.3867 132.929 12.88C133.729 13.36 134.649 13.6 135.689 13.6C136.449 13.6 137.156 13.4533 137.809 13.16C138.463 12.8533 139.023 12.44 139.489 11.92L140.809 13.08C140.129 13.7733 139.356 14.3133 138.489 14.7C137.636 15.0867 136.709 15.2733 135.709 15.26ZM155.151 15.1H153.131L151.611 11.04H145.411L143.851 15.1H141.831L147.411 0.459999H149.651L155.151 15.1ZM150.971 9.38L148.531 2.86L146.031 9.38H150.971ZM165.456 2.12H161.236V15.1H159.336V2.12H155.116V0.459999H165.456V2.12ZM169.512 0.459999V15.1H167.632V0.459999H169.512ZM178.995 13.6C180.049 13.6 180.975 13.36 181.775 12.88C182.589 12.3867 183.222 11.7 183.675 10.82C184.129 9.94 184.355 8.92667 184.355 7.78C184.355 6.63333 184.129 5.62 183.675 4.74C183.222 3.86 182.589 3.18 181.775 2.7C180.975 2.20667 180.049 1.96 178.995 1.96C177.942 1.96 177.009 2.20667 176.195 2.7C175.382 3.18 174.749 3.86 174.295 4.74C173.855 5.62 173.635 6.63333 173.635 7.78C173.635 8.92667 173.855 9.94 174.295 10.82C174.749 11.7 175.382 12.3867 176.195 12.88C177.009 13.36 177.942 13.6 178.995 13.6ZM171.735 7.78C171.735 6.32667 172.042 5.03333 172.655 3.9C173.269 2.76667 174.129 1.88667 175.235 1.26C176.342 0.62 177.595 0.3 178.995 0.3C180.395 0.3 181.649 0.62 182.755 1.26C183.862 1.88667 184.722 2.76667 185.335 3.9C185.949 5.03333 186.255 6.32667 186.255 7.78C186.255 9.23333 185.949 10.5267 185.335 11.66C184.722 12.7933 183.862 13.68 182.755 14.32C181.649 14.9467 180.395 15.26 178.995 15.26C177.595 15.26 176.342 14.9467 175.235 14.32C174.129 13.68 173.269 12.7933 172.655 11.66C172.042 10.5267 171.735 9.23333 171.735 7.78ZM199.569 15.1H197.549L190.009 3.74V15.1H188.129V0.459999H190.129L197.669 11.8V0.459999H199.569V15.1Z" fill="#808080"/>
</svg>
