<svg width="65" height="16" viewBox="0 0 65 16" fill="none" xmlns="http://www.w3.org/2000/svg">
<path d="M10.8608 8.0445C10.8684 7.46425 11.0263 6.89531 11.3197 6.39063C11.6131 5.88594 12.0325 5.46191 12.5388 5.15799C12.2172 4.70948 11.7928 4.34037 11.2995 4.07998C10.8061 3.81959 10.2574 3.6751 9.69683 3.65798C8.50108 3.53543 7.34186 4.35653 6.73251 4.35653C6.11139 4.35653 5.17323 3.67014 4.16298 3.69043C3.50953 3.71104 2.87268 3.89656 2.3145 4.22891C1.75632 4.56125 1.29584 5.02909 0.977916 5.58685C-0.399208 7.91466 0.628005 11.3358 1.9472 13.2174C2.60722 14.1388 3.3786 15.168 4.38794 15.1315C5.37563 15.0915 5.74452 14.5166 6.93674 14.5166C8.11791 14.5166 8.46399 15.1315 9.49381 15.1083C10.5537 15.0915 11.2214 14.1828 11.8583 13.2527C12.3325 12.5962 12.6974 11.8706 12.9395 11.1028C12.3238 10.8486 11.7983 10.423 11.4287 9.87912C11.059 9.33526 10.8615 8.69721 10.8608 8.0445Z" fill="white"/>
<path d="M8.91494 2.42522C9.49281 1.74795 9.77751 0.877432 9.70857 -0.00146484C8.82571 0.0890638 8.0102 0.50101 7.42453 1.15229C7.13817 1.47046 6.91885 1.84061 6.77911 2.24158C6.63937 2.64255 6.58194 3.06648 6.61011 3.48913C7.0517 3.49357 7.48856 3.40013 7.88779 3.21584C8.28703 3.03155 8.63822 2.76122 8.91494 2.42522Z" fill="white"/>
<path d="M61.8683 10.561C60.2993 10.561 59.3014 9.52428 59.3014 7.78902V7.19582C59.3014 5.56036 60.2772 4.50146 61.8184 4.50146C63.3818 4.50146 64.3242 5.59917 64.3242 7.25126V7.8112H60.5156V7.9498C60.5156 8.93662 61.0478 9.5908 61.8849 9.5908C62.5114 9.5908 62.9383 9.28034 63.0879 8.77585H64.2577C64.0803 9.72386 63.3152 10.561 61.8683 10.561ZM60.5156 6.95189H63.1212V6.9408C63.1212 6.10921 62.6056 5.45502 61.8239 5.45502C61.0311 5.45502 60.5156 6.10921 60.5156 6.9408V6.95189Z" fill="white"/>
<path d="M55.789 10.4617V4.60171H57.0197V5.37232H57.0641C57.2138 5.00642 57.6517 4.51855 58.4667 4.51855C58.6275 4.51855 58.7661 4.52964 58.8825 4.55182V5.63843C58.7771 5.61071 58.5609 5.59408 58.3558 5.59408C57.369 5.59408 57.0363 6.20391 57.0363 6.99115V10.4617H55.789Z" fill="white"/>
<path d="M52.1483 4.50146C53.8336 4.50146 54.7484 5.68787 54.7484 7.28452V7.75576C54.7484 9.40785 53.8392 10.561 52.1483 10.561C50.4574 10.561 49.5371 9.40785 49.5371 7.75576V7.28452C49.5371 5.69341 50.4629 4.50146 52.1483 4.50146ZM52.1483 5.48829C51.2335 5.48829 50.7789 6.23672 50.7789 7.30116V7.75022C50.7789 8.79802 51.228 9.56863 52.1483 9.56863C53.0686 9.56863 53.5121 8.80356 53.5121 7.75022V7.30116C53.5121 6.23117 53.063 5.48829 52.1483 5.48829Z" fill="white"/>
<path d="M46.4767 4.59862V3.17383H47.6853V4.59862H48.8274V5.58544H47.6853V8.71223C47.6853 9.34978 47.9237 9.52719 48.5834 9.52719C48.6888 9.52719 48.7886 9.52719 48.8606 9.5161V10.4586C48.7608 10.4752 48.528 10.4974 48.2785 10.4974C46.8537 10.4974 46.4601 9.98733 46.4601 8.81202V5.58544H45.6507V4.59862H46.4767Z" fill="white"/>
<path d="M39.2202 8.36116H40.451C40.5064 9.01535 41.083 9.57528 42.153 9.57528C43.1343 9.57528 43.7164 9.11514 43.7164 8.39997C43.7164 7.8234 43.3283 7.51294 42.5189 7.3189L41.277 7.00844C40.3013 6.78114 39.4254 6.19902 39.4254 4.96827C39.4254 3.5213 40.6894 2.72852 42.1585 2.72852C43.6277 2.72852 44.8529 3.5213 44.8806 4.935H43.672C43.6166 4.29191 43.1232 3.75969 42.1419 3.75969C41.277 3.75969 40.6894 4.16994 40.6894 4.87402C40.6894 5.36743 41.0331 5.72224 41.7372 5.88302L42.9735 6.18794C44.11 6.46513 44.9749 7.0029 44.9749 8.28909C44.9749 9.77487 43.7718 10.612 42.0587 10.612C39.952 10.612 39.248 9.38125 39.2202 8.36116Z" fill="white"/>
<path d="M34.3901 10.5476C33.6306 10.5476 33.054 10.1872 32.7435 9.64946H32.6992V12.4103H31.4684V4.60447H32.6659V5.46378H32.7103C33.0318 4.90384 33.6306 4.52686 34.4178 4.52686C35.7317 4.52686 36.6686 5.51922 36.6686 7.27111V7.79224C36.6686 9.53304 35.7428 10.5476 34.3901 10.5476ZM34.1073 9.53304C34.889 9.53304 35.4213 8.90657 35.4213 7.72571V7.31546C35.4213 6.17895 34.9223 5.53031 34.0852 5.53031C33.2259 5.53031 32.6881 6.22885 32.6881 7.30991V7.72571C32.6881 8.8345 33.2314 9.53304 34.1073 9.53304Z" fill="white"/>
<path d="M28.1361 10.5476C27.3766 10.5476 26.8 10.1872 26.4896 9.64946H26.4452V12.4103H25.2145V4.60447H26.412V5.46378H26.4563C26.7779 4.90384 27.3766 4.52686 28.1638 4.52686C29.4778 4.52686 30.4147 5.51922 30.4147 7.27111V7.79224C30.4147 9.53304 29.4888 10.5476 28.1361 10.5476ZM27.8534 9.53304C28.6351 9.53304 29.1673 8.90657 29.1673 7.72571V7.31546C29.1673 6.17895 28.6683 5.53031 27.8312 5.53031C26.9719 5.53031 26.4341 6.22885 26.4341 7.30991V7.72571C26.4341 8.8345 26.9774 9.53304 27.8534 9.53304Z" fill="white"/>
<path d="M19.2664 10.464H17.9857L20.5914 2.89648H21.9996L24.5997 10.464H23.2691L22.5983 8.36836H19.9427L19.2664 10.464ZM21.301 4.20485H21.2511L20.2255 7.40371H22.3156L21.301 4.20485Z" fill="white"/>
</svg>
