<svg width="51" height="48" viewBox="0 0 51 48" fill="none" xmlns="http://www.w3.org/2000/svg">
<g clip-path="url(#clip0_544_6892)">
<path d="M50.033 26.1721C50.0032 26.0166 49.5969 25.7179 49.5925 25.7157L49.5206 25.6713C49.2778 25.5231 49.2124 25.4831 48.9769 25.2651C48.7967 25.0979 48.7393 24.9882 48.6673 24.8501C48.6172 24.7534 48.5605 24.6444 48.4587 24.5063C48.3694 24.3842 48.3497 24.3464 48.3018 24.2556C48.2843 24.2221 48.264 24.1836 48.2364 24.1327C48.2189 24.1015 48.1978 24.0775 48.176 24.0586C48.1818 24.0215 48.1833 23.9765 48.1673 23.9285C48.1397 23.8442 48.0692 23.773 47.966 23.6734C47.9376 23.6458 47.894 23.6051 47.8839 23.5898C47.7988 23.4648 47.7065 23.2838 47.6179 23.1087C47.5554 22.9859 47.4965 22.8703 47.4391 22.7707C47.3984 22.7002 47.325 22.6312 47.2545 22.5643C47.221 22.5331 47.1709 22.4851 47.1585 22.4677C47.1091 22.395 47.0531 22.2743 46.9986 22.1581C46.9303 22.0105 46.8591 21.8586 46.7799 21.7525C46.7363 21.6944 46.6796 21.6362 46.62 21.5752C46.548 21.5018 46.4739 21.4255 46.4296 21.3557C46.3373 21.2103 46.2529 21.0315 46.1636 20.8418C46.0037 20.5024 45.838 20.1521 45.5938 19.9275C45.5283 19.8672 45.4804 19.8403 45.4484 19.8222C45.4237 19.8084 45.4113 19.8011 45.3554 19.695C45.2616 19.5169 45.2391 19.3374 45.2122 19.1288C45.1962 19.0053 45.1795 18.8766 45.1468 18.7407C45.0726 18.4325 44.9622 18.1317 44.8553 17.8409C44.7129 17.4521 44.5777 17.0851 44.521 16.7006C44.5116 16.6374 44.505 16.5749 44.4985 16.5131C44.4789 16.3256 44.4585 16.1308 44.3713 15.923C44.3291 15.8219 44.2557 15.7253 44.1852 15.6322C44.1162 15.5414 44.0377 15.4382 44.0217 15.3662C44.0014 15.2783 43.9861 15.1874 43.9701 15.0908C43.9432 14.9302 43.9149 14.7645 43.8618 14.6024C43.771 14.3269 43.6518 14.0711 43.5362 13.824C43.3843 13.4977 43.2404 13.1902 43.1597 12.845C43.1256 12.6975 43.0376 12.5085 42.9446 12.3086C42.8371 12.0768 42.715 11.8137 42.7041 11.6727C42.7048 11.6676 42.7106 11.6538 42.715 11.6436C42.7302 11.6044 42.7542 11.5455 42.7477 11.4721C42.7397 11.3856 42.6895 11.3057 42.6415 11.2286C42.6256 11.2025 42.5994 11.161 42.5899 11.1392C42.5914 11.1312 42.5943 11.1203 42.5965 11.1116C42.6067 11.0724 42.6205 11.0179 42.6161 10.9532C42.6016 10.7402 42.4933 10.5883 42.4061 10.4662C42.3661 10.4103 42.3283 10.3579 42.3029 10.3049C42.143 9.97856 42.0034 9.57374 41.8799 9.21689C41.8399 9.10133 41.8014 8.98868 41.7636 8.8833C41.4373 7.97409 40.7643 6.74654 40.1974 6.02775C39.8928 5.64183 39.581 5.37074 39.2511 5.08438C39.1748 5.01824 39.0963 4.94993 39.0163 4.8787C38.7983 4.68538 38.6195 4.48914 38.4458 4.29945C38.1478 3.97313 37.8404 3.6359 37.3462 3.33137C37.0126 3.12569 36.6681 2.96798 36.3352 2.81535C36.0823 2.69979 35.8214 2.57987 35.5735 2.44251C35.41 2.35166 35.2494 2.22956 35.0786 2.10092C34.8439 1.92286 34.6011 1.73898 34.3351 1.62996C34.2246 1.5849 34.1149 1.53766 34.0051 1.49115C33.681 1.35306 33.3467 1.21134 32.9935 1.10232C32.8386 1.05435 32.787 1.04708 32.7027 1.03618C32.6722 1.03255 32.6351 1.02746 32.5799 1.01874C32.513 1.00784 32.3706 0.965681 32.2441 0.928615C31.9803 0.853029 31.8553 0.819597 31.7775 0.820324C31.6729 0.821051 31.5995 0.869746 31.5515 0.901724C31.5333 0.913353 31.513 0.927162 31.5043 0.928615C31.441 0.939517 31.3538 0.925708 31.2688 0.913353C31.1678 0.89809 31.0718 0.883555 30.9832 0.902451C30.9279 0.91408 30.8836 0.940244 30.8502 0.964955C30.8204 0.942424 30.7826 0.917714 30.7346 0.905358C30.6292 0.878467 30.1161 0.983124 30.111 0.984578C30.0093 1.01074 29.917 1.08197 29.8421 1.13938C29.8348 1.1452 29.8268 1.15101 29.8188 1.15755C29.7622 1.13139 29.6771 1.09214 29.5674 1.10304C29.454 1.11467 29.2977 1.175 29.1313 1.23895C29.0216 1.28111 28.9089 1.32471 28.8333 1.34361C28.821 1.34652 28.7926 1.34579 28.7686 1.34506C28.7207 1.34361 28.6611 1.34216 28.5978 1.36033C28.5179 1.38358 28.467 1.43955 28.43 1.48025C28.4205 1.49042 28.4074 1.50496 28.4002 1.5115C27.5505 1.86472 26.8158 2.24119 26.2147 2.63148C26.134 2.68381 26.0534 2.73831 25.9712 2.79355C25.6696 2.99632 25.3578 3.20637 25.0359 3.32483C24.9552 3.35463 24.884 3.37861 24.8178 3.40114C24.6448 3.45929 24.4959 3.51016 24.288 3.62063C24.203 3.66642 24.1659 3.68096 24.1514 3.68604C24.1056 3.67805 24.0482 3.67151 23.9428 3.69113C23.8679 3.70494 23.8134 3.74709 23.7778 3.77471C23.7742 3.77762 23.7698 3.78053 23.7662 3.78343C23.7538 3.77907 23.7385 3.77253 23.7269 3.76744C23.6819 3.74782 23.6266 3.72384 23.5598 3.71875C23.4943 3.71366 23.4398 3.72747 23.4006 3.73765C23.3868 3.74128 23.3686 3.74564 23.3635 3.74564C22.6992 3.69041 22.0437 3.25433 21.4099 2.8328C20.9695 2.5399 20.5538 2.263 20.1242 2.09511C19.9716 2.03551 19.8241 2.01807 19.6933 2.00208C19.6191 1.99336 19.5486 1.98464 19.4825 1.9701C19.3982 1.9512 19.311 1.93013 19.2216 1.90905C18.6714 1.77823 18.0471 1.63069 17.5013 1.70773C17.3283 1.73171 17.1902 1.70555 17.0027 1.73462C16.9155 1.7477 16.8341 1.79204 16.7628 1.83056C16.7439 1.84073 16.7185 1.85454 16.7011 1.86254C16.6873 1.85818 16.6684 1.85091 16.6546 1.84582C16.5841 1.81893 16.4961 1.78622 16.3987 1.80948C16.3159 1.82983 16.2657 1.88652 16.2367 1.92141C16.2308 1.92795 16.2228 1.9374 16.2178 1.94248C16.1836 1.94684 16.1378 1.94103 16.0891 1.93521C16.0353 1.92867 15.975 1.92068 15.9118 1.92504C15.5011 1.95411 15.1588 2.0515 14.7954 2.15398L14.7024 2.18014C14.6501 2.19468 14.5723 2.2034 14.4975 2.21139C14.3848 2.22375 14.2685 2.2361 14.1769 2.2739C14.1028 2.30442 14.0585 2.35312 14.0301 2.39454C14.0279 2.39454 14.0265 2.39454 14.0243 2.39454C13.964 2.38946 13.8891 2.38292 13.8092 2.40617C13.7358 2.42798 13.6885 2.4774 13.6537 2.51301C13.6435 2.52391 13.6275 2.5399 13.6224 2.54354C13.5744 2.56897 13.5301 2.57043 13.4749 2.57261C13.4313 2.57479 13.3811 2.57624 13.3295 2.5915C12.9385 2.70416 12.6609 2.89385 12.3672 3.09444C12.2502 3.17439 12.1296 3.25724 11.9995 3.33573C11.9348 3.37498 11.8556 3.42949 11.772 3.48763C11.6514 3.57121 11.5016 3.67514 11.4231 3.70785C11.4137 3.71076 11.3839 3.71221 11.365 3.71366C11.3112 3.71657 11.2444 3.71948 11.1768 3.75218C11.1259 3.77689 11.0939 3.81759 11.0561 3.86411C11.0372 3.88809 10.9943 3.94187 10.9704 3.95786C10.9631 3.95859 10.9565 3.95859 10.9493 3.95932C10.9137 3.9615 10.865 3.9644 10.8119 3.98766C10.7189 4.02763 10.6789 4.11412 10.6397 4.1977C10.6237 4.23113 10.5946 4.29364 10.5786 4.30817C10.5612 4.32053 10.5219 4.3278 10.4878 4.33434C10.4325 4.34451 10.37 4.35614 10.3133 4.39684C10.2407 4.4499 10.2174 4.52694 10.2 4.5829C10.1963 4.59525 10.1905 4.61342 10.1869 4.62287C10.1578 4.64904 10.067 4.69991 10.0277 4.72244C9.95067 4.76605 9.91579 4.78567 9.88672 4.82637C9.65269 5.15052 9.41067 5.54371 9.28712 5.74939C9.25805 5.79736 9.22243 5.85478 9.18391 5.91583C9.04728 6.13532 8.89247 6.38315 8.83142 6.55104C8.73621 6.81268 8.66571 7.08886 8.5974 7.35632C8.53998 7.58017 8.4862 7.79239 8.41933 7.99298C8.35465 8.18631 8.25435 8.8128 8.24927 9.00467C8.24781 9.05118 8.25653 9.09552 8.26671 9.13404C8.24563 9.15293 8.22528 9.17765 8.20929 9.20962C8.17731 9.2714 8.15551 9.36516 8.12789 9.49089C8.12426 9.50833 8.11917 9.52941 8.11554 9.54758C8.07266 9.56866 7.9978 9.61154 7.97599 9.70675C7.96509 9.75471 7.93965 9.84266 7.91494 9.92842C7.8677 10.0919 7.84663 10.169 7.84081 10.2148C7.83282 10.2809 7.84445 10.3354 7.85462 10.3798C7.86334 10.419 7.8677 10.4408 7.86262 10.4677C7.85026 10.5375 7.79938 10.645 7.7536 10.7402C7.70345 10.8449 7.65693 10.9437 7.63586 11.0353C7.62059 11.1022 7.6235 11.1669 7.62568 11.2185C7.62568 11.2279 7.62641 11.2388 7.62714 11.249C7.58426 11.273 7.51957 11.3173 7.49413 11.4023C7.4687 11.4859 7.49123 11.5579 7.50431 11.6008C7.50504 11.6037 7.50576 11.6058 7.50649 11.6087C7.47451 11.7839 7.40038 11.9772 7.32915 12.164C7.25429 12.3595 7.17653 12.5623 7.14382 12.7534C7.11548 12.9148 7.02754 13.2251 6.96285 13.3676C6.95413 13.377 6.93378 13.3937 6.91997 13.4046C6.86183 13.4526 6.78988 13.5115 6.76371 13.6067C6.74918 13.6605 6.74554 13.7404 6.74191 13.8661C6.74046 13.9156 6.73828 13.9875 6.73464 14.0173C6.67795 14.1525 6.61109 14.2644 6.54713 14.3727C6.42358 14.5806 6.29566 14.7964 6.25714 15.1417C6.25206 15.1526 6.24406 15.1642 6.23679 15.1773C6.20845 15.2267 6.16847 15.295 6.15103 15.3713C6.13359 15.4462 6.13141 15.516 6.12923 15.5777C6.12777 15.6293 6.12632 15.6737 6.11615 15.7071C6.0958 15.7761 6.01076 15.8866 5.9359 15.9847C5.83997 16.1097 5.74985 16.2275 5.71133 16.3467C5.68225 16.4368 5.69098 16.5204 5.69824 16.5872C5.70406 16.6388 5.70842 16.6803 5.69679 16.7173C5.67644 16.7856 5.59359 16.8954 5.52091 16.9921C5.41698 17.1301 5.31886 17.2602 5.28398 17.3954C5.26871 17.4557 5.27162 17.5059 5.2738 17.5473C5.27598 17.5815 5.27598 17.5989 5.27089 17.62C5.25127 17.6927 5.20548 17.7741 5.15751 17.8598C5.07466 18.0081 4.98091 18.1753 4.99035 18.365C4.99253 18.4093 5.00489 18.4493 5.01797 18.4834C5.00198 18.498 4.98599 18.5147 4.97218 18.5358C4.92712 18.6041 4.91259 18.6811 4.90023 18.7429C4.89442 18.772 4.88788 18.8083 4.87988 18.8228C4.87407 18.8337 4.85226 18.8548 4.83337 18.873C4.79194 18.9122 4.73961 18.9609 4.704 19.0365C4.6146 19.2277 4.56082 19.4355 4.50995 19.6368C4.45907 19.8345 4.40674 20.0395 4.32098 20.2204C4.31371 20.235 4.289 20.2648 4.26865 20.2888C4.21342 20.3542 4.1451 20.4356 4.11676 20.5504C4.10077 20.6136 4.09931 20.6696 4.09786 20.719C4.09641 20.7786 4.09423 20.8113 4.07751 20.8469C4.05425 20.8942 3.99029 20.9494 3.93288 20.9974C3.8711 21.0497 3.80642 21.1042 3.76499 21.1718C3.7272 21.2336 3.70249 21.3215 3.67632 21.4138C3.66687 21.4465 3.65452 21.4916 3.64507 21.5192C3.61673 21.5381 3.57021 21.5672 3.53678 21.5883C3.38706 21.6827 3.3609 21.7009 3.33546 21.7343C3.29113 21.7918 3.27296 21.8623 3.25479 21.9371C3.24534 21.9742 3.22862 22.0425 3.21554 22.0592C3.21045 22.0643 3.19228 22.0752 3.17993 22.0817C3.14504 22.1021 3.0978 22.1297 3.06001 22.1777C3.01349 22.2358 2.99605 22.2991 2.98442 22.3412C2.98297 22.3463 2.98224 22.3507 2.98079 22.355C2.96262 22.3645 2.93573 22.3768 2.91756 22.3848C2.8347 22.4226 2.75694 22.4575 2.71406 22.5309C2.67118 22.605 2.6719 22.6784 2.67263 22.7279C2.63702 22.7497 2.59123 22.7809 2.55489 22.8274C2.51346 22.8805 2.48803 22.935 2.46477 22.983C2.44733 23.0186 2.43279 23.0491 2.41607 23.0702C2.3979 23.092 2.3245 23.1479 2.28889 23.1756C2.21621 23.2308 2.17987 23.2577 2.15516 23.302C2.11591 23.3725 2.113 23.4467 2.11082 23.5062C2.11082 23.5092 2.11082 23.5121 2.11082 23.515C2.06867 23.5317 2.01634 23.5615 1.97564 23.6189C1.92113 23.6967 1.91241 23.7853 1.90514 23.8566C1.90224 23.8885 1.8986 23.9241 1.89133 23.9416C1.83174 24.092 1.71182 24.2461 1.59553 24.3958C1.50977 24.5056 1.42183 24.619 1.35642 24.7331C1.32371 24.7905 1.30772 24.8464 1.29319 24.8966C1.28156 24.9373 1.27139 24.9722 1.2554 24.9954C1.23287 25.0281 1.15437 25.0717 1.09114 25.1059C1.0112 25.1495 0.921074 25.1989 0.848395 25.2687C0.844761 25.2723 0.445029 25.7091 0.437034 25.8748C0.434127 25.9403 0.449389 25.9969 0.461018 26.0376C0.465379 26.0529 0.47192 26.0769 0.47192 26.082C0.470466 26.0936 0.458837 26.1263 0.450843 26.1474C0.426859 26.2135 0.399968 26.2877 0.415957 26.3683C0.427586 26.4257 0.582391 26.675 0.628179 26.7114C0.674693 26.747 0.724841 26.7623 0.765542 26.7688C0.806242 26.8974 0.879647 27.154 0.893456 27.2179C0.911626 27.2986 0.913806 27.3837 0.91526 27.4658C0.916713 27.5319 0.918167 27.5944 0.927615 27.6526C0.944331 27.7492 1.01556 27.7943 1.05916 27.8146C1.23868 28.1177 1.5105 28.4687 1.73217 28.6831C1.78813 28.7377 1.86081 28.7827 1.92985 28.8271C1.99163 28.8663 2.05631 28.907 2.08757 28.939C2.10356 28.9579 2.15443 29.0393 2.18568 29.088C2.27217 29.2246 2.29252 29.2573 2.33976 29.2849C2.39863 29.3198 2.46041 29.3264 2.50983 29.3271C2.51928 29.3641 2.53454 29.4078 2.56361 29.447C2.68062 29.6054 2.87831 29.8264 3.08327 29.9696C3.17775 30.0357 3.27514 30.1004 3.37834 30.168C3.81369 30.4551 4.26429 30.7523 4.438 31.1593C4.45762 31.2051 4.48887 31.2349 4.57245 31.3148C4.6117 31.3519 4.68365 31.421 4.69891 31.4413C4.72798 31.4878 4.73743 31.5503 4.74761 31.6165C4.75705 31.6804 4.76723 31.7466 4.79848 31.8083C4.845 31.9014 4.92858 31.9377 4.98381 31.9566C4.99108 31.9929 5.00416 32.0402 5.03251 32.0852C5.07829 32.1586 5.12554 32.2328 5.1735 32.3076C5.35593 32.5933 5.54489 32.8883 5.66554 33.1834C5.66699 33.19 5.66699 33.2096 5.66699 33.2234C5.66699 33.2634 5.66772 33.3128 5.68589 33.3658C5.71133 33.4407 5.77456 33.4901 5.8545 33.5526C5.86613 33.5613 5.88067 33.573 5.89302 33.5831C5.89811 33.6115 5.90247 33.6456 5.90683 33.6798C5.91991 33.7801 5.93372 33.8848 5.96934 33.9691C5.99841 34.0381 6.04783 34.0788 6.08707 34.1035C6.09725 34.1886 6.11251 34.2576 6.18883 34.3804C6.23316 34.4524 6.27095 34.5076 6.30438 34.5556C6.38724 34.6777 6.42866 34.7387 6.48608 34.927C6.50425 34.9873 6.54495 35.0396 6.5871 35.0949C6.61545 35.1312 6.66196 35.1922 6.66923 35.2213C6.67723 35.254 6.67723 35.2911 6.67723 35.334C6.67723 35.3856 6.67723 35.4437 6.69176 35.507C6.71865 35.6276 6.79497 35.6966 6.84003 35.7381C6.84003 35.7577 6.83857 35.7817 6.83785 35.7998C6.83494 35.8689 6.83203 35.9336 6.84366 35.9881C6.86183 36.0717 6.91343 36.1705 6.96358 36.2664C6.98466 36.3071 7.01591 36.3667 7.02536 36.3922C7.02318 36.3987 7.02027 36.4089 7.01736 36.4169C7.00501 36.4532 6.98538 36.507 6.99265 36.5717C6.99628 36.6051 7.01082 36.6575 7.06242 36.6996C7.0617 36.733 7.06388 36.7723 7.07623 36.8137C7.10312 36.9024 7.17144 36.9445 7.20996 36.9656C7.23976 37.0288 7.23976 37.0921 7.23685 37.196C7.23467 37.26 7.23322 37.3326 7.24267 37.4111C7.25357 37.5005 7.28918 37.5776 7.31534 37.6335C7.32043 37.6452 7.32625 37.6553 7.32988 37.6655C7.32843 37.6728 7.32552 37.6808 7.32407 37.688C7.31098 37.736 7.29354 37.8014 7.30735 37.8763C7.31825 37.9359 7.35677 38.0122 7.47814 38.0405C7.48905 38.0754 7.49922 38.1343 7.50576 38.1728C7.51594 38.2302 7.52611 38.2891 7.54283 38.34C7.56681 38.4126 7.60388 38.4984 7.64022 38.5813C7.67656 38.6656 7.71508 38.7528 7.73034 38.8087C7.75287 38.8872 7.75142 38.9774 7.75069 39.0827C7.74851 39.2739 7.74633 39.5123 7.89241 39.779C7.93166 39.8502 7.99634 39.9062 8.05376 39.9549C8.0712 39.9701 8.09664 39.992 8.109 40.0043C8.11263 40.0181 8.11481 40.0399 8.11772 40.0603C8.12426 40.1119 8.13225 40.1766 8.1606 40.2485C8.2013 40.3503 8.27325 40.4171 8.32558 40.4658C8.33575 40.4753 8.34884 40.4876 8.3561 40.4949C8.38299 40.5588 8.40262 40.6264 8.42369 40.6977C8.46512 40.8401 8.51164 41.0015 8.62865 41.181C8.79363 41.4354 9.13522 41.9339 9.35107 42.1898C9.4848 42.3482 9.64906 42.4921 9.80822 42.6316C9.95939 42.7639 10.1018 42.8889 10.213 43.0197C10.2654 43.0808 10.2966 43.1288 10.3271 43.1746C10.3795 43.2538 10.434 43.3366 10.5655 43.4442C10.6469 43.5111 10.6825 43.5699 10.7203 43.6317C10.748 43.6768 10.7756 43.7233 10.8185 43.7691C10.8563 43.8098 10.9086 43.8374 11.0045 43.8875C11.0503 43.9108 11.1353 43.9551 11.1579 43.9755C11.2044 44.0176 11.2633 44.0939 11.3199 44.1673C11.381 44.2473 11.4449 44.3294 11.5111 44.3948C12.0184 44.8927 12.791 45.3069 13.4727 45.6718C13.6653 45.775 13.8477 45.8724 14.0163 45.9683C14.3099 46.134 15.6182 46.6479 15.9321 46.6878C15.999 46.6966 16.0593 46.6835 16.1073 46.6726C16.1429 46.6646 16.1741 46.658 16.2003 46.6609C16.2461 46.6668 16.3297 46.7126 16.3965 46.7489C16.4838 46.7969 16.5659 46.8419 16.6516 46.8594C16.7665 46.8826 16.8522 46.8637 16.9155 46.8492C16.9431 46.8434 16.9642 46.8376 16.9809 46.839C17.0572 46.8426 17.1459 46.8754 17.2309 46.9073C17.3123 46.9379 17.3893 46.9662 17.4671 46.9742C17.5754 46.9851 17.6626 46.9502 17.7266 46.9255C17.7455 46.9182 17.7731 46.9073 17.7869 46.9044C17.792 46.9073 17.7985 46.9117 17.8043 46.9153C17.8363 46.9364 17.885 46.9677 17.9519 46.9749C18.0434 46.9851 18.1183 46.9524 18.1685 46.9313C18.1808 46.9262 18.1968 46.919 18.2048 46.9168C18.2382 46.9211 18.3174 46.9459 18.3705 46.9626C18.4766 46.996 18.5769 47.028 18.6627 47.0302C18.7833 47.0331 18.9338 47.0178 19.0929 47.0018C19.2274 46.988 19.3662 46.9742 19.4701 46.9735C19.5108 46.9735 19.5646 46.9909 19.6162 47.0069C19.6773 47.0265 19.7398 47.0461 19.8052 47.0461C19.8154 47.0461 19.8255 47.0461 19.8357 47.0447C19.9273 47.0352 19.9883 46.9851 20.0247 46.9553C20.0283 46.9524 20.0319 46.9495 20.0356 46.9466C20.1722 46.9131 20.3248 46.9299 20.4862 46.948C20.6148 46.9626 20.7485 46.9771 20.8779 46.9647C20.9448 46.9582 21 46.9291 21.0487 46.903C21.0632 46.895 21.0836 46.8848 21.0981 46.8783C21.0996 46.879 21.101 46.8797 21.1025 46.8804C21.1396 46.9008 21.2013 46.9342 21.2827 46.932C21.3903 46.9284 21.4717 46.871 21.5255 46.8332C21.5357 46.8259 21.548 46.8172 21.556 46.8121C21.7857 46.7605 22.0829 46.69 22.3671 46.6021C22.4449 46.5781 22.519 46.5229 22.5902 46.4698C22.6215 46.4465 22.6724 46.4088 22.6956 46.3979C22.7022 46.3979 22.7087 46.3993 22.7145 46.4C22.7501 46.4044 22.8046 46.4117 22.8657 46.3877C22.9347 46.3608 23.0408 46.3048 23.1949 46.222C23.2676 46.1827 23.365 46.1304 23.3999 46.1151C23.4166 46.1129 23.4333 46.1166 23.4704 46.1253C23.559 46.1464 23.6928 46.1784 23.9021 46.0795C24.0264 46.0206 24.1092 46.0105 24.224 45.9952C24.3083 45.9843 24.4028 45.972 24.5235 45.9385C24.6318 45.9087 24.7662 45.8368 24.8847 45.7728C24.9479 45.7387 25.0344 45.6921 25.0584 45.6856C25.0686 45.6834 25.0846 45.6871 25.1122 45.6936C25.1507 45.7023 25.2023 45.7139 25.2648 45.7089C25.3789 45.6994 25.4741 45.6616 25.5577 45.6282C25.6122 45.6064 25.6638 45.586 25.706 45.5802C25.7714 45.5715 25.8419 45.5722 25.916 45.5737C26.0585 45.5759 26.2198 45.5788 26.3884 45.5112C26.5439 45.4487 26.6578 45.4198 26.73 45.4247C26.7831 45.4283 26.8557 45.4327 26.9684 45.4327H26.9727C27.2249 45.4327 27.4757 45.4051 27.7177 45.3789C28.0528 45.3426 28.3696 45.3077 28.6894 45.3389C29.3043 45.3992 29.8937 45.6166 30.4635 45.8266C31.0297 46.0352 31.6155 46.251 32.242 46.3237C32.3866 46.3404 32.4542 46.3681 32.5479 46.4051C32.601 46.4262 32.6613 46.4509 32.7413 46.4756C32.9804 46.549 33.1454 46.5447 33.2914 46.541C33.3881 46.5388 33.4797 46.5367 33.5931 46.5563C33.6258 46.5621 33.6919 46.5897 33.7362 46.6079C33.8089 46.6377 33.8525 46.6559 33.9019 46.658C33.9768 46.6595 34.0422 46.6282 34.0982 46.5999C34.1185 46.5897 34.1483 46.5745 34.1599 46.5723C34.2988 46.5483 34.4608 46.5359 34.6331 46.5221C34.8577 46.5047 35.0902 46.4865 35.2981 46.4407C35.4071 46.4167 35.5503 46.3768 35.6884 46.3375C35.7945 46.3077 35.9013 46.2779 35.9929 46.2554C36.2233 46.198 36.4987 46.0475 36.7647 45.9022C37.0024 45.7728 37.2706 45.626 37.4058 45.6115C37.4145 45.6129 37.4232 45.6158 37.4319 45.6187C37.4806 45.6325 37.562 45.6551 37.6522 45.6187C37.7495 45.5802 37.8055 45.4915 37.8506 45.4203C37.8557 45.4123 37.8622 45.4022 37.8673 45.3942C37.8949 45.3869 37.9407 45.3789 37.9734 45.3731C38.081 45.3535 38.2031 45.3317 38.2917 45.2713C38.3644 45.2226 38.3891 45.1521 38.4044 45.11C38.4058 45.1064 38.4073 45.102 38.4087 45.0984C38.456 45.0671 38.5381 45.0286 38.6181 44.9922C38.7409 44.9356 38.8797 44.8716 38.9858 44.7902C39.0461 44.7444 39.0868 44.6834 39.1166 44.639C39.1188 44.6361 39.1203 44.6332 39.1224 44.6303C39.1333 44.6281 39.1457 44.6267 39.1559 44.6245C39.2256 44.6136 39.3209 44.5983 39.4095 44.5358C39.4953 44.4748 39.5774 44.3759 39.6574 44.28C39.7075 44.2197 39.7598 44.1564 39.8005 44.1194C39.8311 44.0918 39.8957 44.0503 39.9532 44.014C40.0498 43.9522 40.1341 43.8984 40.1843 43.8374C40.2373 43.7727 40.262 43.6927 40.2838 43.6215C40.2904 43.6004 40.2991 43.5714 40.3064 43.5532C40.3195 43.5488 40.3369 43.5445 40.3493 43.5409C40.3994 43.5278 40.4568 43.5125 40.507 43.4762C40.5644 43.4347 40.7788 43.112 40.7926 43.0786C40.818 43.0154 40.8289 42.9776 40.8377 42.9471C40.8493 42.9064 40.8566 42.8817 40.9132 42.7785C41.0572 42.5175 41.233 42.3438 41.4358 42.1425C41.5201 42.0589 41.6073 41.9725 41.6953 41.8765C41.8406 41.7181 41.9794 41.5582 42.0805 41.354C42.1226 41.2689 42.1611 41.1555 42.2018 41.0356C42.2374 40.9295 42.2818 40.8001 42.3145 40.7405C42.3232 40.7355 42.3356 40.7296 42.3443 40.7253C42.3879 40.7042 42.4424 40.6773 42.4896 40.6323C42.6772 40.4542 42.8123 40.2049 42.9308 39.984C42.9853 39.8829 43.0369 39.7877 43.0892 39.7056C43.2775 39.4113 43.3814 39.1511 43.4919 38.8749C43.5355 38.7659 43.5806 38.6532 43.6322 38.5369C43.7114 38.3574 43.8248 38.1706 43.9454 37.9737C44.106 37.7106 44.2717 37.4387 44.3669 37.1589C44.3982 37.0674 44.4055 36.97 44.4127 36.8748C44.4178 36.8086 44.4229 36.7403 44.436 36.696C44.452 36.6429 44.5007 36.5644 44.5486 36.4881C44.6206 36.3726 44.6954 36.2526 44.7216 36.1276C44.742 36.0331 44.7332 35.9198 44.7267 35.8289C44.7267 35.8246 44.7267 35.8202 44.726 35.8158C44.7558 35.7911 44.7899 35.7577 44.8125 35.709C44.8582 35.6072 44.9019 35.443 44.944 35.2846C44.9724 35.1777 45.0021 35.0672 45.0261 34.9982C45.1017 34.7867 45.1577 34.5919 45.2107 34.403C45.287 34.134 45.3597 33.8804 45.4855 33.589C45.5531 33.4327 45.5654 33.2946 45.5756 33.1841C45.5799 33.1333 45.5843 33.0875 45.593 33.0497C45.6534 33.0032 45.6846 32.9421 45.6861 32.8673C45.6904 32.687 45.6933 32.6819 45.7137 32.6405C45.7311 32.6049 45.758 32.5511 45.7936 32.4515C45.8387 32.3244 45.8801 32.1812 45.9237 32.03C45.9869 31.8091 46.0531 31.5808 46.1294 31.413C46.1926 31.2749 46.2653 31.1353 46.3423 30.9871C46.5364 30.6157 46.7363 30.2319 46.8148 29.8111C46.8293 29.7319 46.8031 29.6723 46.7879 29.6396C46.8533 29.495 47.1687 28.8888 47.2159 28.8191C47.2305 28.7994 47.2523 28.79 47.3017 28.7711C47.3439 28.7551 47.3969 28.7355 47.4434 28.6962C47.4972 28.6504 47.5176 28.5952 47.5277 28.5574C47.559 28.5385 47.6048 28.5124 47.6447 28.4891C47.7552 28.4251 47.8693 28.359 47.9238 28.3212C48.3606 28.0189 49.0336 27.5021 49.4792 27.0842L49.4857 27.0777C49.7888 26.7935 49.9247 26.6423 49.9726 26.5377C49.9944 26.4897 50.0453 26.2499 50.0301 26.1706L50.033 26.1721ZM43.8916 33.5584C43.8938 33.5955 43.896 33.6333 43.8945 33.6631C43.8931 33.6645 43.8923 33.6653 43.8909 33.6667C43.8611 33.6973 43.8197 33.7379 43.7942 33.7983C43.5995 34.2591 43.4425 34.7656 43.2898 35.2555L43.2121 35.5048C43.1815 35.6014 43.1597 35.7068 43.1379 35.8093C43.1023 35.9794 43.0653 36.156 42.9933 36.2708C42.9795 36.2919 42.9214 36.3486 42.8937 36.3762C42.832 36.4365 42.7971 36.4699 42.7775 36.5186C42.7433 36.6015 42.7382 36.6938 42.7324 36.7832C42.7295 36.8333 42.7259 36.8937 42.7164 36.9271C42.6997 36.9482 42.6619 36.9896 42.6357 37.0187C42.5471 37.1168 42.4911 37.1793 42.4642 37.2352C42.425 37.3167 42.4097 37.4148 42.3944 37.5092C42.3821 37.5863 42.3697 37.6655 42.3472 37.7142C42.3348 37.7404 42.2796 37.7992 42.2462 37.8341C42.1895 37.8937 42.1408 37.9446 42.1132 38.0035C42.0914 38.0492 42.0841 38.103 42.0717 38.2106C42.0652 38.2658 42.0528 38.369 42.0412 38.3981C41.8682 38.8284 41.5528 39.3887 41.273 39.7608C41.2403 39.8044 41.2192 39.8306 41.204 39.8488C41.1487 39.9171 41.1378 39.9374 41.0717 40.0777C41.055 40.0893 41.0172 40.109 40.9917 40.122C40.8922 40.1736 40.7555 40.2434 40.677 40.383C40.6269 40.4716 40.5862 40.5552 40.5469 40.6366C40.4917 40.75 40.4394 40.8576 40.3652 40.9709C40.3202 41.0393 40.27 41.1185 40.217 41.2028C40.0578 41.4542 39.8623 41.7653 39.7039 41.931C39.6639 41.9405 39.5985 41.9557 39.5483 42.0161C39.5113 42.0604 39.4975 42.112 39.4807 42.1716C39.4698 42.2101 39.4524 42.2755 39.4342 42.298C39.4226 42.3119 39.3775 42.3395 39.3477 42.3576C39.2896 42.3933 39.2242 42.434 39.174 42.4906C39.1217 42.5502 39.0752 42.636 39.0301 42.7181C38.9989 42.7755 38.9662 42.8351 38.9415 42.8671C38.7707 43.0888 38.4007 43.4667 38.2394 43.5336C38.2132 43.5445 38.1137 43.5656 38.0541 43.5786C37.9102 43.6099 37.8564 43.623 37.8128 43.6491C37.7328 43.6971 37.7096 43.7821 37.6863 43.8643C37.6819 43.8788 37.6769 43.8992 37.6711 43.9151C37.6347 43.9333 37.5708 43.9573 37.5286 43.9733C37.4661 43.9965 37.408 44.0191 37.3622 44.0438C37.2742 44.0918 37.1877 44.1404 37.102 44.1891C36.8134 44.3527 36.5409 44.5068 36.2284 44.6136L36.1884 44.6274C35.9224 44.7182 35.7116 44.7909 35.4507 44.8905C34.6229 45.2081 34.0996 45.1696 33.2326 45.1071L33.1381 45.1005C32.7972 45.0758 32.3873 44.9523 32.0254 44.8433C31.965 44.8251 31.9055 44.8069 31.848 44.7902C31.5973 44.7161 31.3618 44.631 31.1125 44.5409C30.8131 44.4326 30.5042 44.3207 30.1699 44.2313C30.0899 44.2102 30.0005 44.1848 29.9053 44.1586C29.422 44.0249 28.8195 43.8577 28.4125 43.8367C28.2781 43.8294 28.0811 43.8672 27.8732 43.9064C27.7497 43.9304 27.621 43.9544 27.5389 43.9617C27.3907 43.974 27.2373 43.9711 27.089 43.9682C27.012 43.9667 26.9357 43.9653 26.8594 43.9653C26.5556 43.9668 26.2336 44.0409 25.9225 44.1121C25.6682 44.1702 25.4276 44.2255 25.2023 44.2422C24.7931 44.2735 24.4821 44.3512 24.1535 44.4326C23.9929 44.4726 23.8272 44.514 23.6419 44.5518C23.5787 44.5649 23.5053 44.5714 23.4275 44.5787C23.2974 44.5911 23.1629 44.6034 23.0416 44.6478C22.9434 44.6834 22.878 44.7444 22.8352 44.7851C22.8279 44.7917 22.8213 44.7989 22.8148 44.804C22.8024 44.8047 22.7843 44.8055 22.7697 44.8055C22.7152 44.8055 22.6411 44.8069 22.5633 44.8382C22.4877 44.8687 22.4492 44.9268 22.4267 44.9617C22.4238 44.9654 22.4216 44.9697 22.4187 44.9741C22.3482 44.9944 22.2421 45.0068 22.1389 45.0184C22.043 45.0293 21.9521 45.0402 21.8751 45.0577C21.7937 45.0766 21.7341 45.1216 21.6868 45.1572C21.6527 45.1834 21.6258 45.2037 21.5967 45.2125C21.5131 45.2379 21.3816 45.2575 21.2551 45.2757C21.133 45.2939 21.0073 45.312 20.8983 45.3389C20.1511 45.5221 19.5057 45.4908 18.7586 45.4552C18.5725 45.4465 18.3807 45.437 18.1815 45.4312C18.1169 45.429 18.0514 45.4276 17.9875 45.4261C17.5005 45.4138 17.0412 45.4014 16.5782 45.2713C16.4554 45.2364 16.3319 45.2037 16.2076 45.171C15.9467 45.1013 15.6763 45.0293 15.419 44.9428C14.7824 44.7277 14.1413 44.3839 13.5214 44.0503L13.2968 43.9304C12.8963 43.7167 12.6914 43.4856 12.4319 43.1935C12.336 43.0852 12.2364 42.9732 12.118 42.8511C12.0177 42.7479 11.9188 42.6549 11.8229 42.5655C11.6237 42.3794 11.4355 42.2036 11.2712 41.963C11.2611 41.9485 11.2516 41.9187 11.2414 41.8896C11.2255 41.8424 11.208 41.7886 11.1717 41.7399C11.1041 41.6483 10.9754 41.5538 10.8257 41.4455C10.7167 41.3663 10.5684 41.258 10.5314 41.2035C10.5234 41.1912 10.5103 41.1483 10.5009 41.1199C10.4798 41.0531 10.4543 40.9702 10.4006 40.9004C10.3308 40.8096 10.2755 40.7209 10.2167 40.6272C10.1585 40.5349 10.0989 40.4397 10.0234 40.3386C9.99428 40.3001 9.95431 40.2659 9.91143 40.2296C9.90707 40.226 9.90125 40.2209 9.89616 40.2165C9.91433 40.1649 9.93541 40.0872 9.90634 40.0036C9.89398 39.9687 9.878 39.9469 9.80314 39.848C9.77552 39.8117 9.73845 39.7623 9.72755 39.7456C9.63597 39.6024 9.35834 39.1649 9.31037 38.8327C9.30383 38.7877 9.30529 38.7368 9.30674 38.6823C9.30819 38.6154 9.30965 38.5391 9.29729 38.4592C9.28276 38.3669 9.2406 38.284 9.20717 38.2179C9.19263 38.1895 9.17083 38.1466 9.16792 38.1314C9.16284 38.1045 9.16574 38.0609 9.16865 38.0187C9.17374 37.9431 9.17955 37.8581 9.15411 37.7716C9.1265 37.68 9.05963 37.6255 9.0153 37.5892C9.00803 37.5834 8.99713 37.5747 8.99131 37.5688C8.90773 37.3879 8.88884 37.172 8.87067 36.9627C8.85686 36.8057 8.84378 36.6582 8.80526 36.5201C8.78709 36.4547 8.74566 36.3769 8.69842 36.2875C8.65118 36.1988 8.59304 36.0891 8.57995 36.0281C8.57559 36.0055 8.5785 35.9765 8.58213 35.9401C8.58722 35.8892 8.59449 35.8253 8.58068 35.7533C8.55306 35.6087 8.4782 35.512 8.41715 35.4343C8.38445 35.3921 8.3561 35.3558 8.34375 35.3223C8.31468 35.2446 8.30668 35.1436 8.29796 35.0367C8.28779 34.9146 8.27761 34.7889 8.23473 34.6682C8.13589 34.3884 7.9273 33.8521 7.64094 33.4029C7.61187 33.3571 7.57481 33.328 7.54501 33.3055C7.51739 33.2837 7.50649 33.275 7.5014 33.2619C7.47814 33.2067 7.4578 33.1195 7.43817 33.0359C7.4091 32.913 7.3793 32.7859 7.32843 32.6848C7.29936 32.6274 7.2572 32.5867 7.22522 32.5562C7.23903 32.5133 7.25938 32.4494 7.24194 32.3745C7.21868 32.2757 7.14164 32.2226 7.09004 32.187C7.07405 32.1754 7.04934 32.1586 7.04425 32.1521C6.99847 32.0729 6.97303 32.0009 6.94686 31.9253C6.90253 31.7982 6.85238 31.6535 6.7063 31.474C6.68231 31.4442 6.64161 31.3999 6.58928 31.3439C6.52097 31.2698 6.37924 31.1172 6.35017 31.0663C6.34218 31.0416 6.34072 31.006 6.33854 30.9653C6.33564 30.8948 6.33127 30.8061 6.29203 30.7116C6.26296 30.6418 6.20118 30.5706 6.11033 30.471C6.08562 30.4442 6.04855 30.4027 6.04201 30.394C6.01658 30.3482 5.99986 30.3075 5.98169 30.2646C5.94826 30.1825 5.91047 30.0895 5.8138 29.9696C5.69243 29.8184 5.518 29.6919 5.34939 29.5691C5.20185 29.4623 5.04995 29.3518 4.96637 29.245C4.96346 29.2399 4.9591 29.221 4.95619 29.2086C4.94747 29.173 4.93657 29.1243 4.90023 29.0785C4.86971 29.0407 4.84572 29.0255 4.57681 28.8757C4.4787 28.8212 4.33116 28.7391 4.30209 28.718C4.19234 28.6381 4.12693 28.5465 4.05135 28.4411C3.97867 28.3394 3.90308 28.234 3.78461 28.1359C3.73447 28.0944 3.67923 28.0654 3.62981 28.0399C3.58984 28.0189 3.55204 27.9992 3.52806 27.9789C3.44375 27.9062 3.36308 27.8357 3.28895 27.7638C3.49317 27.8444 3.64798 27.936 3.86456 28.0632C3.92488 28.0988 3.98884 28.1366 4.06007 28.1773C4.36822 28.3554 4.68801 28.4935 4.99762 28.6272C5.34721 28.7784 5.67644 28.9208 5.99114 29.1156C6.15685 29.2181 6.32619 29.3467 6.49044 29.471C6.64452 29.588 6.80369 29.7086 6.96503 29.8118C7.17289 29.9456 7.40692 30.0735 7.63295 30.197C7.89459 30.3402 8.16569 30.4885 8.39317 30.644C8.49129 30.7109 8.58141 30.8061 8.67734 30.9064C8.76746 31.0016 8.86122 31.0997 8.9666 31.1775C9.0858 31.2654 9.2079 31.3628 9.32564 31.4573C9.54222 31.6303 9.7668 31.8091 9.99501 31.9493C10.3526 32.1688 10.9631 32.6427 11.3003 32.9632C11.3098 32.9719 11.3228 32.9959 11.3345 33.017C11.3592 33.062 11.3897 33.1173 11.4457 33.1623C11.5707 33.2626 11.8221 33.3549 12.1637 33.4741C12.2858 33.517 12.4007 33.557 12.4726 33.5875C13.5134 34.0345 14.5977 34.4197 15.6465 34.7925L15.7206 34.8187C15.8289 34.8572 15.943 34.8754 16.0535 34.8935C16.1589 34.9103 16.2592 34.9262 16.3464 34.9582C16.4779 35.0062 16.6131 35.0709 16.7556 35.1385C16.9816 35.246 17.2149 35.3572 17.4562 35.4117C17.5987 35.4437 17.7455 35.4619 17.8879 35.4801C17.9977 35.4939 18.1118 35.5084 18.2186 35.528C19.1569 35.7054 20.1569 35.8892 21.1585 36.0186C21.3125 36.0382 21.4775 36.0455 21.6367 36.052C21.8242 36.06 22.0015 36.0673 22.1549 36.0942C22.2792 36.116 22.402 36.1465 22.5212 36.1763C22.8591 36.2606 23.2087 36.3486 23.6433 36.2497C23.9842 36.1727 24.3265 36.1669 24.6899 36.1618C25.0395 36.1567 25.4014 36.1509 25.7663 36.076C25.8593 36.0571 25.948 36.0244 26.0345 35.9932C26.1275 35.9597 26.2147 35.9278 26.2881 35.9198C26.5512 35.8914 26.802 35.8834 27.0447 35.8762C27.4597 35.8638 27.8885 35.8507 28.3616 35.7308C28.4641 35.7046 28.5593 35.677 28.6516 35.6501C28.7723 35.6152 28.8857 35.5818 29.0157 35.552C29.2069 35.5077 29.3668 35.4779 29.5216 35.4488C29.8697 35.3841 30.1706 35.3282 30.6278 35.1377C30.997 34.9844 31.3284 34.8696 31.6794 34.7475C31.7826 34.7118 31.888 34.6748 31.9978 34.6363C32.0922 34.6028 32.1809 34.5556 32.2674 34.5091C32.3611 34.4589 32.4498 34.411 32.537 34.3862C32.7878 34.3143 33.0967 34.2765 33.3961 34.2402C33.7464 34.1973 34.1091 34.1537 34.4107 34.0519C34.4826 34.0279 34.5393 33.9836 34.5844 33.948C34.6076 33.9298 34.6433 33.9022 34.6571 33.8986C35.099 33.7896 35.7494 33.6645 36.2109 33.5839C36.3127 33.5657 36.3846 33.5563 36.4435 33.5483C36.623 33.5235 36.6993 33.509 36.9784 33.4C37.1856 33.3186 37.3956 33.2677 37.5984 33.219C37.7764 33.1761 37.9603 33.1318 38.1391 33.0679C38.2576 33.025 38.4146 32.9327 38.581 32.8346C38.6885 32.7713 38.7998 32.7059 38.879 32.6681C39.0083 32.6063 39.1537 32.5417 39.3085 32.4726C39.7308 32.2844 40.2083 32.0714 40.5353 31.8418C40.5891 31.804 40.6465 31.7436 40.7076 31.679C40.7388 31.6455 40.7861 31.5968 40.8057 31.5808C40.8638 31.5525 40.9583 31.5278 41.0579 31.5009C41.2272 31.4558 41.4198 31.4042 41.5848 31.3047C41.8348 31.1542 42.0746 30.9275 42.3065 30.708C42.4795 30.5445 42.6437 30.3896 42.7927 30.2835C42.8087 30.2741 42.8661 30.2545 42.9046 30.2421C43.0028 30.2094 43.114 30.1723 43.2004 30.1098C43.2738 30.0568 43.3385 29.9754 43.4018 29.8962C43.4337 29.8555 43.4824 29.7944 43.5028 29.7791C43.5478 29.7457 43.6162 29.7123 43.6881 29.6767C43.7862 29.6287 43.8982 29.5735 43.9948 29.4979C44.098 29.4165 44.1867 29.3133 44.2717 29.2137C44.3677 29.1018 44.4585 28.9957 44.5537 28.9397C44.6591 28.8772 44.7986 28.8249 44.9469 28.7696C45.1352 28.6991 45.3307 28.6265 45.4898 28.5189C45.5356 28.4884 45.5603 28.4491 45.5792 28.4201C45.5967 28.3932 45.6039 28.3815 45.6243 28.3699C45.6875 28.3321 45.7522 28.3132 45.8271 28.2907C45.8481 28.2841 45.8692 28.2783 45.891 28.2711C45.8728 28.2921 45.859 28.3125 45.8496 28.3321C45.8183 28.3932 45.7943 28.4528 45.7718 28.5094C45.7384 28.5923 45.7071 28.6708 45.6519 28.7602C45.4193 29.1403 45.1453 29.79 45.0283 30.2392C44.9927 30.3766 44.8808 30.5786 44.7732 30.7734C44.6751 30.9507 44.5741 31.1339 44.5079 31.3032C44.4512 31.4486 44.436 31.583 44.4236 31.7008C44.4135 31.7931 44.4047 31.8723 44.3786 31.9399C44.3568 31.9944 44.3408 32.0329 44.3277 32.0642C44.2819 32.1746 44.2688 32.2081 44.2245 32.4116C44.1961 32.5388 44.1482 32.6332 44.0915 32.743C44.0065 32.9087 43.9098 33.0969 43.8909 33.408C43.888 33.4589 43.8909 33.5076 43.8938 33.5548L43.8916 33.5584ZM6.43448 18.801C6.43811 18.7938 6.44175 18.7858 6.44465 18.7778C6.46355 18.7283 6.47445 18.6797 6.4839 18.636C6.49044 18.6063 6.49698 18.5765 6.50425 18.5561C6.51951 18.5408 6.55513 18.5132 6.57766 18.4965C6.66051 18.4325 6.73246 18.3773 6.75426 18.2872C6.76953 18.224 6.76662 18.1513 6.76371 18.0662C6.76081 17.9798 6.75717 17.8715 6.77752 17.8053C6.79278 17.7632 6.88363 17.636 6.91852 17.5873C6.96794 17.5182 6.98248 17.4979 6.99338 17.4616C7.00791 17.4129 7.01082 17.3598 7.01445 17.298C7.01736 17.2435 7.02245 17.165 7.03771 17.1192C7.08059 17.0967 7.154 17.0524 7.19542 16.9499C7.23758 16.846 7.25938 16.7224 7.28191 16.5916C7.30517 16.46 7.32915 16.3234 7.37203 16.234C7.38948 16.197 7.41201 16.1795 7.45416 16.149C7.49777 16.117 7.55155 16.0778 7.58934 16.0087C7.76159 15.6926 7.89241 15.1867 7.98762 14.7804C7.99489 14.7485 8.00216 14.7063 8.01015 14.6605C8.01742 14.6169 8.03123 14.5384 8.04068 14.5086C8.0603 14.4868 8.1119 14.4447 8.14315 14.4185C8.23473 14.3422 8.29578 14.292 8.31904 14.2194C8.33866 14.1576 8.34665 14.0776 8.35538 13.9933C8.36119 13.9337 8.36846 13.8589 8.37863 13.8269C8.41715 13.7033 8.50073 13.55 8.58141 13.4017C8.66281 13.2527 8.74639 13.0987 8.79581 12.9569C8.8227 12.8792 8.84014 12.7694 8.85831 12.6531C8.87212 12.5667 8.88884 12.462 8.90628 12.3988C8.94625 12.3784 9.01167 12.3348 9.02911 12.2447C9.05019 12.1328 9.04728 12.0259 9.04437 11.9234C9.04074 11.8064 9.0371 11.6952 9.06908 11.5753C9.07126 11.5659 9.07998 11.5579 9.11559 11.5317C9.1592 11.4997 9.22534 11.4518 9.25659 11.3653C9.30311 11.2366 9.2893 11.0942 9.27912 10.991C9.27767 10.9772 9.27622 10.9605 9.27476 10.9452C9.31183 10.9168 9.36052 10.8747 9.39614 10.8064C9.43684 10.7293 9.60327 10.1639 9.61563 10.0723C9.62144 10.0316 9.61926 9.99455 9.61344 9.96185C9.63961 9.93932 9.66505 9.90879 9.68104 9.86519C9.71447 9.77434 9.73336 9.65296 9.75299 9.52505C9.76534 9.44292 9.77843 9.35934 9.79369 9.29757L9.79659 9.29466C9.82276 9.26922 9.86637 9.22707 9.88744 9.15948C9.91433 9.07371 9.89762 8.98287 9.88308 8.90292C9.87799 8.8753 9.87 8.83315 9.87073 8.81861C9.88454 8.65 9.93686 8.44359 9.98701 8.24445C10.0161 8.12817 10.0437 8.01915 10.0641 7.91812C10.1331 7.56491 10.2487 7.21532 10.3635 6.88899C10.3686 6.87519 10.3729 6.86428 10.3766 6.85629C10.4165 6.84975 10.4761 6.83303 10.5343 6.77925C10.6564 6.66514 10.7182 6.51179 10.7727 6.37661C10.8068 6.29085 10.8395 6.21017 10.8824 6.14622C10.894 6.13096 10.9369 6.09098 10.9631 6.067C11.022 6.01249 11.0597 5.9776 11.0845 5.93618C11.1172 5.88312 11.1244 5.83079 11.1302 5.793C11.1324 5.78064 11.1346 5.76175 11.1361 5.75884C11.1891 5.69779 11.5845 5.37946 11.6666 5.32858C11.6913 5.31332 11.7357 5.30096 11.7756 5.29079C11.8331 5.27553 11.8919 5.25954 11.9428 5.2232C11.99 5.18977 12.0227 5.14761 12.0547 5.10764C12.0918 5.06113 12.1267 5.01679 12.1834 4.98481C12.3091 4.91431 12.4196 4.82928 12.5264 4.74715C12.6136 4.67956 12.6957 4.61633 12.7822 4.564C12.8208 4.54075 12.9465 4.51676 12.9945 4.50804C13.0693 4.49423 13.11 4.48624 13.1529 4.44772C13.1936 4.41065 13.2081 4.36704 13.2139 4.33216C13.2416 4.32416 13.2765 4.31762 13.2975 4.31399C13.36 4.30236 13.4189 4.29218 13.4698 4.25512C13.5432 4.20206 13.5693 4.13302 13.5824 4.09159C13.5955 4.08868 13.6188 4.09086 13.6733 4.10177C13.7358 4.11412 13.8143 4.12938 13.8986 4.10467C13.9676 4.08432 14.012 4.03418 14.0686 3.97022C14.0934 3.9426 14.1442 3.88446 14.1668 3.8721C14.4655 3.71875 14.6021 3.69331 14.9328 3.63299L14.9699 3.62645C15.1501 3.59302 15.2911 3.52324 15.4154 3.46147C15.5593 3.39024 15.6836 3.32847 15.8573 3.32338C16.2577 3.31175 16.6044 3.27105 16.9707 3.22817C17.1299 3.20927 17.2927 3.19038 17.4649 3.17366C17.8334 3.13732 19.0944 3.04429 19.8619 3.38879C20.0617 3.47818 20.2507 3.63226 20.4338 3.78125C20.5676 3.89027 20.7057 4.00292 20.8474 4.08868C20.9441 4.14755 21.0647 4.19116 21.1803 4.23404C21.2617 4.26384 21.3387 4.29146 21.3939 4.3198C21.4819 4.36486 21.5829 4.44336 21.689 4.52548C21.7973 4.60906 21.91 4.69628 22.0248 4.76096C23.2182 5.43033 24.1274 5.38164 25.2946 5.07203C25.5075 5.01534 25.6028 4.97609 25.8041 4.85981C25.972 4.76314 26.1464 4.67157 26.3157 4.5829C26.5192 4.47606 26.73 4.36559 26.9357 4.24349C27.1116 4.13883 27.262 4.024 27.4081 3.9128C27.5069 3.83722 27.6087 3.75945 27.7192 3.68532C27.8543 3.59302 27.9859 3.54141 28.1254 3.48618C28.2381 3.44184 28.3544 3.39533 28.4787 3.32701C28.5361 3.29503 28.5651 3.24634 28.5819 3.21727C28.5826 3.21581 28.5833 3.21436 28.584 3.21291C28.6029 3.20855 28.6335 3.20491 28.6553 3.20273C28.7185 3.19546 28.7897 3.18747 28.8559 3.15258C28.898 3.13078 28.9365 3.09953 28.9772 3.06682C29.0259 3.02758 29.0819 2.98324 29.1342 2.96362C29.2185 2.93237 29.337 2.91638 29.4511 2.90039C29.5572 2.88585 29.6575 2.87204 29.7396 2.84515C29.8196 2.81899 29.8632 2.76012 29.8879 2.71724C29.9308 2.71724 29.9882 2.72014 30.0318 2.7216C30.1939 2.72814 30.3058 2.73105 30.385 2.71578C30.4773 2.69834 30.5326 2.64529 30.5631 2.61694C30.5653 2.61476 30.5674 2.61258 30.5696 2.6104C30.8393 2.52464 31.2005 2.49702 31.5195 2.47231C31.6438 2.46286 31.7615 2.45341 31.8713 2.44179C32.0675 2.42071 32.1954 2.47158 32.3423 2.53118C32.4462 2.57261 32.5632 2.62058 32.7064 2.6402C32.7827 2.6511 32.8605 2.65764 32.9346 2.66346C33.1323 2.68017 33.3191 2.69616 33.4789 2.78119C33.8329 2.96943 34.1861 3.18747 34.5277 3.39896C34.8947 3.62572 35.2741 3.86047 35.6658 4.06543C35.7901 4.13084 35.9188 4.19261 36.0547 4.25875C36.4232 4.43754 36.804 4.62215 37.0831 4.85981C37.211 4.9681 37.3215 5.10255 37.4385 5.245C37.5482 5.37873 37.6616 5.51682 37.7953 5.63819C37.8964 5.7305 38.0003 5.82207 38.1049 5.91365C38.5308 6.28939 38.9713 6.6775 39.2772 7.1579C39.3797 7.31852 39.4728 7.54019 39.5636 7.75532C39.6377 7.93121 39.7075 8.09691 39.7845 8.23791C39.863 8.38181 39.943 8.49883 40.0142 8.60203C40.1538 8.80553 40.2642 8.96615 40.3318 9.26486L40.3638 9.40731C40.4299 9.70529 40.5055 10.0425 40.608 10.3114C40.6494 10.4205 40.7199 10.5287 40.7882 10.6327C40.8427 10.7163 40.8987 10.802 40.9256 10.8696C41.0026 11.0608 41.1153 11.5731 41.156 11.8013C41.1553 11.8108 41.1524 11.8202 41.1509 11.8297C41.1407 11.8806 41.1255 11.9576 41.1516 12.0492C41.1727 12.1219 41.225 12.1807 41.2803 12.2432C41.3043 12.2701 41.3435 12.3145 41.3515 12.3319C41.3697 12.3741 41.3689 12.4068 41.3675 12.4671C41.366 12.5158 41.3646 12.5761 41.3791 12.6437C41.4423 12.9286 41.6051 13.268 41.7491 13.5674C41.7789 13.6285 41.8065 13.6881 41.8326 13.7433C41.8697 13.8225 41.9191 13.917 41.9722 14.018C42.0645 14.1939 42.1691 14.3938 42.2113 14.5217C42.2825 14.739 42.3181 14.9004 42.3523 15.0559C42.4155 15.3459 42.4707 15.5959 42.7208 16.0392C42.7644 16.1294 42.9904 16.8293 43.0391 17.0182C43.0209 17.0458 42.9962 17.088 42.9875 17.1432C42.9722 17.2406 43.0144 17.3547 43.1147 17.5909C43.1423 17.6571 43.1714 17.7254 43.1808 17.7574C43.2288 17.9202 43.2608 18.0881 43.2957 18.2661C43.332 18.4558 43.3705 18.652 43.4287 18.8446C43.4519 18.9224 43.4832 18.9813 43.5108 19.0329C43.5515 19.1092 43.5776 19.1593 43.5813 19.2684L43.5827 19.3018C43.5893 19.5184 43.5944 19.6615 43.6917 19.9217C43.731 20.0257 44.0929 20.5787 44.0966 20.5838C44.1482 20.6609 44.223 20.7125 44.2884 20.7583C44.3284 20.7859 44.3837 20.8244 44.3953 20.8469C44.4062 20.868 44.4076 20.884 44.4098 20.9211C44.4127 20.9574 44.4156 21.0032 44.4331 21.0555C44.4505 21.1071 44.6867 21.5701 44.7071 21.6035C44.7907 21.738 44.9033 21.8906 45.0225 22.0519C45.2558 22.3666 45.5196 22.7235 45.5901 22.988L45.6105 23.0644C45.7057 23.4212 45.7202 23.4663 45.9143 23.8268C45.9164 23.8348 45.9172 23.8435 45.9179 23.8522C45.9237 23.8951 45.9324 23.959 45.971 24.0266C46.032 24.1342 46.1388 24.1843 46.2093 24.2156C46.2144 24.2352 46.2202 24.257 46.2253 24.2759C46.2675 24.4416 46.3082 24.587 46.3692 24.6851C46.4128 24.7541 46.471 24.8174 46.5277 24.8777C46.5895 24.9438 46.6534 25.0121 46.6759 25.0681C46.6788 25.0754 46.6803 25.0994 46.681 25.1161C46.6839 25.159 46.6876 25.2186 46.7145 25.2803C46.7232 25.3 46.7544 25.3421 46.7944 25.3893C46.495 25.3145 46.2297 25.1713 45.9404 24.9809C45.7733 24.8704 45.2362 24.5092 45.1606 24.4489C45.024 24.3021 44.8263 24.0513 44.5559 23.6829C44.4854 23.5862 44.4025 23.4612 44.3146 23.3289C44.1067 23.0157 43.8713 22.6603 43.6532 22.4604C43.5784 22.3921 43.4737 22.3448 43.3727 22.2991C43.3036 22.2678 43.2179 22.2293 43.1881 22.2002C43.0275 22.0454 42.4984 21.3775 42.3777 21.1878C42.0848 20.7277 41.8915 20.5097 41.5703 20.1485L41.4678 20.0329C41.4285 19.9879 41.382 19.9377 41.3341 19.8847C41.196 19.7335 41.0397 19.5627 40.951 19.4333C40.5956 18.9144 40.2519 18.3519 39.919 17.8075C39.5142 17.1454 39.0956 16.4608 38.6464 15.8365C38.0693 15.0348 37.3869 14.3531 36.7379 13.7237C36.2327 13.2338 35.6164 12.664 34.8729 12.1531C34.2065 11.6945 33.468 11.2737 32.4803 10.7875C32.4462 10.7708 32.4033 10.7402 32.3575 10.7075C32.2281 10.6152 32.0508 10.4888 31.8306 10.5171C31.8037 10.5207 31.7485 10.5346 31.7063 10.5876C31.7012 10.5876 31.6947 10.5876 31.6881 10.5869C31.5617 10.5789 31.4359 10.5382 31.3022 10.4946C31.1503 10.4452 30.9926 10.3943 30.8124 10.3812L30.627 10.3674C30.3857 10.3492 30.1372 10.3311 29.9046 10.3209C29.7483 10.3143 29.6052 10.3768 29.4889 10.4277C29.4329 10.4517 29.3755 10.4764 29.3428 10.4822C29.1887 10.5062 28.7599 10.5462 28.5964 10.5535C28.3456 10.5651 28.2933 10.5673 28.2061 10.6487C28.1916 10.6625 28.169 10.6835 28.0862 10.725C28.0368 10.7497 27.943 10.7679 27.8602 10.7831C27.7918 10.7962 27.7272 10.8086 27.669 10.8267C27.6058 10.8463 27.5549 10.8812 27.5142 10.9096C27.5026 10.9176 27.4851 10.9292 27.4757 10.935C27.4248 10.9437 27.411 10.9423 27.4037 10.9416C27.3129 10.9307 27.2686 10.9539 27.1058 11.0411C26.9488 11.1247 26.8521 11.1247 26.7176 11.1254C26.6123 11.1254 26.4923 11.1254 26.3419 11.169C26.259 11.1923 26.1726 11.2228 26.0897 11.2526C25.9015 11.3188 25.7074 11.3871 25.5344 11.3871C25.5214 11.3863 25.485 11.374 25.461 11.366C25.3884 11.342 25.2982 11.3122 25.1972 11.3268C25.1107 11.3391 24.985 11.382 24.8629 11.4227C24.7975 11.4445 24.7081 11.4743 24.687 11.4779C24.663 11.4772 24.602 11.4539 24.5685 11.4401C24.5039 11.414 24.4428 11.39 24.3745 11.3965C24.3069 11.4031 24.2546 11.438 24.2081 11.4685C24.1928 11.4787 24.1666 11.4961 24.1572 11.4997C23.7444 11.6269 23.5699 11.592 23.2538 11.5273C23.1557 11.5077 23.0452 11.4852 22.9129 11.4641C22.8075 11.4474 22.7014 11.4438 22.5989 11.4401C22.5117 11.4372 22.4289 11.4343 22.3591 11.4234C22.3119 11.4161 22.2777 11.4023 22.2334 11.3842C22.1432 11.3471 22.0306 11.3013 21.8256 11.3224C21.604 11.3449 21.5008 11.3297 21.2965 11.2999C21.25 11.2933 21.1992 11.2853 21.141 11.2781C21.0792 11.2701 21.0189 11.2606 20.9593 11.2519C20.6759 11.2097 20.4084 11.169 20.1017 11.217C20.0152 11.2308 19.8851 11.193 19.7805 11.1632C19.6983 11.14 19.6213 11.1174 19.5515 11.1138C19.4679 11.1087 19.3764 11.1378 19.2804 11.169C19.2288 11.1858 19.1438 11.2126 19.1075 11.2141C19.1016 11.2119 19.0958 11.2083 19.0893 11.2054C19.0551 11.1894 19.0035 11.1647 18.9352 11.1581C18.8175 11.1465 18.7114 11.1705 18.6169 11.1916C18.5377 11.209 18.4693 11.2243 18.4068 11.2177C18.3959 11.2163 18.3661 11.2032 18.3487 11.1952C18.2993 11.1734 18.2382 11.1458 18.1655 11.1545C18.0354 11.169 17.9599 11.2664 17.9141 11.3246C17.9126 11.3268 17.9104 11.3289 17.909 11.3311C17.8756 11.3384 17.8312 11.3435 17.7876 11.3486C17.7062 11.358 17.6139 11.3689 17.5282 11.3965C17.4199 11.4314 17.2825 11.4997 17.1379 11.5717C16.9758 11.6524 16.7309 11.7737 16.6451 11.7752C16.6386 11.7752 16.6197 11.7694 16.6059 11.7657C16.5361 11.7461 16.4067 11.7098 16.2694 11.8021C16.1938 11.8522 16.1691 11.9271 16.1574 11.9685C16.0753 12.0237 15.8326 12.1567 15.7562 12.1894C15.7475 12.1924 15.7206 12.1953 15.7032 12.1967C15.645 12.2025 15.5731 12.2105 15.507 12.252C15.4503 12.2876 15.4197 12.337 15.4023 12.3813C15.3187 12.3886 15.2199 12.3995 15.1407 12.4467C15.0651 12.4911 15.0266 12.5594 15.0004 12.6044C14.9989 12.6066 14.9975 12.6095 14.9968 12.6117C14.9946 12.6117 14.9917 12.6117 14.9895 12.6117C14.9393 12.6161 14.8543 12.6233 14.7809 12.6837C14.7242 12.7302 14.701 12.7883 14.6886 12.8319C14.6791 12.8348 14.669 12.8385 14.6603 12.8414C14.5985 12.861 14.5287 12.8843 14.472 12.9293C14.4262 12.9657 14.3928 13.0136 14.3608 13.0601C14.3376 13.0936 14.3143 13.1277 14.2932 13.1459C14.0505 13.3588 13.8135 13.5216 13.5635 13.6939C13.4996 13.7375 13.4356 13.7818 13.3717 13.8269C13.323 13.8611 13.2939 13.9098 13.235 14.0079C13.1776 14.1038 13.0824 14.2637 13.0054 14.3197C12.9494 14.3604 12.9036 14.3923 12.8629 14.4207C12.7437 14.5035 12.658 14.5631 12.5024 14.7208C12.4101 14.8146 12.3135 14.8996 12.2197 14.9818C12.0424 15.1373 11.8592 15.2986 11.6971 15.5239C11.5227 15.7667 11.3337 15.9869 11.1339 16.2195C10.8613 16.5378 10.5786 16.867 10.3395 17.2544C10.309 17.3038 10.2872 17.3598 10.2668 17.4136C10.2479 17.463 10.2189 17.5379 10.1971 17.5568C10.1934 17.5582 10.1818 17.5604 10.1731 17.5619C10.1338 17.5691 10.0691 17.5808 10.011 17.636C9.98774 17.6585 9.9703 17.6745 9.59527 18.2581L9.57202 18.2945C9.21662 18.8461 8.82633 19.4079 8.44913 19.9515L8.2827 20.1914C8.27688 20.1957 8.27034 20.1986 8.2638 20.2023C8.23037 20.2226 8.18385 20.2495 8.1526 20.3033C8.11408 20.3687 8.11045 20.4327 8.10754 20.4799C8.10609 20.509 8.10463 20.5264 8.09882 20.5373C8.09373 20.5468 8.09155 20.5511 8.0276 20.5628C7.97236 20.5729 7.8975 20.5875 7.835 20.6456C7.72089 20.7525 7.73179 20.8833 7.73761 20.9538C7.73833 20.9632 7.73906 20.9756 7.73979 20.9828C7.69909 21.0708 7.56972 21.2263 7.46506 21.3528C7.38439 21.4502 7.30808 21.5425 7.25429 21.621C7.1838 21.7249 7.1162 21.8441 7.05007 21.9589C6.97739 22.0868 6.90834 22.2075 6.84148 22.2991C6.79787 22.3587 6.75645 22.363 6.69903 22.3696C6.65542 22.3739 6.59583 22.3805 6.54277 22.4241C6.50207 22.4575 6.48753 22.4931 6.45556 22.5701C6.43375 22.6239 6.36616 22.7882 6.32401 22.8252C6.30002 22.847 6.27313 22.8572 6.22371 22.8747C6.17865 22.8914 6.12196 22.9117 6.06454 22.9495C5.98314 23.0033 5.93445 23.0745 5.8952 23.1312C5.88067 23.1523 5.85886 23.1836 5.85087 23.1901C5.84215 23.1952 5.81453 23.2039 5.79563 23.2097C5.73676 23.2286 5.65536 23.254 5.58923 23.3158C5.47149 23.4248 5.46567 23.544 5.47294 23.6153C5.43151 23.664 5.36901 23.7366 5.33776 23.7722C5.33558 23.7722 5.3334 23.7722 5.33122 23.773C5.2956 23.7781 5.24182 23.7853 5.18949 23.8217C5.1219 23.8682 5.09719 23.9372 5.08266 23.983C5.04777 23.9896 5.00053 23.9997 4.95401 24.0288C4.80866 24.1211 4.67638 24.2556 4.54919 24.3864C4.43291 24.5056 4.32316 24.6175 4.21487 24.688C4.05062 24.7948 3.86819 24.8864 3.69231 24.9758C3.57893 25.0332 3.46119 25.0928 3.34782 25.1561C3.29549 25.1851 3.26569 25.2265 3.24825 25.2513C3.23444 25.2702 3.23444 25.2702 3.22644 25.2738C3.0789 25.3465 2.90375 25.3617 2.71769 25.3755C2.77365 25.3283 2.83107 25.2789 2.86014 25.2106C2.88849 25.1459 2.89212 25.0834 2.8943 25.0376C2.89503 25.0201 2.89648 24.9962 2.89939 24.9889C2.92046 24.9278 2.99387 24.8443 3.05855 24.7701C3.09635 24.7265 3.13632 24.6815 3.16975 24.6357C3.3231 24.43 3.4641 24.2083 3.60074 23.9939C3.76863 23.7301 3.94233 23.4568 4.14147 23.2104C4.21124 23.124 4.26793 23.0585 4.31808 23.0011C4.46198 22.8369 4.55646 22.7279 4.71345 22.4008C4.7556 22.3136 4.82319 22.2496 4.90241 22.1755C4.96346 22.1181 5.02742 22.0585 5.08411 21.9822C5.15751 21.8841 5.19167 21.7591 5.2222 21.6486C5.23964 21.5846 5.25854 21.5178 5.27743 21.4858C5.31014 21.4298 5.34139 21.3804 5.37046 21.3324C5.43951 21.2212 5.50419 21.1158 5.57832 20.9676C5.59068 20.9421 5.63065 20.9102 5.66336 20.8847C5.70624 20.8506 5.75057 20.815 5.77964 20.7634C5.84796 20.642 5.9032 20.4065 5.97442 20.0874C5.99623 19.9886 6.0173 19.8948 6.03184 19.8418C6.03983 19.8142 6.08126 19.7429 6.11469 19.6855C6.18228 19.5692 6.26732 19.4253 6.31819 19.2633C6.33127 19.2226 6.35308 19.1681 6.37416 19.1157C6.4025 19.046 6.42939 18.9805 6.44393 18.9246C6.4541 18.8853 6.45047 18.8395 6.43448 18.8003V18.801ZM5.58414 25.3348C5.70188 25.2382 5.84433 25.1524 5.99477 25.0608C6.20481 24.9337 6.42285 24.8021 6.60455 24.6233C6.6983 24.531 6.77825 24.4133 6.85529 24.2999C6.92143 24.2025 6.98974 24.1015 7.0617 24.0252C7.06678 24.0201 7.08495 24.0121 7.10167 24.0055C7.13583 23.9917 7.18162 23.9736 7.22232 23.9336C7.27174 23.8849 7.29499 23.8202 7.31389 23.7606C7.40401 23.7439 7.55228 23.7156 7.68819 23.5688C7.75868 23.4924 7.8379 23.3762 7.91422 23.2635C7.97163 23.1792 8.03123 23.092 8.0683 23.0506C8.08937 23.0338 8.15769 22.9931 8.19912 22.9692C8.34302 22.8834 8.40334 22.8463 8.43605 22.7824C8.47893 22.6988 8.46512 22.6036 8.44986 22.5033C8.4455 22.4757 8.43968 22.4335 8.4375 22.4059C8.46221 22.3848 8.50001 22.3557 8.52472 22.3368C8.57414 22.2991 8.61629 22.2663 8.64536 22.2373C8.67662 22.2068 8.75366 22.1392 8.81543 22.0847C8.93172 21.9829 8.94771 21.9691 8.96515 21.9429C9.00294 21.8877 9.01385 21.8237 9.02475 21.762C9.02983 21.7322 9.0371 21.6915 9.0451 21.674C9.07199 21.6159 9.2079 21.4632 9.25296 21.4138L9.2595 21.4066C9.41358 21.2343 9.50588 21.0679 9.59527 20.9065C9.64179 20.8229 9.68903 20.7372 9.74717 20.6463C9.76316 20.6333 9.80386 20.6093 9.8293 20.594C9.8998 20.5519 9.96666 20.5126 10.0095 20.453C10.0561 20.3876 10.0713 20.3077 10.0844 20.2364C10.088 20.2168 10.0931 20.1892 10.0982 20.1681C10.1026 20.1681 10.1062 20.1667 10.1098 20.1667C10.1556 20.1608 10.2254 20.1514 10.2763 20.0874C10.3235 20.0278 10.3228 19.9617 10.3221 19.9137C10.3221 19.905 10.3221 19.8956 10.3221 19.8868C10.434 19.591 10.6273 19.3505 10.8686 19.0678C10.8969 19.0343 10.9478 18.9791 11.0052 18.9166C11.2291 18.6731 11.3287 18.5597 11.3635 18.4885C11.3904 18.434 11.4013 18.365 11.4181 18.2472C11.4253 18.1949 11.437 18.1149 11.4464 18.0888C11.4573 18.0583 11.4653 18.043 11.4689 18.0379C11.4718 18.0364 11.4747 18.0357 11.4777 18.0343C11.5075 18.0219 11.5569 18.0001 11.6027 17.9485C11.6543 17.8896 11.6797 17.8068 11.7037 17.7268C11.7088 17.7101 11.716 17.6869 11.7219 17.6701C11.7328 17.6651 11.7466 17.66 11.7575 17.6556C11.8192 17.6316 11.8956 17.6018 11.9508 17.5379C12.0198 17.4587 12.0758 17.3613 12.131 17.2675C12.1826 17.1781 12.2364 17.0851 12.2917 17.0284C12.3353 16.9833 12.3629 16.9579 12.3847 16.9383C12.4421 16.8859 12.4741 16.8547 12.5613 16.7224C12.6492 16.5901 12.7292 16.5356 12.8309 16.4673C12.9 16.4208 12.9777 16.3677 13.057 16.2885C13.1195 16.2253 13.1631 16.1286 13.2045 16.0356C13.2241 15.992 13.2532 15.9259 13.2634 15.9121C13.4087 15.7769 13.5941 15.6635 13.8288 15.5646C13.8361 15.5639 13.8433 15.5632 13.8506 15.5632C13.8935 15.5603 13.9516 15.5559 14.0054 15.5174C14.0708 15.4702 14.0883 15.3989 14.1006 15.3473C14.1035 15.3357 14.1079 15.3168 14.1115 15.3074C14.1609 15.2449 14.2758 15.1489 14.3601 15.0784C14.3979 15.0464 14.4335 15.0166 14.4633 14.9912C14.5054 14.9541 14.5273 14.9004 14.5243 14.8459C14.5345 14.8393 14.5454 14.832 14.5556 14.8233C14.6108 14.7783 14.6312 14.7201 14.6414 14.6816C14.7075 14.646 14.8478 14.5842 14.9292 14.5479C15.1232 14.4621 15.1574 14.4468 15.1937 14.4011C15.2431 14.3386 15.2417 14.2695 15.2388 14.2281C15.3391 14.1009 15.6683 13.941 15.8507 13.8531C15.9118 13.8233 15.967 13.7964 16.0106 13.7738C16.0775 13.739 16.1385 13.6735 16.217 13.5863C16.2352 13.566 16.2614 13.5376 16.2766 13.5224C16.2853 13.5202 16.2977 13.518 16.3072 13.5158C16.3653 13.5042 16.454 13.4868 16.5375 13.425C16.6218 13.3618 16.6604 13.2985 16.6858 13.2571C16.7069 13.2222 16.7142 13.2091 16.8246 13.1851C16.8486 13.1801 16.89 13.1713 16.9409 13.1612C17.2818 13.0914 17.4678 13.0492 17.5412 13.0129C17.7753 12.8973 18.0384 12.8029 18.2935 12.7106C18.3465 12.6917 18.3988 12.6728 18.4512 12.6531C18.4744 12.6444 18.4948 12.6466 18.5384 12.651C18.5871 12.656 18.6532 12.6633 18.7295 12.6451C18.7971 12.6284 18.8415 12.587 18.8734 12.5572C18.9105 12.5223 18.9105 12.5223 18.9454 12.5325C19.2775 12.6342 19.6075 12.6168 19.9273 12.6008C20.1053 12.5914 20.2892 12.5819 20.4673 12.5943L20.6395 12.6059C21.165 12.6422 21.8184 12.6866 22.2857 12.7745C22.45 12.805 22.5873 12.8377 22.7203 12.8697C23.1251 12.9657 23.4449 13.0412 24.0365 12.9402C24.3788 12.8813 24.7684 12.869 25.1449 12.8566C25.4465 12.8472 25.7576 12.837 26.0476 12.8036C26.2583 12.7796 26.4887 12.7215 26.7118 12.6648C26.8354 12.6335 26.9524 12.6044 27.0651 12.5805C27.6756 12.4518 27.9227 12.3522 28.4147 12.1531L28.5433 12.1015C28.8093 11.9947 28.9598 11.9816 29.1676 11.9634C29.2629 11.9554 29.3704 11.946 29.5012 11.9264C29.587 11.914 29.6575 11.8762 29.7084 11.8486C29.7193 11.8428 29.7324 11.8355 29.7418 11.8311C29.7592 11.8326 29.7876 11.8384 29.8094 11.8435C29.885 11.8588 29.9896 11.8806 30.1052 11.858C30.2135 11.837 30.276 11.7701 30.3131 11.7294C30.3145 11.7272 30.3167 11.7258 30.3181 11.7236C30.3777 11.7323 30.4998 11.7643 30.5776 11.7846C30.6837 11.813 30.7847 11.8391 30.8552 11.8486C30.989 11.8653 31.114 11.8755 31.2346 11.8857C31.5944 11.9147 31.9047 11.9402 32.2652 12.1386C32.2783 12.1466 32.3095 12.1815 32.3299 12.2047C32.367 12.2469 32.4091 12.2948 32.4629 12.3326C32.6359 12.4547 32.8314 12.5092 33.0044 12.5572C33.1192 12.5892 33.2282 12.619 33.3147 12.6648C33.5218 12.7738 33.766 12.9882 34.003 13.1968C34.1352 13.3131 34.2602 13.4228 34.3773 13.5129C34.4797 13.5914 34.6084 13.6706 34.7327 13.7462C34.8649 13.8269 35.0016 13.9105 35.0808 13.9795C35.1673 14.0551 35.2479 14.1845 35.3257 14.3102C35.3962 14.4229 35.4689 14.5399 35.5539 14.6315C35.6331 14.7172 35.7349 14.7841 35.833 14.8495C35.9042 14.8967 35.9718 14.9418 36.0191 14.9861C36.1419 15.1017 36.2785 15.2674 36.4101 15.4273C36.5089 15.5479 36.6114 15.6722 36.7102 15.7776C36.7553 15.8256 36.8047 15.8772 36.8571 15.9317C37.0962 16.1802 37.3934 16.4891 37.5141 16.7442C37.5446 16.8082 37.5591 16.8511 37.5737 16.8925C37.6013 16.971 37.6274 17.0458 37.7248 17.1948C37.8389 17.37 37.9094 17.4972 37.9988 17.6585C38.0235 17.7036 38.0497 17.7501 38.078 17.801C38.11 17.8584 38.1616 17.91 38.2161 17.9638C38.2467 17.9943 38.2983 18.0452 38.3077 18.0633C38.315 18.0822 38.3186 18.1106 38.3223 18.144C38.3295 18.2087 38.339 18.2974 38.3913 18.3918C38.4625 18.5205 38.5897 18.6033 38.6922 18.6695C38.7285 18.6927 38.7823 18.7276 38.7961 18.7436C38.8717 18.8403 38.9458 19.0147 39.0171 19.184C39.0839 19.3432 39.1472 19.4937 39.222 19.6056C39.2736 19.6826 39.3412 19.7364 39.4015 19.7844C39.4379 19.8134 39.4728 19.8403 39.4924 19.865C39.5912 19.9864 39.6784 20.1216 39.7715 20.2655C39.879 20.4327 39.991 20.6056 40.1341 20.7786C40.294 20.9712 40.4546 21.1813 40.6095 21.384C40.733 21.5461 40.8616 21.714 40.9888 21.8732C41.0368 21.9328 41.1 21.9669 41.156 21.9967C41.1771 22.0076 41.2083 22.0243 41.2134 22.0287C41.2192 22.036 41.2272 22.0665 41.2323 22.0861C41.2432 22.1283 41.2577 22.1813 41.289 22.2344C41.4939 22.5825 41.8334 22.8914 42.1619 23.1894C42.3966 23.403 42.6183 23.6044 42.7833 23.81C42.84 23.8813 42.8894 24.0026 42.9366 24.1211C42.9919 24.2577 43.0485 24.3995 43.1329 24.5056C43.1699 24.5528 43.2252 24.5884 43.2891 24.6291C43.316 24.6466 43.3603 24.6749 43.372 24.6858C43.5682 24.9002 43.7572 25.127 44.0021 25.446C44.1126 25.5892 44.3001 25.6946 44.4818 25.7956C44.5893 25.8559 44.6904 25.9119 44.763 25.9693C44.8234 26.0166 44.8779 26.0667 44.9302 26.1154C45.1068 26.2782 45.2885 26.4461 45.6555 26.4599L45.7144 26.5006C45.6664 26.5137 45.6192 26.5297 45.5749 26.5566C45.5262 26.5864 45.4833 26.6365 45.4251 26.7056C45.3583 26.7848 45.2456 26.9171 45.1766 26.9396C45.1671 26.941 45.1373 26.9396 45.1163 26.9396C45.0319 26.936 44.9171 26.9309 44.8001 26.989C44.6729 27.0515 44.622 27.1707 44.5966 27.2507C44.5857 27.2521 44.5755 27.2536 44.5668 27.255C44.481 27.2666 44.3931 27.2783 44.3262 27.3081C44.2114 27.3589 44.1554 27.4469 44.122 27.4992C44.1162 27.5079 44.1089 27.5188 44.1046 27.5254C44.0878 27.5326 44.0471 27.5385 44.0195 27.5421C43.9643 27.5501 43.9011 27.5588 43.8386 27.5864C43.7492 27.6257 43.6859 27.6962 43.63 27.7587C43.6024 27.7899 43.5733 27.8219 43.5537 27.8357C43.2368 28.0523 43.002 28.2398 42.7288 28.4622C42.4802 28.6643 42.2106 28.8539 41.9496 29.0371C41.7229 29.1963 41.4881 29.3605 41.2628 29.5371C41.1756 29.6054 41.1088 29.705 41.055 29.7857C41.0339 29.8169 41.0026 29.8635 40.9946 29.8722C40.9285 29.9209 40.8536 29.9528 40.7664 29.9906C40.6523 30.0393 40.523 30.0953 40.3907 30.2C40.1988 30.3519 39.6726 30.6629 39.4466 30.7676C38.8514 31.0423 38.3789 31.2865 37.9138 31.5605C37.6645 31.7073 37.485 31.7262 37.2779 31.7487C37.1267 31.7647 36.9544 31.7829 36.7538 31.8556C36.6645 31.8876 36.591 31.9428 36.5256 31.9915C36.4748 32.0293 36.4268 32.0649 36.3839 32.0809C36.0808 32.1943 35.7647 32.235 35.4304 32.2786C35.1484 32.3149 34.8569 32.3534 34.5619 32.4377C34.4281 32.4755 34.2915 32.5213 34.1469 32.57C33.8264 32.6768 33.4949 32.788 33.1984 32.8128C33.0988 32.8215 33.0211 32.8266 32.9564 32.8309C32.6519 32.852 32.6119 32.8585 32.1911 33.0148C31.9389 33.1086 31.6867 33.182 31.4432 33.2532C30.9664 33.392 30.4737 33.5359 29.9947 33.8303C29.7578 33.9756 29.1139 34.0781 28.6444 34.1529C28.4205 34.1886 28.209 34.222 28.0571 34.2561C27.9466 34.2816 27.8282 34.3245 27.7133 34.3659C27.5753 34.416 27.4328 34.4684 27.326 34.4793C27.1959 34.4931 27.0389 34.488 26.8725 34.4829C26.682 34.4771 26.4851 34.4713 26.2939 34.4909C25.8426 34.5374 25.3789 34.5912 24.9298 34.6435C24.578 34.6842 24.2269 34.7249 23.8788 34.7627C23.8359 34.7671 23.7742 34.7758 23.7029 34.7845C23.551 34.8041 23.2342 34.8463 23.1637 34.8369C23.1469 34.8332 23.0968 34.8129 23.0597 34.7976C22.9638 34.7584 22.8446 34.7104 22.7312 34.6988C21.9441 34.6181 21.2537 34.5251 20.4418 34.3354C20.3292 34.3092 20.1584 34.3063 19.96 34.3034C19.8146 34.3012 19.6642 34.299 19.5552 34.2859C19.013 34.2213 18.2411 34.1202 17.7963 33.9887C17.7665 33.98 17.7426 33.9589 17.7019 33.9226C17.6641 33.8884 17.6168 33.8455 17.5536 33.815C17.4627 33.7714 17.3595 33.7525 17.2592 33.7343C17.1902 33.722 17.1182 33.7089 17.0703 33.6893C16.5375 33.4749 15.9336 33.2328 15.3027 33.033C15.2053 33.0024 15.0927 32.9814 14.9837 32.961C14.8659 32.9392 14.7446 32.9167 14.6675 32.8862C14.6617 32.8825 14.6464 32.8665 14.6363 32.8542C14.6028 32.8178 14.557 32.7677 14.4829 32.7328C14.198 32.5983 13.8862 32.509 13.5839 32.4225C13.2096 32.3149 12.8222 32.2037 12.4748 32.0053C12.4385 31.9842 12.4174 31.9573 12.381 31.9086C12.3469 31.8628 12.3047 31.8054 12.2386 31.7538C12.1688 31.6993 12.1201 31.6695 12.0765 31.6426C12.0213 31.6085 11.9777 31.5823 11.8897 31.4987C11.8236 31.4362 11.748 31.357 11.6688 31.2734C11.4726 31.0685 11.2698 30.8562 11.083 30.7479C10.7312 30.5444 10.583 30.4238 10.3366 30.2232C10.2763 30.1738 10.2101 30.12 10.1346 30.0604C9.36561 29.447 8.64827 28.9724 7.94329 28.6097C7.8866 28.5807 7.81901 28.5625 7.7536 28.5443C7.7158 28.5342 7.65911 28.5189 7.64749 28.5131C7.5799 28.4622 7.51594 28.4128 7.45416 28.3655C6.90326 27.944 6.50425 27.6395 5.69824 27.3946C5.53399 27.3451 5.52454 27.3364 5.49547 27.3124C5.4664 27.2884 5.42352 27.2514 5.33485 27.1947C5.01361 26.9912 4.19961 26.6445 3.56876 26.4563C3.79988 26.3901 4.02663 26.3109 4.25775 26.1917C4.79121 25.9177 5.09646 25.744 5.5885 25.3414L5.58414 25.3348Z" fill="#1A1A1A"/>
</g>
<defs>
<clipPath id="clip0_544_6892">
<rect width="49.6279" height="46.2287" fill="white" transform="translate(0.40625 0.820312)"/>
</clipPath>
</defs>
</svg>
