<svg width="67" height="12" viewBox="0 0 67 12" fill="none" xmlns="http://www.w3.org/2000/svg">
<path d="M4.49451 5.39194L0.0417023 10.2247C0.0421205 10.2256 0.0421204 10.2269 0.0425387 10.2277C0.179297 10.7525 0.647706 11.1387 1.20394 11.1387C1.42643 11.1387 1.63513 11.0771 1.81413 10.9693L1.82835 10.9608L6.84032 8.00335L4.49451 5.39194Z" fill="#EA4335"/>
<path d="M8.9988 4.57055L8.99462 4.56756L6.83074 3.28495L4.39292 5.50332L6.83952 8.00439L8.99169 6.73461C9.36892 6.52591 9.62529 6.11918 9.62529 5.65045C9.62529 5.18427 9.37269 4.77969 8.9988 4.57055Z" fill="#FBBC04"/>
<path d="M0.0409857 1.05119C0.0142195 1.15212 0 1.25818 0 1.36767V9.90758C0 10.0171 0.0142195 10.1231 0.041404 10.2236L4.64686 5.51445L0.0409857 1.05119Z" fill="#4285F4"/>
<path d="M4.52755 5.63867L6.83195 3.28258L1.82584 0.314487C1.64391 0.202863 1.43145 0.138711 1.20436 0.138711C0.648124 0.138711 0.178879 0.525762 0.0421203 1.05095C0.0421203 1.05138 0.0417023 1.05181 0.0417023 1.05224L4.52755 5.63867Z" fill="#34A853"/>
<path d="M55.3247 8.22051H56.4784V0.420691H55.3247V8.22051ZM65.7164 3.23027L64.3939 6.612H64.3543L62.9817 3.23027H61.7389L63.7972 7.95659L62.6243 10.5859H63.8269L66.9994 3.23027H65.7164ZM59.1736 7.33452C58.7952 7.33452 58.2684 7.14422 58.2684 6.6719C58.2684 6.07043 58.9244 5.83957 59.4914 5.83957C59.9984 5.83957 60.2377 5.95001 60.5456 6.10038C60.4559 6.82289 59.8395 7.33452 59.1736 7.33452ZM59.3127 3.05994C58.4774 3.05994 57.6118 3.43118 57.2544 4.25415L58.2783 4.68529C58.4972 4.25415 58.9046 4.11314 59.3325 4.11314C59.9291 4.11314 60.5357 4.4744 60.5456 5.11705V5.19692C60.3366 5.0765 59.8896 4.89618 59.3424 4.89618C58.2387 4.89618 57.1147 5.50826 57.1147 6.65194C57.1147 7.69578 58.0198 8.36838 59.0339 8.36838C59.8098 8.36838 60.2377 8.01711 60.506 7.60531H60.5456V8.20741H61.6591V5.21688C61.6591 3.83237 60.6352 3.05994 59.3127 3.05994ZM52.1825 4.1799H50.5416V1.50634H52.1825C53.045 1.50634 53.5347 2.22698 53.5347 2.84281C53.5347 3.4474 53.045 4.1799 52.1825 4.1799ZM52.1528 0.420691H49.3884V8.22051H50.5416V5.26555H52.1528C53.4315 5.26555 54.6885 4.3309 54.6885 2.84281C54.6885 1.35472 53.4315 0.420691 52.1528 0.420691ZM37.0782 7.33577C36.2812 7.33577 35.614 6.66254 35.614 5.73787C35.614 4.80321 36.2812 4.11938 37.0782 4.11938C37.8652 4.11938 38.4823 4.80321 38.4823 5.73787C38.4823 6.66254 37.8652 7.33577 37.0782 7.33577ZM38.4032 3.66703H38.363C38.1039 3.35568 37.6062 3.07429 36.9786 3.07429C35.6635 3.07429 34.4584 4.2398 34.4584 5.73787C34.4584 7.22533 35.6635 8.38149 36.9786 8.38149C37.6062 8.38149 38.1039 8.10009 38.363 7.77814H38.4032V8.16061C38.4032 9.17576 37.8652 9.71858 36.9984 9.71858C36.2911 9.71858 35.8527 9.2057 35.6734 8.77332L34.6674 9.19572C34.9562 9.89952 35.7235 10.7637 36.9984 10.7637C38.3531 10.7637 39.4988 9.95942 39.4988 7.99964V3.23464H38.4032V3.66703ZM40.2958 8.22051H41.4514V0.420068H40.2958V8.22051ZM43.1542 5.6474C43.1245 4.62227 43.9412 4.09942 44.5286 4.09942C44.9874 4.09942 45.3757 4.33027 45.5049 4.66221L43.1542 5.6474ZM46.7403 4.76266C46.5214 4.16992 45.8536 3.07429 44.4891 3.07429C43.1344 3.07429 42.0091 4.14933 42.0091 5.72789C42.0091 7.21535 43.1245 8.38149 44.6183 8.38149C45.824 8.38149 46.5214 7.63775 46.8101 7.20537L45.9136 6.60202C45.615 7.04439 45.2063 7.33577 44.6183 7.33577C44.0309 7.33577 43.6123 7.06436 43.3433 6.53214L46.8596 5.06402L46.7403 4.76266ZM18.7265 3.88852V5.0141H21.3957C21.3159 5.6474 21.1069 6.10974 20.7885 6.43106C20.3996 6.82352 19.7918 7.25591 18.7265 7.25591C17.0825 7.25591 15.7976 5.91881 15.7976 4.26039C15.7976 2.60135 17.0825 1.26488 18.7265 1.26488C19.6131 1.26488 20.2605 1.61678 20.7384 2.06913L21.5255 1.27486C20.8578 0.631581 19.9718 0.138672 18.7265 0.138672C16.4753 0.138672 14.5827 1.98864 14.5827 4.26039C14.5827 6.53214 16.4753 8.38149 18.7265 8.38149C19.9415 8.38149 20.8578 7.97905 21.575 7.22533C22.3126 6.4816 22.5414 5.43651 22.5414 4.5917C22.5414 4.33027 22.5216 4.08943 22.4814 3.88852H18.7265ZM25.5766 7.33577C24.7796 7.33577 24.0921 6.67253 24.0921 5.72789C24.0921 4.77264 24.7796 4.11938 25.5766 4.11938C26.373 4.11938 27.0605 4.77264 27.0605 5.72789C27.0605 6.67253 26.373 7.33577 25.5766 7.33577ZM25.5766 3.07429C24.1218 3.07429 22.9365 4.18989 22.9365 5.72789C22.9365 7.2559 24.1218 8.38149 25.5766 8.38149C27.0308 8.38149 28.2161 7.2559 28.2161 5.72789C28.2161 4.18989 27.0308 3.07429 25.5766 3.07429ZM31.3348 7.33577C30.5378 7.33577 29.8503 6.67253 29.8503 5.72789C29.8503 4.77264 30.5378 4.11938 31.3348 4.11938C32.1318 4.11938 32.8187 4.77264 32.8187 5.72789C32.8187 6.67253 32.1318 7.33577 31.3348 7.33577ZM31.3348 3.07429C29.8806 3.07429 28.6953 4.18989 28.6953 5.72789C28.6953 7.2559 29.8806 8.38149 31.3348 8.38149C32.789 8.38149 33.9743 7.2559 33.9743 5.72789C33.9743 4.18989 32.789 3.07429 31.3348 3.07429Z" fill="white"/>
</svg>
